<?xml version="1.0" encoding="UTF-8"?>
<svg width="40px" height="40px" viewBox="0 0 40 40" version="1.1" xmlns="http://www.w3.org/2000/svg" xmlns:xlink="http://www.w3.org/1999/xlink">
    <title>icon/3d MPR</title>
    <g id="icon/3d-MPR" stroke="none" stroke-width="1" fill="none" fill-rule="evenodd">
        <g id="编组" transform="translate(2.000000, 9.000000)" fill="#C9D3E6">
            <path d="M27.7297954,18.9680799 L29.1989523,20.0860522 L28.08098,21.5552091 L26.6118231,20.4372368 L27.7297954,18.9680799 Z M24.7914816,16.7321354 L26.2606385,17.8501077 L25.1426662,19.3192645 L23.6735093,18.2012923 L24.7914816,16.7321354 Z M20.8326432,14.3076923 L20.8326432,15.8363077 L21.8531678,14.4961908 L23.3223247,15.6141631 L22.2043524,17.08332 L20.8326432,16.0393846 L20.8326432,16.1538462 L18.9864893,16.1538462 L18.9864893,14.3076923 L20.8326432,14.3076923 Z M17.1403355,14.3076923 L17.1403355,16.1538462 L15.2941816,16.1538462 L15.2941816,14.3076923 L17.1403355,14.3076923 Z M13.4480278,14.3076923 L13.4480278,16.1538462 L11.601874,16.1538462 L11.601874,14.3076923 L13.4480278,14.3076923 Z M9.75572011,14.3076923 L9.75572011,16.1538462 L7.90956626,16.1538462 L7.90956626,14.3076923 L9.75572011,14.3076923 Z M22.2172586,12 L22.2172586,13.8461538 L20.3711047,13.8461538 L20.3711047,12 L22.2172586,12 Z M22.2172586,8.30769231 L22.2172586,10.1538462 L20.3711047,10.1538462 L20.3711047,8.30769231 L22.2172586,8.30769231 Z M22.2172586,4.61538462 L22.2172586,6.46153846 L20.3711047,6.46153846 L20.3711047,4.61538462 L22.2172586,4.61538462 Z M22.2172586,0.923076923 L22.2172586,2.76923077 L20.3711047,2.76923077 L20.3711047,0.923076923 L22.2172586,0.923076923 Z" id="形状结合" fill-opacity="0.8"></path>
            <polygon id="路径-8" fill-opacity="0.5" points="5.1403355 9.23076923 21.2941816 11.0769231 30.9972151 16.1075029 15.2941816 14.261349"></polygon>
            <path d="M21.2689529,1.65474472e-13 C21.4398318,1.65474472e-13 21.60648,0.0474088159 21.7508338,0.135761861 L21.8546367,0.209602679 L29.7260193,6.67114114 C29.9723647,6.87336357 30.0755441,7.14815077 30.0644416,7.41479305 L30.104,14.604 L35.9093037,17.6144353 L30.116,16.933 L30.1454779,22.1538462 L15.313302,22.1551994 C15.1565125,22.1590739 14.9956364,22.1224515 14.8453702,22.0377822 L14.7566012,21.9811547 L6.44890892,16.0294764 C6.23718825,15.8777985 6.10083299,15.6449328 6.07005231,15.3896828 L6.06341242,15.2790909 L6.062,10.718 L-4.64585635e-15,7.71421669 L6.062,8.407 L6.06181368,0.952527031 C6.05166451,0.50697198 6.36493024,0.0675647368 6.86726967,0.00706551352 L6.98648934,1.65474472e-13 L21.2689529,1.65474472e-13 Z M16.216,15.299 L16.2165743,20.307 L28.2883355,20.3076923 L28.268,16.716 L16.216,15.299 Z M7.909,11.632 L7.90956626,14.8043077 L14.3711047,19.4344615 L14.37,14.834 L7.909,11.632 Z M16.216,11.425 L16.216,13.439 L26.0849509,14.6003077 L21.0200278,11.9741538 L16.216,11.425 Z M28.2215743,8.307 L16.2165743,8.307 L16.216,9.567 L21.5680168,10.1791329 L28.251,13.644 L28.2215743,8.307 Z M10.2800278,10.7464615 L14.37,12.772 L14.37,11.214 L10.2800278,10.7464615 Z M7.90857429,2.885 L7.908,8.618 L14.369,9.356 L14.369875,8.20825488 L14.2809539,8.15685754 L14.2809539,8.15685754 L14.1977761,8.09546906 L7.90857429,2.885 Z M20.9397201,1.84615385 L9.5480278,1.84615385 L15.1206432,6.46153846 L26.5612586,6.46153846 L20.9397201,1.84615385 Z" id="形状结合"></path>
        </g>
    </g>
</svg>