<?xml version="1.0" encoding="UTF-8"?>
<svg width="40px" height="40px" viewBox="0 0 40 40" version="1.1" xmlns="http://www.w3.org/2000/svg" xmlns:xlink="http://www.w3.org/1999/xlink">
    <title>icon/jianqiehe</title>
    <defs>
        <linearGradient x1="64.4309998%" y1="0%" x2="27.4600983%" y2="100%" id="linearGradient-1">
            <stop stop-color="#E4EAF5" offset="0%"></stop>
            <stop stop-color="#D7E0F1" offset="100%"></stop>
        </linearGradient>
        <circle id="path-2" cx="20" cy="15" r="8"></circle>
        <filter x="-21.9%" y="-15.6%" width="143.8%" height="143.8%" filterUnits="objectBoundingBox" id="filter-3">
            <feOffset dx="0" dy="1" in="SourceAlpha" result="shadowOffsetOuter1"></feOffset>
            <feGaussianBlur stdDeviation="1" in="shadowOffsetOuter1" result="shadowBlurOuter1"></feGaussianBlur>
            <feComposite in="shadowBlurOuter1" in2="SourceAlpha" operator="out" result="shadowBlurOuter1"></feComposite>
            <feColorMatrix values="0 0 0 0 0   0 0 0 0 0   0 0 0 0 0  0 0 0 0.199930685 0" type="matrix" in="shadowBlurOuter1"></feColorMatrix>
        </filter>
    </defs>
    <g id="icon/jianqiehe" stroke="none" stroke-width="1" fill="none" fill-rule="evenodd">
        <path d="M29.7297954,27.9680799 L31.1989523,29.0860522 L30.08098,30.5552091 L28.6118231,29.4372368 L29.7297954,27.9680799 Z M26.7914816,25.7321354 L28.2606385,26.8501077 L27.1426662,28.3192645 L25.6735093,27.2012923 L26.7914816,25.7321354 Z M22.8326432,23.3076923 L22.8326432,24.8363077 L23.8531678,23.4961908 L25.3223247,24.6141631 L24.2043524,26.08332 L22.8326432,25.0393846 L22.8326432,25.1538462 L20.9864893,25.1538462 L20.9864893,23.3076923 L22.8326432,23.3076923 Z M19.1403355,23.3076923 L19.1403355,25.1538462 L17.2941816,25.1538462 L17.2941816,23.3076923 L19.1403355,23.3076923 Z M15.4480278,23.3076923 L15.4480278,25.1538462 L13.601874,25.1538462 L13.601874,23.3076923 L15.4480278,23.3076923 Z M11.7557201,23.3076923 L11.7557201,25.1538462 L9.90956626,25.1538462 L9.90956626,23.3076923 L11.7557201,23.3076923 Z M24.2172586,21 L24.2172586,22.8461538 L22.3711047,22.8461538 L22.3711047,21 L24.2172586,21 Z M24.2172586,17.3076923 L24.2172586,19.1538462 L22.3711047,19.1538462 L22.3711047,17.3076923 L24.2172586,17.3076923 Z M24.2172586,13.6153846 L24.2172586,15.4615385 L22.3711047,15.4615385 L22.3711047,13.6153846 L24.2172586,13.6153846 Z M24.2172586,9.92307692 L24.2172586,11.7692308 L22.3711047,11.7692308 L22.3711047,9.92307692 L24.2172586,9.92307692 Z" id="形状结合" fill-opacity="0.8" fill="#C9D3E6"></path>
        <polygon id="路径-26" fill="#C9D3E6" points="30.2172728 16.3897435 32.0633982 16.3794873 32.1454779 31.1538462 17.2941816 31.1538462 17.2941816 29.3076923 30.2883355 29.3076923"></polygon>
        <polygon id="路径-11" fill="#C9D3E6" points="9.07331085 8.92307692 23.6506694 8.92307692 31.8315367 15.6049958 30.5663679 17.1539787 22.938 10.923 9.07331085 10.9230769"></polygon>
        <g id="椭圆形">
            <use fill="black" fill-opacity="1" filter="url(#filter-3)" xlink:href="#path-2"></use>
            <use fill-opacity="0.85" fill="url(#linearGradient-1)" fill-rule="evenodd" xlink:href="#path-2"></use>
        </g>
        <path d="M9.90956626,9.92307692 L9.90956626,23.8043077 L16.3711047,28.4344615 L16.3711047,16.3803952 L18.2172586,16.3803952 L18.2172586,30.2307692 C18.2172586,30.946386 17.446435,31.3764592 16.8453702,31.0377822 L16.7566012,30.9811547 L8.44890892,25.0294764 C8.23718825,24.8777985 8.10083299,24.6449328 8.07005231,24.3896828 L8.06341242,24.2790909 L8.06341242,9.92307692 L9.90956626,9.92307692 Z" id="路径-23" fill="#C9D3E6"></path>
        <path d="M8.2868603,9.30542368 C8.60174073,8.90449016 9.16160709,8.80925545 9.58750101,9.06527682 L9.69096409,9.13662637 L17.639,15.379 L31.1989523,15.3794873 C31.7117881,15.3794873 32.1344594,15.7655274 32.1922245,16.2628661 L32.1989523,16.3794873 C32.1989523,16.8923231 31.8129121,17.3149944 31.3155734,17.3727595 L31.1989523,17.3794873 L17.2941816,17.3794873 C17.1149892,17.3794873 16.9399474,17.3313586 16.7869057,17.2412728 L16.6765284,17.1659378 L8.45565761,10.7095275 C8.02131296,10.368407 7.94573983,9.73976833 8.2868603,9.30542368 Z" id="路径-28" fill="#C9D3E6"></path>
    </g>
</svg>