<?xml version="1.0" encoding="UTF-8"?>
<svg width="40px" height="40px" viewBox="0 0 40 40" version="1.1" xmlns="http://www.w3.org/2000/svg" xmlns:xlink="http://www.w3.org/1999/xlink">
    <title>icon/联影智能/move备份 14</title>
    <g id="icon/联影智能/move备份-14" stroke="none" stroke-width="1" fill="none" fill-rule="evenodd">
        <path d="M13.2678252,11 L27.7021087,11 C27.7021087,11 27.6889747,13.7301138 27.9706421,14.5542642 C27.730843,14.6049935 27.7397952,14.6244196 27.5195099,14.6792422 C27.3316972,14.3383307 26.7240595,12.6250629 26.5954179,12.3576687 C26.4663649,12.0894195 26.3950421,12.0894194 26.056574,12.0894195 C25.7181059,12.0894195 21.7913492,12.0894195 21.7913492,12.0894195 C21.5191462,12.0894195 21.299284,12.3094592 21.3002991,12.5882752 C21.3002991,12.5882752 21.3495329,26.0837534 21.349533,26.6271507 C21.349533,27.1705479 22.8905227,27.4453961 24.0000002,27.7088774 C23.9999886,27.8719321 24,28 24,28 L17.0770901,27.9866691 C17.0770901,27.9866691 17.07709,27.8809235 17.07709,27.7088774 C18.144903,27.4468723 19.7064627,27.1960557 19.7085235,26.6271507 C19.7105843,26.0582456 19.6593603,12.5807912 19.6593603,12.5807912 C19.658318,12.3056269 19.4244998,12.0829308 19.1588879,12.0833488 C19.1588879,12.0833488 15.3468504,12.0894195 14.9098079,12.0894194 C14.4727654,12.0894194 14.4977386,12.0894195 14.3667155,12.3576687 C14.2356924,12.625918 13.7990286,14.0681081 13.4444264,14.6792422 C13.2065864,14.621362 13.2672547,14.6314533 13,14.5542642 C13.2672547,13.7233365 13.2678252,11 13.2678252,11 Z" id="Path-461" fill="#FFFFFF"></path>
    </g>
</svg>