<?xml version="1.0" standalone="no"?><!DOCTYPE svg PUBLIC "-//W3C//DTD SVG 1.1//EN" "http://www.w3.org/Graphics/SVG/1.1/DTD/svg11.dtd"><svg t="1619165320125" class="icon" viewBox="0 0 1024 1024" version="1.1" xmlns="http://www.w3.org/2000/svg" p-id="8963" data-spm-anchor-id="a313x.7781069.0.i0" width="32" height="32" xmlns:xlink="http://www.w3.org/1999/xlink"><defs><style type="text/css"></style></defs><path d="M904.533333 1024H215.04C150.186667 1024 102.4 972.8 102.4 901.12V170.666667c0-10.24 6.826667-17.066667 17.066667-17.066667s17.066667 6.826667 17.066666 17.066667v730.453333c0 44.373333 23.893333 88.746667 78.506667 88.746667H887.466667V290.133333c0-10.24 6.826667-17.066667 17.066666-17.066666s17.066667 6.826667 17.066667 17.066666v716.8c0 10.24-6.826667 17.066667-17.066667 17.066667z" fill="#C9D3E6" p-id="8964"></path><path d="M904.533333 307.2h-307.2c-10.24 0-17.066667-6.826667-17.066666-17.066667s6.826667-17.066667 17.066666-17.066666h273.066667c-17.066667-30.72-23.893333-71.68-27.306667-119.466667 0-47.786667 10.24-88.746667 27.306667-119.466667H235.52C184.32 34.133333 136.533333 78.506667 136.533333 122.88v64.853333C136.533333 238.933333 191.146667 273.066667 238.933333 273.066667h119.466667c10.24 0 17.066667 6.826667 17.066667 17.066666s-6.826667 17.066667-17.066667 17.066667H238.933333C174.08 307.2 102.4 259.413333 102.4 187.733333V122.88C102.4 58.026667 163.84 0 235.52 0h669.013333c6.826667 0 13.653333 3.413333 17.066667 10.24 3.413333 6.826667 0 13.653333-3.413333 17.066667-47.786667 47.786667-47.786667 201.386667 0 249.173333 3.413333 6.826667 3.413333 13.653333 3.413333 20.48-3.413333 6.826667-10.24 10.24-17.066667 10.24z" fill="#C9D3E6" p-id="8965"></path><path d="M853.333333 170.666667H256c-10.24 0-17.066667-6.826667-17.066667-17.066667s6.826667-17.066667 17.066667-17.066667H853.333333c10.24 0 17.066667 6.826667 17.066667 17.066667s-6.826667 17.066667-17.066667 17.066667z" fill="#C9D3E6" p-id="8966"></path><path d="M597.333333 682.666667c-3.413333 0-10.24-3.413333-13.653333-6.826667L477.866667 556.373333l-105.813334 122.88c-6.826667 3.413333-13.653333 3.413333-20.48 3.413334-6.826667-3.413333-10.24-10.24-10.24-17.066667v-512c0-10.24 6.826667-17.066667 17.066667-17.066667s17.066667 6.826667 17.066667 17.066667v467.626667l88.746666-102.4c6.826667-6.826667 20.48-6.826667 27.306667 0l88.746667 102.4V153.6c0-10.24 6.826667-17.066667 17.066666-17.066667s17.066667 6.826667 17.066667 17.066667v512c0 6.826667-3.413333 13.653333-10.24 17.066667h-6.826667z" fill="#C9D3E6" p-id="8967"></path></svg>