<?xml version="1.0" encoding="UTF-8"?>
<svg width="28px" height="28px" viewBox="0 0 28 28" version="1.1" xmlns="http://www.w3.org/2000/svg" xmlns:xlink="http://www.w3.org/1999/xlink">
    <title>形状结合</title>
    <g id="控件" stroke="none" stroke-width="1" fill="none" fill-rule="evenodd">
        <g id="commontools" transform="translate(-26.000000, -671.000000)" fill="#C9D3E6">
            <g id="编组-19" transform="translate(10.000000, 655.000000)">
                <g id="编组-8备份-13" transform="translate(5.000000, 5.000000)">
                    <g id="icon/acpc-dian" transform="translate(11.000000, 11.000000)">
                        <path d="M15.0769231,0 L15.076,12.923 L28,12.9230769 L28,15.0769231 L15.076,15.076 L15.0769231,28 L12.9230769,28 L12.923,15.076 L0,15.0769231 L0,12.9230769 L12.923,12.923 L12.9230769,0 L15.0769231,0 Z M17.8422878,19.780623 C19.2227914,21.5140569 20.7135516,22.3588867 22.3333333,22.3588867 C23.8723083,22.3588867 25.272779,21.6131089 26.5533794,20.0847753 L26.7545861,19.8369509 L27.5403358,20.4554954 C27.1681169,20.9283327 26.7819396,21.3442856 26.3821279,21.7027147 L27.3864749,22.7352227 L26.6695961,23.4324205 L25.591675,22.3242328 C25.116301,22.6477481 24.6235015,22.8960664 24.1137557,23.0682422 L24.5712147,24.485154 L23.6196218,24.7925153 L23.1375582,23.3017098 C22.8735815,23.339789 22.6054869,23.3588867 22.3333333,23.3588867 C22.0797689,23.3588867 21.8293742,23.3420151 21.5821903,23.308368 L21.0999009,24.7932703 L20.148797,24.484399 L20.6049384,23.0826519 C20.0799289,22.9098943 19.5707463,22.6564681 19.0778295,22.3233971 L18.0296142,23.4742011 L17.2904007,22.8007299 L18.2866174,21.7081473 C17.9490315,21.4099977 17.6197803,21.0719109 17.2990211,20.6942545 L17.0600465,20.4035986 L17.8422878,19.780623 Z" id="形状结合"></path>
                    </g>
                </g>
            </g>
        </g>
    </g>
</svg>