<?xml version="1.0" standalone="no"?><!DOCTYPE svg PUBLIC "-//W3C//DTD SVG 1.1//EN" "http://www.w3.org/Graphics/SVG/1.1/DTD/svg11.dtd"><svg t="1637045136091" class="icon" viewBox="0 0 1024 1024" version="1.1" xmlns="http://www.w3.org/2000/svg" p-id="5630" width="32" height="32" xmlns:xlink="http://www.w3.org/1999/xlink"><defs><style type="text/css"></style></defs><path d="M949.946548 359.774297c7.248063 3.137451 14.216765 7.366767 20.752609 12.680786 13.745021 11.177551 25.548835 27.22296 33.902066 48.120877 20.164208 50.657649 17.705208 88.903642 0.59454 119.403222-10.092849 18.053132-25.066859 32.559492-43.284742 44.818675 4.037958 3.690035 7.759715 7.762785 11.209273 12.225415 0.509605 0.567934 0.990558 1.16452 1.461279 1.791806 2.142799 2.876508 4.115729 5.944374 6.019075 9.180061 11.052708 19.06211 10.295463 47.35647 2.652404 75.051174-7.757669 28.162354-22.964992 57.354151-39.562985 74.498588-36.747875 38.051565-80.233185 63.869529-128.034793 72.26574a195.476676 195.476676 0 0 1-41.699644 2.807946l9.545381 48.060503c2.614542 12.723764-5.507423 25.200911-18.214814 27.95053l-38.930583 8.492401v-0.034792a23.796938 23.796938 0 0 1-22.299844-6.926746L589.767022 788.710653c-19.840844 6.099916-38.372882 7.715713-55.087532 3.075029-14.055083-3.928465-26.060487-11.69432-35.524004-24.140769-11.915354 8.845441-23.959643 14.456218-40.712155 15.631995-35.321389 2.46821-68.0354-1.210569-96.430044-10.050894-30.095375-9.36221-55.521413-24.651397-74.33179-44.747044-16.514082-17.645857-22.535204-34.951977-27.249567-55.102882-12.112851 4.754271-25.107791 8.837255-38.256225 11.687157-20.830379 4.513795-42.530567 6.087636-62.965952 2.723012-10.020194-1.659799-19.720094-4.640684-28.710844-8.773809-18.100204-8.29695-33.465116-21.221282-43.601967-37.274878-4.157685-6.632034-7.445561-13.738882-9.664084-21.244817-29.543814-19.108158-48.984547-45.454147-60.195867-74.962146C6.029308 516.618172 3.097542 484.783179 6.385418 454.0114c3.248991-30.405436 12.591758-59.957437 26.216029-84.673302 14.533989-26.43297 34.216221-47.782164 57.068649-59.72924 19.088716-50.059016 49.382612-85.473526 87.954016-110.134133 37.862254-24.246169 83.168022-37.51126 133.143126-43.808674 20.992061-15.380261 46.733277-28.116305 76.513475-36.763225 55.802822-16.192765 126.252197-18.335564 206.053548 3.464908 13.937403 3.797482 27.364176 7.258296 40.745924 10.700691 78.377935 20.146812 155.399992 39.962074 220.70624 96.116913 2.258432 1.938138 5.862509 4.967118 9.46761 8.016565 33.507071 28.270824 68.190942 57.535276 85.693537 122.571371v0.001023h-0.001024z m-68.786505 60.511045c-8.236575 10.146061-23.165559 11.687157-33.306503 3.434209-10.138898-8.254995-11.67897-23.171699-3.448535-33.319807 12.043267-14.814374 26.336779-25.295055 41.544102-31.345853a86.9829 86.9829 0 0 1 12.561058-3.940744c-15.2063-39.797322-40.43791-61.074885-64.911252-81.71186-2.769061-2.357693-5.584171-4.713339-9.622129-8.203829-57.144374-49.141112-128.753152-67.547284-201.577615-86.27682-13.975265-3.596914-27.999648-7.205085-41.504194-10.88591-70.648919-19.306679-132.232386-17.638694-180.428988-3.651149-23.60251 6.852045-43.797418 16.564224-60.037255 28.061047a23.688468 23.688468 0 0 1-10.059079 7.80474c-15.443706 13.028708-26.175097 27.816477-31.600656 43.066779-4.355182 12.350258-17.902706 18.83289-30.259104 14.479754-12.352304-4.362346-18.849263-17.905776-14.49101-30.258081 1.585098-4.479002 3.484351-8.910933 5.623056-13.296814-20.713723 6.130615-39.722621 14.347748-56.591789 25.15077-23.130767 14.777535-42.495775 34.752432-57.148467 61.34913l1.267874 0.194428c12.914098 2.055818 21.743167 14.188112 19.680185 27.10221-2.055818 12.920238-14.176856 21.733957-27.124723 19.680186a54.672071 54.672071 0 0 0-12.832234-0.514722c-3.720734 0.290618-7.050566 0.982372-9.862606 2.049678-16.354447 6.230899-31.363249 22.053228-42.846768 42.919423-10.730367 19.437662-18.099181 42.77002-20.674837 66.844274-2.490722 23.713027-0.35611 47.962266 7.881489 69.620498 4.594636 12.048383 11.130479 23.336451 19.840844 33.276828 0.398065-0.909717 0.791014-1.807155 1.191126-2.711756 5.464444-11.891818 19.484734-17.123972 31.403158-11.69125 11.879538 5.427605 17.109645 19.481664 11.683063 31.373482-1.903346 4.107543-3.128241 8.117872-3.763712 11.968565a38.93263 38.93263 0 0 0-0.437974 7.931631 23.303705 23.303705 0 0 1 1.033537 6.834648c0.95065 3.85888 2.532678 7.502866 4.671383 10.871583 5.14722 8.198713 13.345933 14.962753 23.127697 19.461199a66.615054 66.615054 0 0 0 16.671672 5.054099c14.019267 2.297318 29.740289 1.036607 45.345677-2.34439 19.800935-4.299924 38.847696-11.840652 54.017156-19.924755 11.527521-6.150058 25.860943-1.785666 32.037606 9.744925a22.529064 22.529064 0 0 1 2.137683 5.763249l0.081864-0.007163c1.109262 4.829996 2.254339 10.166527 3.325739 15.287141 4.119823 19.376264 7.444538 34.860903 18.45529 46.65653 13.029732 13.91489 31.486045 24.771124 53.899476 31.752104 22.930199 7.119127 49.738722 10.06215 79.161786 8.004285 10.377327-0.724499 20.199001-9.642595 34.691034-22.875964l0.71529-0.637519c9.707063-8.812695 24.714842-8.105592 33.499908 1.583052 2.498909 2.721989 4.200664 5.877859 5.192245 9.188248 4.392021 13.799257 10.533893 20.856985 17.935452 22.91792 9.82986 2.733245 23.761122-0.243546 40.314091-6.91549 9.353-3.754503 19.685302-1.101075 26.183283 5.863533l115.558668 122.797522 3.093449-0.664125-8.515938-42.851884c-16.043363-4.67036-32.315945-11.343327-48.674485-20.175465-11.565384-6.211456-15.880657-20.587856-9.662038-32.120494 6.180757-11.535708 20.553064-15.856098 32.115378-9.648735 38.57345 20.809913 75.639573 26.619211 109.781093 20.628788 37.506144-6.590079 72.190015-27.451157 102.0531-58.344709 11.407795-11.794604 22.175001-33.081377 28.03751-54.267866 4.55575-16.532502 6.056937-31.573026 1.980094-38.662477a49.269025 49.269025 0 0 0-3.247968-4.910837c-0.277315-0.391925-0.556677-0.784874-0.788967-1.183963-6.6525-8.445329-15.762977-14.396866-26.730751-18.287469a24.467202 24.467202 0 0 1-4.401232-1.412159c-23.637303-6.923676-54.809194-5.244434-87.952992 1.407043-57.578255 11.571523-119.757285 38.427118-163.360275 63.674078-12.351281 7.169269-22.808426 13.922053-30.931414 19.893032-10.487844 7.736179-25.307335 5.495143-33.027142-5.012143-7.757669-10.507287-5.508446-25.303242 4.988608-33.046585 10.139921-7.487516 22.098253-15.249278 35.208826-22.856521 47.089387-27.276172 114.645881-56.3595 177.854355-69.055634 37.468282-7.529472 73.698365-9.290578 104.428189-1.864461 23.530879-11.546964 42.456889-24.921549 52.194651-42.327953 10.264764-18.279282 10.937075-43.222321-3.201918-78.744278-5.190199-12.936611-12.04429-22.510645-19.800936-28.814198-4.633521-3.789295-9.629292-6.362905-14.657808-7.733109a22.788983 22.788983 0 0 1-2.807947-0.636496c-0.278339-0.048095-0.556677-0.100284-0.873902-0.143262-6.218619-0.970092-12.715577-0.173962-19.050853 2.34746-7.796554 3.097542-15.400728 8.851581-22.253795 17.240628z" fill="#1296db" p-id="5631"></path><path d="M595.821913 490.96496c-18.647672 9.124803-32.508326-19.208442-13.860655-28.343479 10.102059-4.959955 19.887916-8.090243 29.308455-9.402118 7.286949-59.563465 57.461598-93.701915 115.682488-88.781868 17.503618-44.826862 72.389559-58.486949 117.259399-34.492514 18.338634 9.806324 3.442395 37.627917-14.85019 27.8482-21.147604-11.314674-47.600016-11.219507-63.759012 4.251828-18.061318 17.270304-13.66725 44.090083-1.826598 66.244618 9.745949 18.326354-18.099181 33.177567-27.874805 14.851213-9.034752-16.939777-13.351049-32.905368-13.938426-47.404565-39.803462-2.712779-73.311556 18.999688-79.164855 60.337083 16.033129 5.498213 30.095375 17.207883 42.170364 35.158684 11.563337 17.262118-14.688508 34.852716-26.252868 17.576272-16.793444-25.076068-35.883183-31.08184-62.893297-17.843354zM379.358292 577.542631v0.007163c10.453052 7.189735 21.352264 13.195507 32.791782 17.524084-2.81511 26.708238-15.917496 47.441404-36.751969 64.032234-6.811112 5.433745-7.955166 15.377192-2.533701 22.209793 5.425559 6.837718 15.364912 7.967446 22.213887 2.540864 9.310021-7.400536 17.272351-15.392541 23.881872-23.966806 17.108622-4.074797 34.574377-4.462629 49.265955-1.016141 13.10648 3.074006 23.564648 9.130943 28.313803 18.172858 9.70297 18.412312 37.665779 3.677755 27.997601-14.7233-15.798793-29.969509-53.695839-39.193572-86.804844-37.103985 2.533701-7.461934 4.315274-15.20323 5.386673-23.216725 34.173242 2.076284 61.778918-15.304537 80.072527-47.329864 12.275557 9.912747 21.510877 23.169653 26.183283 36.806204 6.766087 19.712931 36.710013 9.439981 29.933693-10.270904-15.56241-45.415262-62.845201-81.213511-114.965152-73.595011-20.593996 3.013631-16.034153 34.324691 4.594636 31.312084a66.035864 66.035864 0 0 1 26.020578 1.360994c-24.3178 41.582988-62.373458 35.375625-97.779782 11.146853-7.205085-4.915953-17.06769-3.066843-21.978526 4.145405-4.91186 7.209178-3.0474 17.048247 4.157684 21.9642z m412.263661-136.730831c28.232962 31.709126 27.520742 53.119719-8.360395 75.725531-17.582412 11.092617-0.751105 37.808019 16.830284 26.731774 17.387984-10.967774 29.066954-22.732702 35.842251-35.17915 12.197786 2.177591 23.685398 6.908326 29.185658 17.779909 8.947772 17.716465 35.965048 5.518679 28.833641-12.807674 9.622129-19.39673 23.049926-30.994859 44.908726-29.704473 20.791494 1.219779 22.609905-30.337898 1.857297-31.560747-29.934716-1.761106-53.262981 11.763905-68.949211 36.360043-8.392117-5.298669-18.053132-8.781996-28.548139-10.85521-0.796131-19.326122-11.006659-38.491586-27.999648-57.531183-13.861678-15.558316-37.461118 5.48184-23.600464 21.04118zM637.335316 561.10632c-8.042147-3.27969-11.964472-12.476124-8.676596-20.542831 3.286853-8.071823 12.51501-11.947076 20.551017-8.660223 11.207227 4.572123 20.040389 10.967774 27.683448 19.789679 13.621202 15.717952-10.255554 36.385626-23.877779 20.659487-4.084007-4.721525-9.745949-8.820882-15.68623-11.246112h0.00614z m-439.552113-80.65274v0.006139c21.50269 31.401111 62.330479 35.138218 98.848112 34.461814-11.563337 15.79163-21.307239 33.533677-27.288452 54.13586-5.781668 19.974897 24.5593 28.734381 30.335851 8.790183 3.566215-12.294999 8.674549-22.957829 14.217788-32.084679 19.799912-32.626006 54.81124-68.520446 96.948859-46.804908 7.564264 3.905952 16.834377 1.094935 20.987968-6.266715 11.0875-17.163881 22.457433-27.406132 34.060679-32.192125 10.967774-4.542447 22.812519-4.222153 35.282504-0.360203 7.049542 2.166335 14.461334-0.852412 18.134996-6.871488 17.504641-27.673214 48.204789-45.522709 78.022849-57.359268 5.344718-2.110053 8.871024-6.802926 9.776648-12.074989v0.007164c0.990558-5.789855 19.607531-21.330775 27.172818-29.985882 13.898517-15.974801 29.22966-32.576888 28.750753-68.683152 29.623632 8.607011 60.237822 0.35611 91.162074-21.643906 7.13243-5.057169 8.794276-14.924891 3.728921-22.028668-5.073542-7.109917-14.937171-8.769717-22.021506-3.713571-39.247807 27.898341-69.939769 24.90927-98.766247-6.741528-14.062246-15.404821-37.429396 5.912651-23.414222 21.28575 5.151313 5.638406 10.458168 10.658736 15.965591 15.040524 5.823624 37.04975-6.690363 51.332006-17.620274 63.850086l-13.589479 13.961962c-8.31537 7.923444-15.716928 14.97094-19.801959 24.283008-10.054987 4.264108-19.754887 8.980517-28.943134 14.307838-14.138993-35.87602-36.113427-59.984043-82.613391-58.255682-20.829356 0.775665-19.603438 32.322085 1.109261 31.557677 34.454651-1.281177 44.716345 17.591622 54.686398 45.308838-8.708318 7.306392-16.669625 15.481569-23.758053 24.720982-35.089099-6.715945-63.95651 8.233505-86.688188 38.23576-15.287141-5.290482-29.701403-5.737666-42.970588-3.154847 8.396211-19.853124 13.743998-40.528984 10.932982-60.078187-2.969629-20.632882-34.257153-16.12932-31.32641 4.455466 3.326762 23.174769-12.673622 53.7644-24.910293 75.473798-30.84955 1.929952-82.928569 6.007819-100.31246-19.400823-11.763905-17.186393-37.822345 0.640588-26.100396 17.817772z m-68.0354-23.545206c5.344718-6.902187 15.245185-8.17313 22.133046-2.840692 6.934932 5.327321 8.198713 15.247232 2.855019 22.150442-13.188344 17.050294 8.670456 62.813479 44.236415 45.788767 18.732606-8.971308 32.353807 19.490874 13.580269 28.460135-65.419835 31.322317-116.349682-50.194092-82.808842-93.553535l0.004093-0.005117z m40.866675-47.747371c-9.266019 21.309286-50.810121 4.292761-17.109645-29.883552 25.347244-25.727913 74.296998-31.57405 101.504609-4.796226 14.812328 14.603574-7.366767 37.105009-22.179095 22.522924-16.592877-16.348307-53.738818-7.156989-62.215869 12.156854z m226.252548-99.231851l-0.004093 0.001023c-2.572587 5.146197-4.78804 10.825535-6.573706 17.127042-5.619986 20.044482 24.831499 28.577815 30.455579 8.54152 7.208154-25.707447 28.552232-37.480561 45.384562-46.737371 17.225279-9.487053 35.050214-12.051453 52.556901-3.313459 12.669529 6.360859 26.567022-6.078427 21.895639-19.355798l0.039909-0.010233c-7.487516-21.084159 4.754271-41.183899 18.454267-56.606116 13.860655-15.567526-9.778694-36.598473-23.645489-21.039133-14.851213 16.725906-27.401015 37.536843-28.669912 60.763801-16.196858-2.127449-32.513443 0.781804-47.8364 7.770971-9.784834-25.166119-30.335852-41.718064-57.821801-51.015805-19.720094-6.675013-29.861038 23.2771-10.136851 29.951089 20.234816 6.859208 34.411672 17.991734 39.996867 36.889092-5.109358 3.410673-10.178806 7.242947-15.008803 11.721949-55.362801-40.606755-163.000072 27.694704-128.432857 101.682664 8.794276 18.818563 37.39051 5.453188 28.595211-13.367422-19.87973-42.538754 49.583179-84.436919 80.750977-63.003814z m338.322773 391.37086c-5.306855 6.911396-15.254395 8.180293-22.145325 2.849902-19.87052-15.353656 11.130479-47.351353 47.68495-41.71397 4.200664 0.645705 8.354255 1.732454 12.39119 3.182475 26.893456-34.268409 80.636367-47.986825 111.165623-16.974569 14.580038 14.805164-7.919351 36.988352-22.532134 22.160675-15.716928-16.000384-46.370004-5.580078-61.777895 11.922517 30.296966 30.691961 13.426774 72.641292-8.910932 61.947763-7.880465-3.758596-11.207227-13.179134-7.447608-21.03811 7.927537-16.561154-31.91481-43.745229-48.427869-22.334636v-0.002047z" fill="#1296db" p-id="5632"></path></svg>