<?xml version="1.0" encoding="UTF-8"?>
<svg width="40px" height="40px" viewBox="0 0 40 40" version="1.1" xmlns="http://www.w3.org/2000/svg" xmlns:xlink="http://www.w3.org/1999/xlink">
    <title>icon/toudongquxian</title>
    <g id="icon/toudongquxian" stroke="none" stroke-width="1" fill="none" fill-rule="evenodd">
        <g id="编组-3" transform="translate(3.000000, 5.000000)">
            <path d="M15.6266476,0.34331167 C15.6369413,0.351733838 15.6463693,0.361161812 15.6547915,0.371455572 L17.5381616,2.67335244 C17.6081071,2.7588414 17.5955067,2.88484594 17.5100177,2.95479146 C17.4742853,2.98402708 17.4295386,3 17.3833702,3 L16,3 L16,25.9990971 L33.044335,26 L33.044335,24.6831323 C33.044335,24.5726753 33.133878,24.4831323 33.244335,24.4831323 C33.2905034,24.4831323 33.3352501,24.4991052 33.3709825,24.5283408 L35.6728794,26.411711 C35.7583684,26.4816565 35.7709688,26.6076611 35.7010233,26.69315 C35.6926011,26.7034438 35.6831732,26.7128718 35.6728794,26.7212939 L33.3709825,28.6046641 C33.2854936,28.6746096 33.159489,28.6620092 33.0895435,28.5765202 C33.0603079,28.5407878 33.044335,28.4960411 33.044335,28.4498726 L33.044335,27 L0.2,27 C0.08954305,27 9.95002315e-15,26.9104569 1.42108547e-14,26.8 L1.42108547e-14,26.2 C1.41973276e-14,26.0895431 0.08954305,26 0.2,26 L15,25.9990971 L15,3 L13.6166298,3 C13.5061729,3 13.4166298,2.91045695 13.4166298,2.8 C13.4166298,2.75383153 13.4326028,2.70908487 13.4618384,2.67335244 L15.3452085,0.371455572 C15.4151541,0.285966609 15.5411586,0.273366155 15.6266476,0.34331167 Z" id="形状结合" fill-opacity="0.596596031" fill="#C9D3E6"></path>
            <polygon id="路径-31" fill="#69D8C6" fill-rule="nonzero" points="3.86085982 26.1472867 16.6422312 7.18636122 28.4302652 26.1708702 27.1559417 26.9621347 16.59 9.946 5.10465742 26.9857183"></polygon>
            <path d="M17.0147276,2.97568843 L19.8276777,15.7486884 L23.7366707,7.05231821 L31.7189961,26.3370314 L30.6102256,26.7959735 L23.691,10.08 L20.2606777,17.7136884 L22.181796,26.4374549 L21.0098801,26.6955501 L19.4356777,19.5496884 L16.1729001,26.8124289 L15.6256777,26.5656884 L15.1449536,26.9256179 L12.8936777,23.9126884 L12.1770997,26.7152804 L11.0145764,26.4177245 L11.9706777,22.6776884 L8.901,18.569 L2.65800207,26.9256179 L1.69667773,26.207387 L8.90147783,16.5640392 L12.3536777,21.1846884 L17.0147276,2.97568843 Z M16.927,8.159 L13.2756777,22.4196884 L15.4956777,25.3896884 L19.0026777,17.5846884 L16.927,8.159 Z" id="形状结合" fill-opacity="0.8" fill="#C9D3E6" fill-rule="nonzero"></path>
            <path d="M32.844335,23 C32.9547919,23 33.044335,23.0895431 33.044335,23.2 L33.044335,23.8 C33.044335,23.9104569 32.9547919,24 32.844335,24 L0.2,24 C0.08954305,24 -7.08117891e-16,23.9104569 0,23.8 L0,23.2 C-1.3527075e-17,23.0895431 0.08954305,23 0.2,23 L32.844335,23 Z M32.844335,20 C32.9547919,20 33.044335,20.0895431 33.044335,20.2 L33.044335,20.8 C33.044335,20.9104569 32.9547919,21 32.844335,21 L0.2,21 C0.08954305,21 -7.08117891e-16,20.9104569 0,20.8 L0,20.2 C-1.3527075e-17,20.0895431 0.08954305,20 0.2,20 L32.844335,20 Z M32.844335,17 C32.9547919,17 33.044335,17.0895431 33.044335,17.2 L33.044335,17.8 C33.044335,17.9104569 32.9547919,18 32.844335,18 L0.2,18 C0.08954305,18 -7.08117891e-16,17.9104569 0,17.8 L0,17.2 C-1.3527075e-17,17.0895431 0.08954305,17 0.2,17 L32.844335,17 Z M32.844335,14 C32.9547919,14 33.044335,14.0895431 33.044335,14.2 L33.044335,14.8 C33.044335,14.9104569 32.9547919,15 32.844335,15 L0.2,15 C0.08954305,15 -7.08117891e-16,14.9104569 0,14.8 L0,14.2 C-1.3527075e-17,14.0895431 0.08954305,14 0.2,14 L32.844335,14 Z M32.844335,11 C32.9547919,11 33.044335,11.0895431 33.044335,11.2 L33.044335,11.8 C33.044335,11.9104569 32.9547919,12 32.844335,12 L0.2,12 C0.08954305,12 -7.08117891e-16,11.9104569 0,11.8 L0,11.2 C-1.3527075e-17,11.0895431 0.08954305,11 0.2,11 L32.844335,11 Z M32.844335,8 C32.9547919,8 33.044335,8.08954305 33.044335,8.2 L33.044335,8.8 C33.044335,8.91045695 32.9547919,9 32.844335,9 L0.2,9 C0.08954305,9 -7.08117891e-16,8.91045695 0,8.8 L0,8.2 C-1.3527075e-17,8.08954305 0.08954305,8 0.2,8 L32.844335,8 Z M32.844335,5 C32.9547919,5 33.044335,5.08954305 33.044335,5.2 L33.044335,5.8 C33.044335,5.91045695 32.9547919,6 32.844335,6 L0.2,6 C0.08954305,6 -7.08117891e-16,5.91045695 0,5.8 L0,5.2 C-1.3527075e-17,5.08954305 0.08954305,5 0.2,5 L32.844335,5 Z" id="形状结合" fill-opacity="0.2" fill="#C9D3E6"></path>
        </g>
    </g>
</svg>