<?xml version="1.0" encoding="UTF-8"?>
<svg width="40px" height="40px" viewBox="0 0 40 40" version="1.1" xmlns="http://www.w3.org/2000/svg" xmlns:xlink="http://www.w3.org/1999/xlink">
    <title>icon/3x1</title>
    <g id="icon/3x1" stroke="none" stroke-width="1" fill="none" fill-rule="evenodd">
        <path d="M29.8000001,11.0001148 C29.8920474,10.9998937 29.9696244,11.0619864 29.9929812,11.1466119 L30,11.1999438 L30,11.1999438 L30,29.7999438 C30,29.9104008 29.9104569,29.9999438 29.8,29.9999438 L20.2,29.9999438 C20.0895431,29.9999438 20,29.9104008 20,29.7999438 L20,11.2084903 C20.000171,11.0981001 20.0896099,11.0085847 20.1999999,11.0083193 L29.8000001,11.0001148 Z M17.8,25.0000001 C17.8920474,24.9999273 17.9695888,25.0620804 17.9928971,25.146722 L18,25.1999438 L18,25.1999438 L18,29.7999438 C18,29.9104008 17.9104569,29.9999438 17.8,29.9999438 L10.2,29.9999438 C10.0895431,29.9999438 10,29.9104008 10,29.7999438 L10,25.2021929 C10.0000562,25.0917579 10.089565,25.002224 10.2,25.0021367 L17.8,25.0000001 Z M17.8,18.0000001 C17.8920474,17.9999273 17.9695888,18.0620804 17.9928971,18.146722 L18,18.1999438 L18,18.1999438 L18,22.7999438 C18,22.9104008 17.9104569,22.9999438 17.8,22.9999438 L10.2,22.9999438 C10.0895431,22.9999438 10,22.9104008 10,22.7999438 L10,18.2021929 C10.0000562,18.0917579 10.089565,18.002224 10.2,18.0021367 L17.8,18.0000001 Z M17.8,11.0000001 C17.8920474,10.9999273 17.9695888,11.0620804 17.9928971,11.146722 L18,11.1999438 L18,11.1999438 L18,15.7999438 C18,15.9104008 17.9104569,15.9999438 17.8,15.9999438 L10.2,15.9999438 C10.0895431,15.9999438 10,15.9104008 10,15.7999438 L10,11.2021929 C10.0000562,11.0917579 10.089565,11.002224 10.2,11.0021367 L17.8,11.0000001 Z" id="形状结合" fill="#C9D3E6"></path>
    </g>
</svg>