<?xml version="1.0" encoding="UTF-8"?>
<svg width="40px" height="40px" viewBox="0 0 40 40" version="1.1" xmlns="http://www.w3.org/2000/svg" xmlns:xlink="http://www.w3.org/1999/xlink">
    <title>icon/2x2</title>
    <g id="icon/2x2" stroke="none" stroke-width="1" fill="none" fill-rule="evenodd">
        <path d="M30.8,10.000081 C30.8920474,9.99997624 30.9695965,10.0621163 30.9929152,10.1467544 L31,10.2 L31,10.2 L31,18.8 C31,18.9104569 30.9104569,19 30.8,19 L21.2,19 C21.0895431,19 21,18.9104569 21,18.8 L21,10.2040483 C21.000081,10.093623 21.0895747,10.004093 21.2,10.0039673 L30.8,10.000081 Z M18.8,10.000081 C18.8920474,9.99997624 18.9695965,10.0621163 18.9929152,10.1467544 L19,10.2 L19,10.2 L19,18.8 C19,18.9104569 18.9104569,19 18.8,19 L9.2,19 C9.08954305,19 9,18.9104569 9,18.8 L9,10.2040483 C9.00008098,10.093623 9.08957469,10.004093 9.19999998,10.0039673 L18.8,10.000081 Z" id="形状结合" fill="#C9D3E6"></path>
        <path d="M30.8,21.000081 C30.8920474,20.9999762 30.9695965,21.0621163 30.9929152,21.1467544 L31,21.2 L31,21.2 L31,29.8 C31,29.9104569 30.9104569,30 30.8,30 L21.2,30 C21.0895431,30 21,29.9104569 21,29.8 L21,21.2040483 C21.000081,21.093623 21.0895747,21.004093 21.2,21.0039673 L30.8,21.000081 Z M18.8,21.000081 C18.8920474,20.9999762 18.9695965,21.0621163 18.9929152,21.1467544 L19,21.2 L19,21.2 L19,29.8 C19,29.9104569 18.9104569,30 18.8,30 L9.2,30 C9.08954305,30 9,29.9104569 9,29.8 L9,21.2040483 C9.00008098,21.093623 9.08957469,21.004093 9.19999998,21.0039673 L18.8,21.000081 Z" id="形状结合备份" fill="#C9D3E6"></path>
    </g>
</svg>