<?xml version="1.0" encoding="UTF-8"?>
<svg width="40px" height="40px" viewBox="0 0 40 40" version="1.1" xmlns="http://www.w3.org/2000/svg" xmlns:xlink="http://www.w3.org/1999/xlink">
    <title>icon/1x2</title>
    <g id="icon/1x2" stroke="none" stroke-width="1" fill="none" fill-rule="evenodd">
        <path d="M30.8000001,10.0000006 C30.8920474,9.99976794 30.9696272,10.0618559 30.9929877,10.1464801 L31,10.1998207 L31,10.1998207 L31,29.7998207 C31,29.9102776 30.9104569,29.9998207 30.8,29.9998207 L21.2,29.9998207 C21.0895431,29.9998207 21,29.9102776 21,29.7998207 L21,10.208817 C21.00018,10.0984303 21.0896134,10.0089163 21.1999999,10.008637 L30.8000001,10.0000006 Z M18.8000001,10.0000006 C18.8920474,9.99976794 18.9696272,10.0618559 18.9929877,10.1464801 L19,10.1998207 L19,10.1998207 L19,29.7998207 C19,29.9102776 18.9104569,29.9998207 18.8,29.9998207 L9.2,29.9998207 C9.08954305,29.9998207 9,29.9102776 9,29.7998207 L9,10.208817 C9.00018001,10.0984303 9.08961343,10.0089163 9.19999992,10.008637 L18.8000001,10.0000006 Z" id="形状结合" fill="#C9D3E6"></path>
    </g>
</svg>