<?xml version="1.0" encoding="UTF-8"?>
<svg width="40px" height="40px" viewBox="0 0 40 40" version="1.1" xmlns="http://www.w3.org/2000/svg" xmlns:xlink="http://www.w3.org/1999/xlink">
    <title>icon/3x3</title>
    <g id="icon/3x3" stroke="none" stroke-width="1" fill="none" fill-rule="evenodd">
        <path d="M15.8,25.00009 C15.8920474,24.9999736 15.9695993,25.0621089 15.9929218,25.1467458 L16,25.2 L16,25.2 L16,29.8 C16,29.9104569 15.9104569,30 15.8,30 L11.2,30 C11.0895431,30 11,29.9104569 11,29.8 L11,25.2022491 C11.00009,25.0918272 11.0895782,25.0022988 11.2,25.0021591 L15.8,25.00009 Z M22.8,25.00009 C22.8920474,24.9999736 22.9695993,25.0621089 22.9929218,25.1467458 L23,25.2 L23,25.2 L23,29.8 C23,29.9104569 22.9104569,30 22.8,30 L18.2,30 C18.0895431,30 18,29.9104569 18,29.8 L18,25.2022491 C18.00009,25.0918272 18.0895782,25.0022988 18.2,25.0021591 L22.8,25.00009 Z M29.8,25.00009 C29.8920474,24.9999736 29.9695993,25.0621089 29.9929218,25.1467458 L30,25.2 L30,25.2 L30,29.8 C30,29.9104569 29.9104569,30 29.8,30 L25.2,30 C25.0895431,30 25,29.9104569 25,29.8 L25,25.2022491 C25.00009,25.0918272 25.0895782,25.0022988 25.2,25.0021591 L29.8,25.00009 Z M15.8,18.00009 C15.8920474,17.9999736 15.9695993,18.0621089 15.9929218,18.1467458 L16,18.2 L16,18.2 L16,22.8 C16,22.9104569 15.9104569,23 15.8,23 L11.2,23 C11.0895431,23 11,22.9104569 11,22.8 L11,18.2022491 C11.00009,18.0918272 11.0895782,18.0022988 11.2,18.0021591 L15.8,18.00009 Z M22.8,18.00009 C22.8920474,17.9999736 22.9695993,18.0621089 22.9929218,18.1467458 L23,18.2 L23,18.2 L23,22.8 C23,22.9104569 22.9104569,23 22.8,23 L18.2,23 C18.0895431,23 18,22.9104569 18,22.8 L18,18.2022491 C18.00009,18.0918272 18.0895782,18.0022988 18.2,18.0021591 L22.8,18.00009 Z M29.8,18.00009 C29.8920474,17.9999736 29.9695993,18.0621089 29.9929218,18.1467458 L30,18.2 L30,18.2 L30,22.8 C30,22.9104569 29.9104569,23 29.8,23 L25.2,23 C25.0895431,23 25,22.9104569 25,22.8 L25,18.2022491 C25.00009,18.0918272 25.0895782,18.0022988 25.2,18.0021591 L29.8,18.00009 Z M15.8,11.00009 C15.8920474,10.9999736 15.9695993,11.0621089 15.9929218,11.1467458 L16,11.2 L16,11.2 L16,15.8 C16,15.9104569 15.9104569,16 15.8,16 L11.2,16 C11.0895431,16 11,15.9104569 11,15.8 L11,11.2022491 C11.00009,11.0918272 11.0895782,11.0022988 11.2,11.0021591 L15.8,11.00009 Z M22.8,11.00009 C22.8920474,10.9999736 22.9695993,11.0621089 22.9929218,11.1467458 L23,11.2 L23,11.2 L23,15.8 C23,15.9104569 22.9104569,16 22.8,16 L18.2,16 C18.0895431,16 18,15.9104569 18,15.8 L18,11.2022491 C18.00009,11.0918272 18.0895782,11.0022988 18.2,11.0021591 L22.8,11.00009 Z M29.8,11.00009 C29.8920474,10.9999736 29.9695993,11.0621089 29.9929218,11.1467458 L30,11.2 L30,11.2 L30,15.8 C30,15.9104569 29.9104569,16 29.8,16 L25.2,16 C25.0895431,16 25,15.9104569 25,15.8 L25,11.2022491 C25.00009,11.0918272 25.0895782,11.0022988 25.2,11.0021591 L29.8,11.00009 Z" id="形状结合" fill="#C9D3E6"></path>
    </g>
</svg>