<?xml version="1.0" encoding="UTF-8"?>
<svg width="24px" height="24px" viewBox="0 0 24 24" version="1.1" xmlns="http://www.w3.org/2000/svg" xmlns:xlink="http://www.w3.org/1999/xlink">
    <title>icon/yanse</title>
    <g id="icon/yanse" stroke="none" stroke-width="1" fill="none" fill-rule="evenodd">
        <circle id="椭圆形" fill="#42B3EA" cx="12" cy="8" r="5"></circle>
        <circle id="椭圆形备份" fill="#FF5881" cx="8" cy="15" r="5"></circle>
        <circle id="椭圆形备份-2" fill="#FFEA5B" cx="16" cy="15" r="5"></circle>
        <path d="M16,10 C16.1926415,10 16.3827385,10.0108945 16.5697085,10.0321009 C15.7902497,11.7813611 14.0374391,13 12,13 C11.8074787,13 11.6174987,12.9891191 11.4306416,12.9679388 C12.2097749,11.2186218 13.9625753,10 16,10 Z" id="形状结合" fill-opacity="0.5" fill="#3AEF85"></path>
        <path d="M8,10 C10.0374247,10 11.7902251,11.2186218 12.5692822,12.9667463 C12.3827385,12.9891055 12.1926415,13 12,13 C9.96256095,13 8.20975026,11.7813611 7.4307014,10.0332168 C7.61749874,10.0108809 7.80747869,10 8,10 Z" id="形状结合" fill-opacity="0.502762374" fill="#3C32AC"></path>
        <path d="M12.0002202,11.9998057 C12.6279975,12.8354995 13,13.8743068 13,15 C13,16.1254731 12.628143,17.1640943 12.0005884,17.9997041 C11.371857,17.1640943 11,16.1254731 11,15 C11,13.9099643 11.3488086,12.9013972 11.9408969,12.0798277 Z" id="形状结合" fill-opacity="0.5" fill="#FF631F"></path>
    </g>
</svg>