<?xml version="1.0" standalone="no"?><!DOCTYPE svg PUBLIC "-//W3C//DTD SVG 1.1//EN" "http://www.w3.org/Graphics/SVG/1.1/DTD/svg11.dtd"><svg t="1629787011853" class="icon" viewBox="0 0 1024 1024" version="1.1" xmlns="http://www.w3.org/2000/svg" p-id="2802" width="32" height="32" xmlns:xlink="http://www.w3.org/1999/xlink"><defs><style type="text/css"></style></defs><path d="M926.9 367.4l0.1-13.4v-0.5c-0.1-0.6-3.3-19.7-5-26.3-1.8-6.8-14.5-24.3-14.5-24.3l-6.1-6.5-164.7-174.5-4.7-4.9c-29.7-27.7-67.3-25.3-67.3-25.3l-5.6-0.4H246.3C164 91.2 97 158.3 97 240.8v532.8c0 82.5 67 149.6 149.3 149.6h531.5c82.3 0 149.3-67.1 149.3-149.6V367.4h-0.2zM245.6 171H656v78.5c0 47.1-38.3 85.5-85.3 85.5H330.9c-47 0-85.3-38.4-85.3-85.5V171z m532.8 673H490V640H336v204h-90.4V607.5c0-38.3 31.1-69.5 69.3-69.5h394c38.2 0 69.3 31.2 69.3 69.5V844z" p-id="2803" fill="#C9D3E6"></path></svg>