<?xml version="1.0" encoding="UTF-8"?>
<svg width="40px" height="40px" viewBox="0 0 40 40" version="1.1" xmlns="http://www.w3.org/2000/svg" xmlns:xlink="http://www.w3.org/1999/xlink">
    <title>icon/qianlianhedian</title>
    <g id="icon/qianlianhedian" stroke="none" stroke-width="1" fill="none" fill-rule="evenodd">
        <path d="M11.0227182,25.9607966 L11.5624244,24.1212346 C11.5874155,24.0360536 11.6655639,23.9775391 11.7543353,23.9775391 L15.9905792,23.9775391 C16.0790693,23.9775391 16.1570403,24.0356899 16.1822748,24.1205057 L16.7300162,25.9615256 C16.7552507,26.0463414 16.8332217,26.1044922 16.9217118,26.1044922 L20.6497368,26.1044922 C20.7601938,26.1044922 20.8497368,26.0149491 20.8497368,25.9044922 C20.8497368,25.8804596 20.8454053,25.8566237 20.8369501,25.8341276 L16.1445177,13.3493619 C16.1152059,13.2713743 16.0406187,13.2197266 15.9573044,13.2197266 L11.8924866,13.2197266 C11.8091723,13.2197266 11.7345851,13.2713743 11.7052733,13.3493619 L7.01284088,25.8341276 C6.97397958,25.9375226 7.02629452,26.0528442 7.12968957,26.0917055 C7.15218569,26.1001607 7.17602157,26.1044922 7.20005419,26.1044922 L10.8308072,26.1044922 C10.9195787,26.1044922 10.997727,26.0459777 11.0227182,25.9607966 Z M15.034062,21.1914062 L12.7361367,21.1914062 C12.6256798,21.1914062 12.5361367,21.1018632 12.5361367,20.9914062 C12.5361367,20.9716035 12.5390778,20.9519105 12.5448636,20.9329718 L13.6902691,17.1837253 C13.7225415,17.078088 13.8343395,17.0186141 13.9399767,17.0508866 C14.0034738,17.0702852 14.053205,17.1199302 14.0727137,17.1833936 L15.2252335,20.9326401 C15.2576892,21.0382212 15.1984093,21.1501221 15.0928282,21.1825777 C15.0737884,21.1884306 15.0539811,21.1914062 15.034062,21.1914062 Z M28.1192314,26.3330078 C29.2735283,26.3330078 30.2242119,26.1660156 30.9712822,25.8320312 C31.7183525,25.4980469 32.3438408,25.0029297 32.8477471,24.3466797 C33.2593575,23.8106289 33.5810487,23.167066 33.8128208,22.415991 C33.8375429,22.3358773 33.8687832,22.2244291 33.9065417,22.0816464 C33.9342845,21.977446 33.8743263,21.8700952 33.7711083,21.8388958 L30.6682775,20.9010124 C30.5625306,20.868985 30.4508754,20.928808 30.4189062,21.0345726 C30.4179622,21.0376956 30.4170948,21.0408413 30.4163046,21.0440068 C30.3810863,21.185099 30.3514722,21.2943435 30.3274625,21.3717402 C30.154252,21.9300945 29.9176867,22.3738894 29.6177666,22.703125 C29.2281182,23.1308594 28.6524346,23.3447266 27.8907158,23.3447266 C27.1055596,23.3447266 26.4961846,23.0795898 26.0625908,22.5493164 C25.6289971,22.019043 25.4122002,21.0390625 25.4122002,19.609375 C25.4122002,18.4550781 25.5938408,17.6083984 25.9571221,17.0693359 C26.4375908,16.3427734 27.1289971,15.9794922 28.0313408,15.9794922 C28.4297783,15.9794922 28.7901299,16.0615234 29.1123955,16.2255859 C29.4346611,16.3896484 29.7071221,16.6240234 29.9297783,16.9287109 C30.0084462,17.0347415 30.1170628,17.2680545 30.2556283,17.6286497 C30.290986,17.7213228 30.3889872,17.77391 30.4858083,17.7523673 L33.6083138,17.0576098 C33.7160949,17.0335754 33.7840351,16.9267498 33.7600513,16.8189574 C33.7580091,16.8097787 33.7553219,16.8007556 33.7520097,16.7919551 C33.6250839,16.4547053 33.5210982,16.2026408 33.4400527,16.0357614 C33.0132528,15.156945 32.4540011,14.4731496 31.7622978,13.984375 C30.8335869,13.328125 29.557708,13 27.9346611,13 C25.8604424,13 24.2564385,13.5727539 23.1226494,14.7182617 C21.9888603,15.8637695 21.4219658,17.5029297 21.4219658,19.6357422 C21.4219658,21.2353516 21.7442314,22.5478516 22.3887627,23.5732422 C23.0332939,24.5986328 23.7994072,25.3149414 24.6871025,25.722168 C25.5747978,26.1293945 26.7188408,26.3330078 28.1192314,26.3330078 Z" id="AC" fill="#C9D3E6"></path>
    </g>
</svg>