<?xml version="1.0" encoding="UTF-8"?>
<svg width="40px" height="40px" viewBox="0 0 40 40" version="1.1" xmlns="http://www.w3.org/2000/svg" xmlns:xlink="http://www.w3.org/1999/xlink">
    <title>icon/acpctuxiang</title>
    <g id="icon/acpctuxiang" stroke="none" stroke-width="1" fill="none" fill-rule="evenodd">
        <path d="M15.0819729,21.6373702 C16.160858,21.6373702 16.9689253,21.8939343 17.506175,22.4070625 C18.0434247,22.9201908 18.3120495,23.6504118 18.3120495,24.5977255 C18.3120495,25.5713535 18.0193033,26.3322744 17.4338108,26.8804884 C16.8933562,27.386532 16.0903817,27.659017 15.0248873,27.6979435 L14.7530446,27.7028093 L13.3215599,27.7028093 C13.2295124,27.7028093 13.1519885,27.764992 13.128704,27.8496414 L13.1215599,27.9028093 L13.1215599,31.0815499 C13.1215599,31.1735974 13.0593772,31.2511213 12.9747278,31.2744057 L12.9215599,31.2815499 L10.3283117,31.2815499 C10.2362642,31.2815499 10.1587403,31.2193673 10.1354559,31.1347179 L10.1283117,31.0815499 L10.1283117,21.8373702 C10.1283117,21.7453227 10.1904944,21.6677988 10.2751438,21.6445144 L10.3283117,21.6373702 L15.0819729,21.6373702 Z M34.360735,20.6956928 C34.4527824,20.6956033 34.5303279,20.7577495 34.5536416,20.8423893 L34.560735,20.8956236 L34.560735,30.8593974 C34.560735,30.9698544 34.4711919,31.0593974 34.360735,31.0593974 L21.287829,31.0593974 C21.1773721,31.0593974 21.087829,30.9698544 21.087829,30.8593974 L21.087829,20.9002854 C21.0878982,20.7898554 21.1773991,20.7003236 21.287829,20.7002162 L34.360735,20.6956928 Z M25.4212365,23.9985585 L25.3779532,24.0457465 L22.3283504,28.6766449 C22.3068458,28.7093002 22.2953848,28.7475426 22.2953848,28.7866427 C22.2953848,28.8786901 22.3575675,28.9562141 22.4422169,28.9794985 L22.4953848,28.9866427 L32.1468848,28.9866427 C32.1810809,28.9866427 32.2147059,28.9778747 32.2445477,28.9611762 C32.3216615,28.918026 32.3591105,28.8314014 32.3433895,28.7491247 L32.3214183,28.6889797 L30.3225338,25.1167724 C30.3153826,25.1039926 30.3068495,25.0920369 30.2970878,25.0811203 C30.2381855,25.0152493 30.145486,24.9975557 30.0686049,25.0308106 L30.0146852,25.0653479 L28.0246063,26.8448901 C28.0196468,26.8493248 28.0144692,26.8535094 28.0090926,26.8574281 C27.937682,26.9094761 27.8433335,26.9073284 27.7751398,26.8586846 L27.7296656,26.813604 L25.7066131,24.0379428 C25.6924935,24.0185704 25.6750061,24.0018942 25.6549854,23.9887099 C25.5811849,23.9401098 25.4870447,23.946733 25.4212365,23.9985585 Z M13.970195,23.5977832 L13.3215599,23.5977832 C13.2295124,23.5977832 13.1519885,23.6599659 13.128704,23.7446153 L13.1215599,23.7977832 L13.1215599,25.5489748 C13.1215599,25.6410222 13.1837425,25.7185461 13.2683919,25.7418306 L13.3215599,25.7489748 L13.8517808,25.7489748 C14.426309,25.7489748 14.8297945,25.6491998 15.0622372,25.44965 C15.2946799,25.2501001 15.4109013,24.9946324 15.4109013,24.6832469 C15.4109013,24.3806328 15.3100299,24.1240686 15.1082872,23.9135545 C14.9065445,23.7030403 14.5271804,23.5977832 13.970195,23.5977832 Z M32.4879802,22.7683784 C31.9156048,22.7683784 31.4516029,23.2323803 31.4516029,23.8047558 C31.4516029,24.3771312 31.9156048,24.8411331 32.4879802,24.8411331 C33.0603557,24.8411331 33.5243576,24.3771312 33.5243576,23.8047558 C33.5243576,23.2323803 33.0603557,22.7683784 32.4879802,22.7683784 Z M25.0354393,8 C26.2502814,8 27.2052701,8.24559985 27.9004054,8.73679955 C28.5955407,9.22799924 29.1119583,9.98234164 29.449658,10.9998267 L29.449658,10.9998267 L26.8182311,11.5853192 C26.7261312,11.2914765 26.6296455,11.0765767 26.5287741,10.9406196 C26.3621171,10.7125626 26.1581815,10.5371342 25.9169674,10.4143342 C25.6757532,10.2915343 25.406032,10.2301343 25.1078036,10.2301343 C24.432404,10.2301343 23.91489,10.5020485 23.5552617,11.0458767 C23.2833476,11.4493622 23.1473905,12.0830975 23.1473905,12.9470827 C23.1473905,14.0171963 23.3096618,14.7507066 23.6342045,15.1476135 C23.9587471,15.5445203 24.4148612,15.7429738 25.0025465,15.7429738 C25.572689,15.7429738 26.0035852,15.5828953 26.295235,15.2627384 C26.4724585,15.0681922 26.6639532,14.6647409 26.869719,14.0523844 C26.9041093,13.9500394 27.0135829,13.893526 27.1169886,13.9245824 L27.1169886,13.9245824 L29.3432722,14.5975145 C29.3459415,14.5983213 29.3485936,14.5991839 29.3512269,14.6001016 L29.3990981,14.6243535 C29.4713926,14.6742154 29.5046008,14.7679141 29.4742439,14.8548451 C29.1991934,15.6440595 28.9453983,16.190088 28.7128585,16.4929305 C28.3356873,16.9841302 27.8675126,17.3547228 27.3083344,17.6047084 C26.7491561,17.8546939 26.0375744,17.9796867 25.1735893,17.9796867 C24.1254042,17.9796867 23.269094,17.8272832 22.6046587,17.5224763 C21.9402234,17.2176693 21.3667916,16.6815161 20.8843633,15.9140165 C20.4019351,15.146517 20.1607209,14.1641176 20.1607209,12.9668184 C20.1607209,11.3704194 20.5850385,10.1435165 21.4336737,9.28610992 C22.2823089,8.42870331 23.4828974,8 25.0354393,8 Z M15.6506794,8.16446418 C15.7339936,8.16446418 15.8085809,8.21611191 15.8378927,8.29409957 L15.8378927,8.29409957 L19.3123423,17.5382793 C19.3207975,17.5607755 19.325129,17.5846113 19.325129,17.608644 C19.325129,17.7191009 19.2355859,17.808644 19.125129,17.808644 L19.125129,17.808644 L16.4448787,17.808644 C16.3563886,17.808644 16.2784175,17.7504931 16.2531831,17.6656773 L16.2531831,17.6656773 L15.8645973,16.3595973 C15.8393628,16.2747815 15.7613918,16.2166306 15.6729017,16.2166306 L15.6729017,16.2166306 L12.5772733,16.2166306 C12.4885019,16.2166306 12.4103535,16.2751452 12.3853624,16.3603262 L12.3853624,16.3603262 L12.0026013,17.6649484 C11.9776102,17.7501294 11.8994618,17.808644 11.8106904,17.808644 L11.8106904,17.808644 L9.20339658,17.808644 C9.17936396,17.808644 9.15552809,17.8043125 9.13303196,17.7958573 C9.02963691,17.7569959 8.97732197,17.6416744 9.01618328,17.5382793 L9.01618328,17.5382793 L12.4906328,8.29409957 C12.5199447,8.21611191 12.5945319,8.16446418 12.6778461,8.16446418 L12.6778461,8.16446418 Z M14.1903964,11.1556361 C14.0847592,11.1233636 13.9729613,11.1828375 13.9406888,11.2884747 L13.9406888,11.2884747 L13.1511731,13.8727903 C13.1453872,13.891729 13.1424462,13.911422 13.1424462,13.9312248 C13.1424462,14.0416817 13.2319892,14.1312248 13.3424462,14.1312248 L13.3424462,14.1312248 L14.9263816,14.1312248 C14.9463006,14.1312248 14.9661079,14.1282491 14.9851477,14.1223963 C15.0907288,14.0899406 15.1500087,13.9780397 15.117553,13.8724586 L15.117553,13.8724586 L14.3231334,11.288143 C14.3036248,11.2246797 14.2538935,11.1750346 14.1903964,11.1556361 Z" id="形状结合" fill="#C9D3E6"></path>
        <path d="M37.8576379,34.1423621 C37.9362623,34.0637377 38,34.098877 38,34.1929283 L38,37.8070717 C38,37.9136231 37.901123,38 37.8070717,38 L34.1929283,38 C34.0863769,38 34.0694275,37.9305725 34.1423621,37.8576379 L37.8576379,34.1423621 Z" id="Path-191-Copy-3备份" fill-opacity="0" fill="#C9D3E6"></path>
    </g>
</svg>