<?xml version="1.0" encoding="UTF-8"?>
<svg width="40px" height="40px" viewBox="0 0 40 40" version="1.1" xmlns="http://www.w3.org/2000/svg" xmlns:xlink="http://www.w3.org/1999/xlink">
    <title>icon/acpcbianji</title>
    <g id="icon/acpcbianji" stroke="none" stroke-width="1" fill="none" fill-rule="evenodd">
        <path d="M26.3324445,23.1561084 L30.1208595,26.9445234 C30.1989643,27.0226283 30.1989643,27.1492613 30.1208595,27.2273661 L24.6137217,32.7345039 C24.580638,32.7675875 24.5370026,32.7880253 24.4904074,32.7922612 L20.323151,33.1711027 C20.2131477,33.181103 20.1158655,33.1000345 20.1058652,32.9900312 L20.1058652,32.9538169 L20.1058652,32.9538169 L20.4847067,28.7865604 C20.4889426,28.7399653 20.5093804,28.6963299 20.542464,28.6632462 L26.0496018,23.1561084 C26.1277066,23.0780036 26.2543396,23.0780036 26.3324445,23.1561084 Z M15.0728058,21.6168151 C16.1500647,21.6168151 16.9569141,21.8729925 17.493354,22.3853473 C18.0297938,22.8977021 18.2980138,23.6268225 18.2980138,24.5727083 C18.2980138,25.5448688 18.0057088,26.3046428 17.4210988,26.8520305 C16.8814588,27.3573114 16.0796946,27.6293857 15.0158062,27.6682535 L14.7443732,27.673112 L13.3153476,27.673112 C13.2233001,27.673112 13.1457762,27.7352946 13.1224918,27.819944 L13.1153476,27.873112 L13.1153476,31.0464585 C13.1153476,31.138506 13.0531649,31.2160299 12.9685155,31.2393143 L12.9153476,31.2464585 L10.326611,31.2464585 C10.2345636,31.2464585 10.1570397,31.1842758 10.1337552,31.0996264 L10.126611,31.0464585 L10.126611,21.8168151 C10.126611,21.7247676 10.1887937,21.6472437 10.2734431,21.6239592 L10.326611,21.6168151 L15.0728058,21.6168151 Z M29.5555235,19.7633937 L33.5135742,23.7214444 C33.5916791,23.7995493 33.5916791,23.9261823 33.5135742,24.0042871 L31.2518809,26.2659805 C31.173776,26.3440853 31.047143,26.3440853 30.9690381,26.2659805 L27.0109874,22.3079297 C26.9328826,22.2298249 26.9328826,22.1031919 27.0109874,22.025087 L29.2726808,19.7633937 C29.3507856,19.6852888 29.4774186,19.6852888 29.5555235,19.7633937 Z M13.9627036,23.5742733 L13.3153476,23.5742733 C13.2233001,23.5742733 13.1457762,23.6364559 13.1224918,23.7211053 L13.1153476,23.7742733 L13.1153476,25.5222224 C13.1153476,25.6142698 13.1775302,25.6917938 13.2621797,25.7150782 L13.3153476,25.7222224 L13.8444679,25.7222224 C14.4181302,25.7222224 14.8210075,25.6225978 15.0530998,25.4233487 C15.2851922,25.2240996 15.4012384,24.969017 15.4012384,24.6581008 C15.4012384,24.3559428 15.3005191,24.0997654 15.0990804,23.8895686 C14.8976417,23.6793717 14.5188495,23.5742733 13.9627036,23.5742733 Z M25.0112697,8 C26.2242807,8 27.17783,8.24522966 27.8719175,8.73568899 C28.5029062,9.18156111 28.9864169,9.84457874 29.3224496,10.7247419 L29.418835,10.9953052 L26.7913743,11.5799152 C26.6994132,11.2865154 26.603073,11.0719395 26.5023537,10.9361873 C26.3359478,10.7084741 26.1323196,10.53331 25.891469,10.4106952 C25.6506185,10.2880804 25.3813038,10.2267729 25.0835249,10.2267729 C24.4091433,10.2267729 23.8924094,10.4982772 23.5333231,11.0412858 C23.2618188,11.4441631 23.1260667,12.0769432 23.1260667,12.9396261 C23.1260667,14.0081268 23.2880934,14.7405315 23.6121469,15.1368401 C23.9362004,15.5331488 24.3916269,15.7313031 24.9784264,15.7313031 C25.5477096,15.7313031 25.9779563,15.5714659 26.2691665,15.2517915 C26.4460973,15.0575667 26.6372736,14.6548121 26.8426954,14.0435275 C26.8702421,13.9615552 26.9458977,13.9089504 27.0280288,13.9072247 L27.0901908,13.9158064 L29.3123212,14.5874831 L29.3163058,14.5887332 L29.3680608,14.6142805 C29.4402487,14.6640665 29.473446,14.7576324 29.4433838,14.8445131 C29.1687479,15.6325379 28.9153353,16.1777433 28.683146,16.4801294 C28.3065433,16.9705887 27.8390743,17.3406228 27.2807389,17.5902315 C26.7224035,17.8398403 26.0118943,17.9646447 25.1492114,17.9646447 C24.1026062,17.9646447 23.2475867,17.8124709 22.5841529,17.5081234 C21.9207191,17.2037759 21.3481516,16.6684307 20.8664505,15.902088 C20.3847493,15.1357453 20.1438988,14.1548267 20.1438988,12.9593321 C20.1438988,11.3653392 20.5675768,10.1402857 21.4149329,9.28417141 C22.262289,8.42805714 23.4610679,8 25.0112697,8 Z M15.6404464,8.16421629 C15.7070977,8.16421629 15.7681638,8.19727084 15.8049319,8.25042234 L15.8276597,8.29385168 L19.2966457,17.5234951 C19.3051009,17.5459913 19.3094324,17.5698271 19.3094324,17.5938597 C19.3094324,17.6859072 19.2472497,17.7634311 19.1626003,17.7867155 L19.1094324,17.7938597 L16.4338821,17.7938597 C16.36309,17.7938597 16.2990301,17.7566432 16.2633178,17.6983309 L16.2421865,17.6508931 L15.8543146,16.3472126 C15.8341271,16.27936 15.7801881,16.228573 15.7141131,16.2109722 L15.6626191,16.204246 L12.5721071,16.204246 C12.50109,16.204246 12.4368716,16.2416953 12.4012295,16.3002877 L12.3801962,16.3479416 L11.9981392,17.6501642 C11.9781462,17.718309 11.9241327,17.7693873 11.857876,17.7870928 L11.8062282,17.7938597 L9.20352535,17.7938597 C9.17949273,17.7938597 9.15565686,17.7895283 9.13316073,17.781073 C9.04699819,17.7486886 8.99630795,17.6632068 9.00429378,17.5757773 L9.01631205,17.5234951 L12.4852981,8.29385168 C12.5087476,8.23146155 12.5611733,8.18592898 12.6238625,8.17021156 L12.6725114,8.16421629 L15.6404464,8.16421629 Z M13.9553212,11.2356983 L13.9329545,11.2844589 L13.1450352,13.8635489 C13.1392493,13.8824876 13.1363083,13.9021806 13.1363083,13.9219834 C13.1363083,14.0140309 13.198491,14.0915548 13.2831404,14.1148392 L13.3363083,14.1219834 L14.9170409,14.1219834 C14.93696,14.1219834 14.9567673,14.1190077 14.9758071,14.1131549 C15.0637913,14.0861085 15.1196219,14.0038918 15.1170059,13.9161374 L15.1082124,13.8632172 L14.3153991,11.2841272 C14.2958905,11.2206639 14.2461592,11.1710188 14.1826621,11.1516203 C14.0946311,11.1247265 14.0023218,11.1615455 13.9553212,11.2356983 Z" id="形状结合" fill="#C9D3E6"></path>
        <path d="M37.8576379,34.1423621 C37.9362623,34.0637377 38,34.098877 38,34.1929283 L38,37.8070717 C38,37.9136231 37.901123,38 37.8070717,38 L34.1929283,38 C34.0863769,38 34.0694275,37.9305725 34.1423621,37.8576379 L37.8576379,34.1423621 Z" id="Path-191-Copy-3备份" fill-opacity="0" fill="#C9D3E6"></path>
    </g>
</svg>