<?xml version="1.0" encoding="UTF-8"?>
<svg width="40px" height="40px" viewBox="0 0 40 40" version="1.1" xmlns="http://www.w3.org/2000/svg" xmlns:xlink="http://www.w3.org/1999/xlink">
    <title>icon/acpc</title>
    <g id="icon/acpc" stroke="none" stroke-width="1" fill="none" fill-rule="evenodd">
        <path d="M25.9471798,21.4439191 C27.2516997,21.4439191 28.2771842,21.7072197 29.0236333,22.2338209 C29.7700824,22.7604221 30.3246211,23.5691311 30.6872494,24.6599479 L30.6872494,24.6599479 L27.8615745,25.2876377 L27.8016702,25.1087814 C27.7210443,24.8838475 27.6374043,24.7130782 27.5507503,24.5964737 C27.3717909,24.3519802 27.1528011,24.1639084 26.8937809,24.0322581 C26.6347607,23.9006078 26.345129,23.8347826 26.0248858,23.8347826 C25.2996293,23.8347826 24.7439132,24.126294 24.3577377,24.7093168 C24.0657513,25.1418821 23.9197581,25.8212917 23.9197581,26.7475456 C23.9197581,27.8947839 24.094008,28.6811594 24.4425079,29.106672 C24.7910078,29.5321846 25.2807915,29.7449409 25.9118588,29.7449409 C26.5240884,29.7449409 26.9867927,29.5733253 27.2999716,29.2300942 C27.6131506,28.886863 27.8403819,28.3884726 27.9816657,27.7349229 L27.9816657,27.7349229 L30.786148,28.5812462 L30.7104287,28.8696353 C30.5219032,29.5284011 30.2504471,30.088172 29.8960604,30.5489481 C29.491047,31.0755493 28.9883124,31.4728511 28.3878565,31.7408535 C27.7874005,32.0088559 27.023291,32.1428571 26.0955277,32.1428571 C24.9699672,32.1428571 24.0504455,31.9794697 23.3369626,31.6526949 C22.6234797,31.32592 22.0077181,30.7511254 21.4896777,29.928311 C20.9716373,29.1054966 20.7126171,28.0522941 20.7126171,26.7687037 C20.7126171,25.0572497 21.1682572,23.7419221 22.0795373,22.8227209 C22.9908175,21.9035197 24.2800316,21.4439191 25.9471798,21.4439191 Z M15.2455039,21.6202364 C16.4040306,21.6202364 17.2717482,21.8952915 17.8486568,22.4454017 C18.4255655,22.9955119 18.7140198,23.778361 18.7140198,24.7939491 C18.7140198,25.8377479 18.3996634,26.6535097 17.7709508,27.2412342 C17.1422381,27.8289588 16.182686,28.1228211 14.8922945,28.1228211 L14.8922945,28.1228211 L13.3403761,28.1228211 C13.2299191,28.1228211 13.1403761,28.2123641 13.1403761,28.3228211 L13.1403761,28.3228211 L13.1403761,31.7594871 C13.1403761,31.869944 13.050833,31.9594871 12.9403761,31.9594871 L12.9403761,31.9594871 L10.1261709,31.9594871 C10.015714,31.9594871 9.92617093,31.869944 9.92617093,31.7594871 L9.92617093,31.7594871 L9.92617093,21.8202364 C9.92617093,21.7097795 10.015714,21.6202364 10.1261709,21.6202364 L10.1261709,21.6202364 Z M14.0516562,23.7219395 L13.3403761,23.7219395 C13.2299191,23.7219395 13.1403761,23.8114825 13.1403761,23.9219395 L13.1403761,23.9219395 L13.1403761,25.8281707 C13.1403761,25.9386277 13.2299191,26.0281707 13.3403761,26.0281707 L13.3403761,26.0281707 L13.9245009,26.0281707 C14.5414399,26.0281707 14.97471,25.9212048 15.2243113,25.7072731 C15.4739126,25.4933413 15.5987132,25.2194617 15.5987132,24.8856341 C15.5987132,24.5612102 15.4903957,24.2861551 15.2737606,24.0604688 C15.0571255,23.8347826 14.6497574,23.7219395 14.0516562,23.7219395 L14.0516562,23.7219395 Z M26.219151,7 C27.5236709,7 28.5491554,7.26330061 29.2956045,7.78990182 C30.0420536,8.31650304 30.5965923,9.12521205 30.9592206,10.2160289 L30.9592206,10.2160289 L28.1335457,10.8437187 C28.0346471,10.5286983 27.931039,10.2983103 27.8227215,10.1525546 C27.6437621,9.90806118 27.4247723,9.71998931 27.1657521,9.58833901 C26.9067319,9.45668871 26.6171002,9.39086355 26.296857,9.39086355 C25.5716005,9.39086355 25.0158844,9.68237494 24.6297089,10.2653977 C24.3377225,10.697963 24.1917293,11.3773726 24.1917293,12.3036265 C24.1917293,13.4508649 24.3659792,14.2372404 24.7144791,14.662753 C25.062979,15.0882655 25.5527627,15.3010218 26.1838301,15.3010218 C26.7960596,15.3010218 27.2587639,15.1294063 27.5719428,14.7861751 C27.7635265,14.5762073 27.9706413,14.1392606 28.1932872,13.475335 C28.2276472,13.3728743 28.3371948,13.3162493 28.4406633,13.3474437 L28.4406633,13.3474437 L30.859506,14.0773906 L30.859506,14.0773906 C30.9716614,14.116253 31.0267149,14.2301177 30.990676,14.3343851 C30.6933758,15.1882942 30.419161,15.7785089 30.1680316,16.1050291 C29.7630182,16.6316303 29.2602836,17.0289321 28.6598277,17.2969345 C28.0593717,17.5649369 27.2952622,17.6989381 26.3674989,17.6989381 C25.2419384,17.6989381 24.3224167,17.5355507 23.6089338,17.2087758 C22.8954509,16.8820009 22.2796893,16.3072063 21.7616489,15.4843919 C21.2436085,14.6615775 20.9845883,13.6083751 20.9845883,12.3247846 C20.9845883,10.6133307 21.4402284,9.29800307 22.3515085,8.37880184 C23.2627887,7.45960061 24.5520028,7 26.219151,7 Z M15.8664939,7.17631737 C15.9497688,7.17631737 16.0243295,7.22791714 16.0536694,7.30585232 L16.0536694,7.30585232 L19.7954505,17.245103 C19.8039305,17.2676283 19.8082749,17.2914993 19.8082749,17.315568 C19.8082749,17.426025 19.7187319,17.515568 19.6082749,17.515568 L19.6082749,17.515568 L16.6979372,17.515568 C16.6094801,17.515568 16.5315298,17.4574597 16.506267,17.3726868 L16.506267,17.3726868 L16.0828043,15.9516971 C16.0575415,15.8669242 15.9795913,15.8088159 15.8911342,15.8088159 L15.8911342,15.8088159 L12.544788,15.8088159 C12.4560492,15.8088159 12.3779213,15.8672882 12.3529019,15.952427 L12.3529019,15.952427 L11.9357495,17.3719569 C11.9107301,17.4570957 11.8326022,17.515568 11.7438634,17.515568 L11.7438634,17.515568 L8.91182458,17.515568 C8.8877559,17.515568 8.86388486,17.5112235 8.84135952,17.5027435 C8.73798534,17.4638268 8.68573228,17.3484772 8.72464905,17.245103 L8.72464905,17.245103 L12.4664301,7.30585232 C12.49577,7.22791714 12.5703307,7.17631737 12.6536057,7.17631737 L12.6536057,7.17631737 Z M14.2838423,10.3466693 C14.1782198,10.3143487 14.0663948,10.3737717 14.0340743,10.4793942 L14.0340743,10.4793942 L13.1665025,13.31459 C13.1606991,13.3335553 13.157749,13.3532783 13.157749,13.3731116 C13.157749,13.4835686 13.247292,13.5731116 13.357749,13.5731116 L13.357749,13.5731116 L15.0982812,13.5731116 C15.118231,13.5731116 15.1380684,13.5701267 15.1571349,13.5642562 C15.2627011,13.5317522 15.3219298,13.4198242 15.2894258,13.3142579 L15.2894258,13.3142579 L14.4164653,10.4790621 C14.3969467,10.4156695 14.3472688,10.3660778 14.2838423,10.3466693 Z" id="形状结合" fill="#C9D3E6"></path>
        <path d="M37.8576379,34.1423621 C37.9362623,34.0637377 38,34.098877 38,34.1929283 L38,37.8070717 C38,37.9136231 37.901123,38 37.8070717,38 L34.1929283,38 C34.0863769,38 34.0694275,37.9305725 34.1423621,37.8576379 L37.8576379,34.1423621 Z" id="Path-191-Copy-3备份" fill="#C9D3E6"></path>
    </g>
</svg>