<?xml version="1.0" encoding="UTF-8"?>
<svg width="16px" height="16px" viewBox="0 0 16 16" version="1.1" xmlns="http://www.w3.org/2000/svg" xmlns:xlink="http://www.w3.org/1999/xlink">
    <title>icon/checkbox/select</title>
    <g id="icon/checkbox/select" stroke="none" stroke-width="1" fill="none" fill-rule="evenodd">
        <rect id="矩形" fill="#04856F" fill-rule="nonzero" x="0" y="0" width="16" height="16" rx="2"></rect>
        <path d="M11.5934125,4.6296129 L12.4065875,5.3703871 C12.4882428,5.44477224 12.4941364,5.57126802 12.4197513,5.65292332 L7.14118258,11.4474018 C7.06679743,11.5290571 6.94030166,11.5349507 6.85864636,11.4605655 C6.85449835,11.4567868 6.85051121,11.4528353 6.8466955,11.4487213 L3.58611675,7.93326953 C3.51100284,7.85228411 3.51576263,7.7257406 3.59674805,7.65062669 L4.40325195,6.90259496 C4.48423659,6.82748021 4.6107801,6.83224001 4.68589401,6.91322542 C4.68589427,6.9132257 4.68589453,6.91322598 4.68589395,6.91322704 L6.83606211,9.23149627 C6.91117556,9.31248211 7.03771904,9.31724264 7.11870489,9.24212919 C7.12281147,9.23832038 7.12675625,9.23434075 7.13052877,9.23020081 L11.310853,4.64275549 C11.385266,4.56114217 11.5117451,4.55525929 11.5934125,4.6296129 Z" id="路径-6" fill="#FFFFFF" fill-rule="nonzero"></path>
    </g>
</svg>