<?xml version="1.0" encoding="UTF-8"?>
<svg width="40px" height="40px" viewBox="0 0 40 40" version="1.1" xmlns="http://www.w3.org/2000/svg" xmlns:xlink="http://www.w3.org/1999/xlink">
    <title>icon/fanguangxiaoqiu</title>
    <g id="icon/fanguangxiaoqiu" stroke="none" stroke-width="1" fill="none" fill-rule="evenodd">
        <path d="M20,9 C26.0751322,9 31,13.9248678 31,20 C31,26.0751322 26.0751322,31 20,31 C13.9248678,31 9,26.0751322 9,20 C9,13.9248678 13.9248678,9 20,9 Z M16.3049051,12.6229245 C16.2268002,12.5448197 16.1001672,12.5448197 16.0220623,12.6229245 L16.0220623,12.6229245 L12.0622644,16.5827225 C11.9841595,16.6608274 11.9841595,16.7874604 12.0622644,16.8655652 L12.0622644,16.8655652 L13.1936352,17.9969361 C13.2717401,18.0750409 13.3983731,18.0750409 13.4764779,17.9969361 L13.4764779,17.9969361 L17.4362759,14.0371381 C17.5143808,13.9590332 17.5143808,13.8324002 17.4362759,13.7542954 L17.4362759,13.7542954 Z" id="形状结合" fill="#C9D3E6"></path>
    </g>
</svg>