<?xml version="1.0" encoding="UTF-8"?>
<svg width="40px" height="40px" viewBox="0 0 40 40" version="1.1" xmlns="http://www.w3.org/2000/svg" xmlns:xlink="http://www.w3.org/1999/xlink">
    <title>icon/gudingbiaoji</title>
    <g id="icon/gudingbiaoji" stroke="none" stroke-width="1" fill="none" fill-rule="evenodd">
        <path d="M20,12.0016282 C26.0292161,11.9108516 27.5470794,15.6283599 27.9003171,20.0052628 L28,20 C29.1045695,20 30,21.3431458 30,23 C30,24.6568542 29.1045695,26 28,26 C27.8531992,26 27.7100924,25.9762757 27.5722908,25.9312436 C26.3676572,30.0231006 22.8392242,33.0000111 20,33.0000111 C17.1607758,33.0000111 13.6323428,30.0231006 12.4267229,25.9298326 C12.2899076,25.9762757 12.1468008,26 12,26 C10.8954305,26 10,24.6568542 10,23 C10,21.3431458 10.8954305,20 12,20 C12.0341412,20 12.0680827,20.0012832 12.101804,20.0038192 C12.457133,15.6846692 13.979133,12.0922792 20,12.0016282 Z M32.7867506,13.7075993 L34.3081764,16.9703073 C34.3548575,17.0704153 34.3115465,17.1894114 34.2114385,17.2360925 L33.2144999,17.7009726 C33.1143919,17.7476537 32.9953958,17.7043427 32.9487147,17.6042347 L32.4952453,16.6317664 L30.4109652,17.604277 C30.3108572,17.6509581 30.1918611,17.6076471 30.14518,17.5075391 L29.6802999,16.5106005 C29.6336188,16.4104925 29.6769298,16.2914965 29.7770378,16.2448153 L31.8613179,15.2723048 L31.427289,14.3415267 C31.3806078,14.2414187 31.4239189,14.1224226 31.5240269,14.0757415 L32.5209654,13.6108614 C32.6210734,13.5641802 32.7400695,13.6074913 32.7867506,13.7075993 Z M7.47903457,13.6108614 L8.47597314,14.0757415 C8.57608113,14.1224226 8.61939217,14.2414187 8.57271104,14.3415267 L8.11924165,15.3139949 L10.2039774,16.2855284 C10.3040854,16.3322095 10.3473964,16.4512056 10.3007153,16.5513136 L9.83583519,17.5482521 C9.78915407,17.6483601 9.67015798,17.6916712 9.57004998,17.6449901 L7.48531426,16.6734566 L7.0512853,17.6042347 C7.00460418,17.7043427 6.88560808,17.7476537 6.78550009,17.7009726 L5.78856152,17.2360925 C5.68845353,17.1894114 5.6451425,17.0704153 5.69182362,16.9703073 L7.21324936,13.7075993 C7.25993049,13.6074913 7.37892658,13.5641802 7.47903457,13.6108614 Z M13.1280194,7.62356545 L13.7271224,8.54610307 C13.7872815,8.63874007 13.7609531,8.76260583 13.6683161,8.82276499 L12.7684225,9.40716268 L14.0215444,11.3358114 C14.0817036,11.4284484 14.0553751,11.5523141 13.9627381,11.6124733 L13.0402005,12.2115762 C12.9475635,12.2717354 12.8236977,12.2454069 12.7635386,12.1527699 L11.5104167,10.2241212 L10.649102,10.7834655 C10.556465,10.8436247 10.4325993,10.8172962 10.3724401,10.7246592 L9.77333716,9.80212159 C9.71317799,9.7094846 9.73950647,9.58561883 9.83214346,9.52545967 L12.8513575,7.56475914 C12.9439945,7.50459997 13.0678603,7.53092846 13.1280194,7.62356545 Z M27.1486425,7.56475914 L30.1678565,9.52545967 C30.2604935,9.58561883 30.286822,9.7094846 30.2266628,9.80212159 L29.6275599,10.7246592 C29.5674007,10.8172962 29.443535,10.8436247 29.350898,10.7834655 L28.4510045,10.1990678 L27.1987868,12.1283037 C27.1386276,12.2209407 27.0147619,12.2472692 26.9221249,12.18711 L25.9995872,11.5880071 C25.9069502,11.5278479 25.8806218,11.4039822 25.9407809,11.3113452 L27.1929986,9.38210928 L26.3316839,8.82276499 C26.2390469,8.76260583 26.2127185,8.63874007 26.2728776,8.54610307 L26.8719806,7.62356545 C26.9321397,7.53092846 27.0560055,7.50459997 27.1486425,7.56475914 Z M21.8,6 C21.9104569,6 22,6.08954305 22,6.2 L22,7.3 C22,7.41045695 21.9104569,7.5 21.8,7.5 L20.727,7.5 L20.7275391,9.8 C20.7275391,9.91045695 20.637996,10 20.5275391,10 L19.4275391,10 C19.3170821,10 19.2275391,9.91045695 19.2275391,9.8 L19.227,7.5 L18.2,7.5 C18.0895431,7.5 18,7.41045695 18,7.3 L18,6.2 C18,6.08954305 18.0895431,6 18.2,6 L21.8,6 Z" id="形状结合" fill="#C9D3E6"></path>
    </g>
</svg>