<?xml version="1.0" encoding="UTF-8"?>
<svg width="40px" height="40px" viewBox="0 0 40 40" version="1.1" xmlns="http://www.w3.org/2000/svg" xmlns:xlink="http://www.w3.org/1999/xlink">
    <title>icon/gudingtiqu</title>
    <g id="icon/gudingtiqu" stroke="none" stroke-width="1" fill="none" fill-rule="evenodd">
        <path d="M20,12.0016282 C26.0292161,11.9108516 27.5470794,15.6283599 27.9003171,20.0052628 L28,20 C29.1045695,20 30,21.3431458 30,23 C30,24.6568542 29.1045695,26 28,26 C27.8531992,26 27.7100924,25.9762757 27.5722908,25.9312436 C26.3676572,30.0231006 22.8392242,33.0000111 20,33.0000111 C17.1607758,33.0000111 13.6323428,30.0231006 12.4267229,25.9298326 C12.2899076,25.9762757 12.1468008,26 12,26 C10.8954305,26 10,24.6568542 10,23 C10,21.3431458 10.8954305,20 12,20 C12.0340646,20 12.0679303,20.0012774 12.1015769,20.0038021 C12.457133,15.6846692 13.979133,12.0922792 20,12.0016282 Z" id="形状结合" fill-opacity="0.3" fill="#C9D3E6"></path>
        <path d="M12.4267229,25.9298326 C12.2899076,25.9762757 12.1468008,26 12,26 C10.8954305,26 10,24.6568542 10,23 C10,21.3431458 10.8954305,20 12,20 L12.1015769,20.0038021 C12.457133,15.6846692 13.979133,12.0922792 20,12.0016282 C26.0294144,11.9108486 27.5471793,15.6286044 27.900352,20.0056947 L28,20 C28.5923054,20 29.124474,20.3862144 29.4906861,20.9999135 L25.973,21 L25.9068307,20.1665452 C25.5553587,15.8105332 24.180977,14.0165989 20.2876107,13.9999741 L20.0301088,14.0014016 C16.0578273,14.0612087 14.5790855,15.6757302 14.1464474,19.6271206 L14.0948344,20.1678895 L13.9319309,22.1467666 L12.231,22.019 L12.1901401,22.090737 C12.0954227,22.2762583 12.0265259,22.5315898 12.0061913,22.8218971 L12,23 C12,23.3029044 12.0531106,23.5777997 12.13659,23.7898517 L12.185,23.899 L13.7566147,23.3662984 L14.3452358,25.364759 C15.2751633,28.5220083 18.0132767,31.0000111 20,31.0000111 L20,33 C17.1607758,33.0000111 13.6323428,30.0231006 12.4267229,25.9298326 Z" id="形状结合" fill-opacity="0.4" fill="#C9D3E6"></path>
        <path d="M27.895781,23 C27.9790952,23 28.0536824,23.0516477 28.0829943,23.1296354 L28.0829943,23.1296354 L31.1611689,31.3194791 C31.1696241,31.3419753 31.1739556,31.3658111 31.1739556,31.3898437 C31.1739556,31.5003007 31.0844125,31.5898437 30.9739556,31.5898438 L30.9739556,31.5898438 L28.6346024,31.5898438 C28.5461124,31.5898438 28.4681413,31.5316929 28.4429069,31.4468771 L28.4429069,31.4468771 L28.1061029,30.3148416 C28.0808684,30.2300258 28.0028974,30.171875 27.9144073,30.171875 L27.9144073,30.171875 L25.1898822,30.171875 C25.1011108,30.171875 25.0229624,30.2303895 24.9979713,30.3155706 L24.9979713,30.3155706 L24.6662729,31.4461482 C24.6412817,31.5313292 24.5631333,31.5898438 24.4743619,31.5898438 L24.4743619,31.5898438 L22.2000542,31.5898438 C22.1760216,31.5898438 22.1521857,31.5855123 22.1296896,31.5770571 C22.0262945,31.5381957 21.9739796,31.4228742 22.0128409,31.3194791 L22.0128409,31.3194791 L25.0910154,23.1296354 C25.1203273,23.0516477 25.1949145,23 25.2782287,23 L25.2782287,23 Z M26.6167345,25.7178788 C26.5110973,25.6856063 26.3992994,25.7450802 26.3670269,25.8507174 L26.3670269,25.8507174 L25.6933011,28.0560186 C25.6875153,28.0749573 25.6845742,28.0946503 25.6845742,28.1144531 C25.6845742,28.2249101 25.7741173,28.3144531 25.8845742,28.3144531 L25.8845742,28.3144531 L27.2362104,28.3144531 C27.2561295,28.3144531 27.2759368,28.3114774 27.2949766,28.3056246 C27.4005577,28.2731689 27.4598376,28.161268 27.4273819,28.0556869 L27.4273819,28.0556869 L26.7494715,25.8503857 C26.7299628,25.7869224 26.6802316,25.7372773 26.6167345,25.7178788 Z M32.7867506,13.7075993 L34.3081764,16.9703073 C34.3548575,17.0704153 34.3115465,17.1894114 34.2114385,17.2360925 L33.2144999,17.7009726 C33.1143919,17.7476537 32.9953958,17.7043427 32.9487147,17.6042347 L32.4952453,16.6317664 L30.4109652,17.604277 C30.3108572,17.6509581 30.1918611,17.6076471 30.14518,17.5075391 L29.6802999,16.5106005 C29.6336188,16.4104925 29.6769298,16.2914965 29.7770378,16.2448153 L31.8613179,15.2723048 L31.427289,14.3415267 C31.3806078,14.2414187 31.4239189,14.1224226 31.5240269,14.0757415 L32.5209654,13.6108614 C32.6210734,13.5641802 32.7400695,13.6074913 32.7867506,13.7075993 Z M7.47903457,13.6108614 L8.47597314,14.0757415 C8.57608113,14.1224226 8.61939217,14.2414187 8.57271104,14.3415267 L8.11924165,15.3139949 L10.2039774,16.2855284 C10.3040854,16.3322095 10.3473964,16.4512056 10.3007153,16.5513136 L9.83583519,17.5482521 C9.78915407,17.6483601 9.67015798,17.6916712 9.57004998,17.6449901 L7.48531426,16.6734566 L7.0512853,17.6042347 C7.00460418,17.7043427 6.88560808,17.7476537 6.78550009,17.7009726 L5.78856152,17.2360925 C5.68845353,17.1894114 5.6451425,17.0704153 5.69182362,16.9703073 L7.21324936,13.7075993 C7.25993049,13.6074913 7.37892658,13.5641802 7.47903457,13.6108614 Z M13.1280194,7.62356545 L13.7271224,8.54610307 C13.7872815,8.63874007 13.7609531,8.76260583 13.6683161,8.82276499 L12.7684225,9.40716268 L14.0215444,11.3358114 C14.0817036,11.4284484 14.0553751,11.5523141 13.9627381,11.6124733 L13.0402005,12.2115762 C12.9475635,12.2717354 12.8236977,12.2454069 12.7635386,12.1527699 L11.5104167,10.2241212 L10.649102,10.7834655 C10.556465,10.8436247 10.4325993,10.8172962 10.3724401,10.7246592 L9.77333716,9.80212159 C9.71317799,9.7094846 9.73950647,9.58561883 9.83214346,9.52545967 L12.8513575,7.56475914 C12.9439945,7.50459997 13.0678603,7.53092846 13.1280194,7.62356545 Z M27.1486425,7.56475914 L30.1678565,9.52545967 C30.2604935,9.58561883 30.286822,9.7094846 30.2266628,9.80212159 L29.6275599,10.7246592 C29.5674007,10.8172962 29.443535,10.8436247 29.350898,10.7834655 L28.4510045,10.1990678 L27.1987868,12.1283037 C27.1386276,12.2209407 27.0147619,12.2472692 26.9221249,12.18711 L25.9995872,11.5880071 C25.9069502,11.5278479 25.8806218,11.4039822 25.9407809,11.3113452 L27.1929986,9.38210928 L26.3316839,8.82276499 C26.2390469,8.76260583 26.2127185,8.63874007 26.2728776,8.54610307 L26.8719806,7.62356545 C26.9321397,7.53092846 27.0560055,7.50459997 27.1486425,7.56475914 Z M21.8,6 C21.9104569,6 22,6.08954305 22,6.2 L22,7.3 C22,7.41045695 21.9104569,7.5 21.8,7.5 L20.727,7.5 L20.7275391,9.8 C20.7275391,9.91045695 20.637996,10 20.5275391,10 L19.4275391,10 C19.3170821,10 19.2275391,9.91045695 19.2275391,9.8 L19.227,7.5 L18.2,7.5 C18.0895431,7.5 18,7.41045695 18,7.3 L18,6.2 C18,6.08954305 18.0895431,6 18.2,6 L21.8,6 Z" id="形状结合" fill="#C9D3E6"></path>
    </g>
</svg>