<?xml version="1.0" encoding="UTF-8"?>
<svg width="24px" height="24px" viewBox="0 0 24 24" version="1.1" xmlns="http://www.w3.org/2000/svg" xmlns:xlink="http://www.w3.org/1999/xlink">
    <title>icon/bufenjiesuo</title>
    <g id="icon/bufenjiesuo" stroke="none" stroke-width="1" fill="none" fill-rule="evenodd">
        <g id="编组-6备份" transform="translate(5.000000, 4.000000)" fill="#C9D3E6">
            <path d="M7,9 C6.48716416,9 6.06449284,9.38604019 6.00672773,9.88337887 L6,10 L6,12.7436115 C6,12.8327634 6.00928256,12.865092 6.02671327,12.8976846 C6.04414398,12.9302772 6.06972284,12.955856 6.10231543,12.9732867 C6.12675987,12.9863598 6.15105584,12.9948495 6.19928699,12.9982772 L6.25638852,13 L7.74361148,13 C7.83276335,13 7.86509198,12.9907174 7.89768457,12.9732867 C7.93027716,12.955856 7.95585602,12.9302772 7.97328673,12.8976846 C7.98635976,12.8732401 7.99484946,12.8489442 7.99827724,12.800713 L8,12.7436115 L8,10 C8,9.44771525 7.55228475,9 7,9 Z M6.866,5.9993702 L6.98205081,5.79903811 C7.51224417,4.88071627 7.23139722,3.71669996 6.36175575,3.13642177 L6.25,3.0669873 C5.33167816,2.53679394 4.16766185,2.81764089 3.58738366,3.68728236 L3.51794919,3.79903811 L3.017,4.6643702 L1.28722456,3.66582918 L1.78589838,2.79903811 C2.89046788,0.885867612 5.33682951,0.230366991 7.25,1.33493649 C8.90497434,2.29043637 9.61883554,4.249998 9.06637454,5.99992469 L13.7436115,6 C13.8327634,6 13.865092,6.00928256 13.8976846,6.02671327 C13.9302772,6.04414398 13.955856,6.06972284 13.9732867,6.10231543 C13.9907174,6.13490802 14,6.16723665 14,6.25638852 L14,15.7436115 C14,15.8327634 13.9907174,15.865092 13.9732867,15.8976846 C13.955856,15.9302772 13.9302772,15.955856 13.8976846,15.9732867 C13.865092,15.9907174 13.8327634,16 13.7436115,16 L0.25638852,16 C0.167236646,16 0.134908022,15.9907174 0.10231543,15.9732867 C0.0697228371,15.955856 0.0441439796,15.9302772 0.0267132704,15.8976846 C0.00928256111,15.865092 -5.69738525e-14,15.8327634 -5.71191828e-14,15.7436115 L-5.70345251e-14,6.25638852 C-5.70230411e-14,6.16723665 0.00928256111,6.13490802 0.0267132704,6.10231543 C0.0441439796,6.06972284 0.0697228371,6.04414398 0.10231543,6.02671327 C0.134908022,6.00928256 0.167236646,6 0.25638852,6 L6.866,5.9993702 Z" id="形状结合"></path>
        </g>
    </g>
</svg>