<?xml version="1.0" encoding="UTF-8"?>
<svg width="40px" height="40px" viewBox="0 0 40 40" version="1.1" xmlns="http://www.w3.org/2000/svg" xmlns:xlink="http://www.w3.org/1999/xlink">
    <title>icon/header/data</title>
    <defs>
        <filter x="0.6%" y="0.3%" width="98.8%" height="99.3%" filterUnits="objectBoundingBox" id="filter-1">
            <feGaussianBlur stdDeviation="0" in="SourceGraphic"></feGaussianBlur>
        </filter>
        <path d="M0.459353727,16.8782343 L12.065485,11.395368 C12.1303893,11.3647065 12.2056107,11.3647065 12.270515,11.395368 L23.8766463,16.8782343 C23.9964942,16.9348517 24.0477526,17.0779052 23.9911351,17.1977531 C23.9673858,17.2480256 23.9269187,17.2884927 23.8766463,17.3122419 L12.270515,22.7951082 C12.2056107,22.8257697 12.1303893,22.8257697 12.065485,22.7951082 L0.459353727,17.3122419 C0.339505816,17.2556244 0.288247435,17.112571 0.344864929,16.9927231 C0.368614182,16.9424506 0.409081309,16.9019835 0.459353727,16.8782343 Z" id="path-2"></path>
        <filter x="-33.6%" y="-56.3%" width="167.2%" height="247.4%" filterUnits="objectBoundingBox" id="filter-3">
            <feOffset dx="0" dy="2" in="SourceAlpha" result="shadowOffsetOuter1"></feOffset>
            <feGaussianBlur stdDeviation="2.5" in="shadowOffsetOuter1" result="shadowBlurOuter1"></feGaussianBlur>
            <feComposite in="shadowBlurOuter1" in2="SourceAlpha" operator="out" result="shadowBlurOuter1"></feComposite>
            <feColorMatrix values="0 0 0 0 0.0235619438   0 0 0 0 0.0407606734   0 0 0 0 0.0808910425  0 0 0 0.6 0" type="matrix" in="shadowBlurOuter1"></feColorMatrix>
        </filter>
        <filter x="-33.6%" y="-56.3%" width="167.2%" height="247.4%" filterUnits="objectBoundingBox" id="filter-4">
            <feGaussianBlur stdDeviation="2.5" in="SourceAlpha" result="shadowBlurInner1"></feGaussianBlur>
            <feOffset dx="0" dy="2" in="shadowBlurInner1" result="shadowOffsetInner1"></feOffset>
            <feComposite in="shadowOffsetInner1" in2="SourceAlpha" operator="arithmetic" k2="-1" k3="1" result="shadowInnerInner1"></feComposite>
            <feColorMatrix values="0 0 0 0 0.988235294   0 0 0 0 0.988235294   0 0 0 0 0.992156863  0 0 0 0.299142264 0" type="matrix" in="shadowInnerInner1"></feColorMatrix>
        </filter>
        <filter x="0.6%" y="0.3%" width="98.8%" height="99.5%" filterUnits="objectBoundingBox" id="filter-5">
            <feGaussianBlur stdDeviation="0" in="SourceGraphic"></feGaussianBlur>
        </filter>
        <path d="M0.409816969,10.7088064 L12.0573336,4.65614749 C12.1267074,4.62009727 12.2092926,4.62009727 12.2786664,4.65614749 L23.926183,10.7088064 C24.0437989,10.7699257 24.0895983,10.9148192 24.028479,11.0324351 C24.0057137,11.0762438 23.9699917,11.1119657 23.926183,11.134731 L12.2786664,17.1873899 C12.2092926,17.2234401 12.1267074,17.2234401 12.0573336,17.1873899 L0.409816969,11.134731 C0.29220112,11.0736117 0.246401657,10.9287182 0.307521003,10.8111023 C0.330286294,10.7672936 0.366008272,10.7315717 0.409816969,10.7088064 Z" id="path-6"></path>
        <filter x="-33.8%" y="-51.2%" width="167.6%" height="233.9%" filterUnits="objectBoundingBox" id="filter-7">
            <feOffset dx="0" dy="2" in="SourceAlpha" result="shadowOffsetOuter1"></feOffset>
            <feGaussianBlur stdDeviation="2.5" in="shadowOffsetOuter1" result="shadowBlurOuter1"></feGaussianBlur>
            <feComposite in="shadowBlurOuter1" in2="SourceAlpha" operator="out" result="shadowBlurOuter1"></feComposite>
            <feColorMatrix values="0 0 0 0 0.0235619438   0 0 0 0 0.0407606734   0 0 0 0 0.0808910425  0 0 0 0.6 0" type="matrix" in="shadowBlurOuter1"></feColorMatrix>
        </filter>
        <filter x="-33.8%" y="-51.2%" width="167.6%" height="233.9%" filterUnits="objectBoundingBox" id="filter-8">
            <feGaussianBlur stdDeviation="2.5" in="SourceAlpha" result="shadowBlurInner1"></feGaussianBlur>
            <feOffset dx="0" dy="2" in="shadowBlurInner1" result="shadowOffsetInner1"></feOffset>
            <feComposite in="shadowOffsetInner1" in2="SourceAlpha" operator="arithmetic" k2="-1" k3="1" result="shadowInnerInner1"></feComposite>
            <feColorMatrix values="0 0 0 0 0.988235294   0 0 0 0 0.988235294   0 0 0 0 0.992156863  0 0 0 0.299142264 0" type="matrix" in="shadowInnerInner1"></feColorMatrix>
        </filter>
        <filter x="0.9%" y="0.2%" width="98.2%" height="99.6%" filterUnits="objectBoundingBox" id="filter-9">
            <feGaussianBlur stdDeviation="0" in="SourceGraphic"></feGaussianBlur>
        </filter>
        <path d="M0.459353727,5.53129548 L12.065485,0.0484292523 C12.1303893,0.0177677048 12.2056107,0.0177677048 12.270515,0.0484292523 L23.8766463,5.53129548 C23.9964942,5.58791297 24.0477526,5.73096645 23.9911351,5.85081436 C23.9673858,5.90108678 23.9269187,5.94155391 23.8766463,5.96530316 L12.270515,11.4481694 C12.2056107,11.4788309 12.1303893,11.4788309 12.065485,11.4481694 L0.459353727,5.96530316 C0.339505816,5.90868567 0.288247435,5.76563219 0.344864929,5.64578428 C0.368614182,5.59551186 0.409081309,5.55504473 0.459353727,5.53129548 Z" id="path-10"></path>
        <filter x="-33.6%" y="-56.3%" width="167.2%" height="247.4%" filterUnits="objectBoundingBox" id="filter-11">
            <feOffset dx="0" dy="2" in="SourceAlpha" result="shadowOffsetOuter1"></feOffset>
            <feGaussianBlur stdDeviation="2.5" in="shadowOffsetOuter1" result="shadowBlurOuter1"></feGaussianBlur>
            <feComposite in="shadowBlurOuter1" in2="SourceAlpha" operator="out" result="shadowBlurOuter1"></feComposite>
            <feColorMatrix values="0 0 0 0 0.0235619438   0 0 0 0 0.0407606734   0 0 0 0 0.0808910425  0 0 0 0.6 0" type="matrix" in="shadowBlurOuter1"></feColorMatrix>
        </filter>
        <filter x="-33.6%" y="-56.3%" width="167.2%" height="247.4%" filterUnits="objectBoundingBox" id="filter-12">
            <feGaussianBlur stdDeviation="2.5" in="SourceAlpha" result="shadowBlurInner1"></feGaussianBlur>
            <feOffset dx="0" dy="2" in="shadowBlurInner1" result="shadowOffsetInner1"></feOffset>
            <feComposite in="shadowOffsetInner1" in2="SourceAlpha" operator="arithmetic" k2="-1" k3="1" result="shadowInnerInner1"></feComposite>
            <feColorMatrix values="0 0 0 0 0.988235294   0 0 0 0 0.988235294   0 0 0 0 0.992156863  0 0 0 0.299142264 0" type="matrix" in="shadowInnerInner1"></feColorMatrix>
        </filter>
        <linearGradient x1="50%" y1="0%" x2="50%" y2="100%" id="linearGradient-13">
            <stop stop-color="#C9D3E6" offset="0%"></stop>
            <stop stop-color="#B2BED3" offset="44.0787724%"></stop>
            <stop stop-color="#91A1BF" offset="100%"></stop>
        </linearGradient>
        <path d="M28,25 C31.2383969,25 33.8775718,27.5655749 33.9958615,30.7750617 L34,31 L22,31 C22,30.8703045 22.004115,30.7415702 22.0122217,30.6139204 C22.211239,27.4801287 24.815987,25 28,25 Z M28,19 C29.6568542,19 31,20.3431458 31,22 C31,23.6568542 29.6568542,25 28,25 C26.3431458,25 25,23.6568542 25,22 C25,20.3431458 26.3431458,19 28,19 Z" id="path-14"></path>
        <filter x="-12.5%" y="-12.5%" width="125.0%" height="125.0%" filterUnits="objectBoundingBox" id="filter-15">
            <feOffset dx="0" dy="0" in="SourceAlpha" result="shadowOffsetOuter1"></feOffset>
            <feGaussianBlur stdDeviation="0.5" in="shadowOffsetOuter1" result="shadowBlurOuter1"></feGaussianBlur>
            <feColorMatrix values="0 0 0 0 0.0235619438   0 0 0 0 0.0407606734   0 0 0 0 0.0808910425  0 0 0 0.5 0" type="matrix" in="shadowBlurOuter1"></feColorMatrix>
        </filter>
    </defs>
    <g id="icon/header/data" stroke="none" stroke-width="1" fill="none" fill-rule="evenodd">
        <path d="M4,0 L36,0 C38.209139,-4.05812251e-16 40,1.790861 40,4 L40,36 C40,38.209139 38.209139,40 36,40 L4,40 C1.790861,40 2.705415e-16,38.209139 0,36 L0,4 C-2.705415e-16,1.790861 1.790861,4.05812251e-16 4,0 Z" id="矩形备份-6"></path>
        <g id="编组-2" transform="translate(6.000000, 8.000000)">
            <g id="编组">
                <path d="M5.91464076,17.3001427 L12.093934,12.4526606 C12.1374194,12.4185474 12.1985806,12.4185474 12.242066,12.4526606 L18.4213592,17.3001427 C18.4735033,17.3410482 18.4826139,17.4164798 18.4417084,17.4686239 C18.4357662,17.4761986 18.428934,17.4830308 18.4213592,17.488973 L12.242066,22.3364551 C12.1985806,22.3705682 12.1374194,22.3705682 12.093934,22.3364551 L5.91464076,17.488973 C5.86249671,17.4480674 5.8533861,17.3726358 5.89429164,17.3204918 C5.90023384,17.312917 5.90706599,17.3060849 5.91464076,17.3001427 Z" id="矩形备份-2" fill="#A2C2FF" filter="url(#filter-1)"></path>
                <g id="矩形备份-2">
                    <use fill="black" fill-opacity="1" filter="url(#filter-3)" xlink:href="#path-2"></use>
                    <use fill-opacity="0.2" fill="#3E4A62" fill-rule="evenodd" xlink:href="#path-2"></use>
                    <use fill="black" fill-opacity="1" filter="url(#filter-4)" xlink:href="#path-2"></use>
                </g>
                <path d="M4.67842151,10.949971 L11.4719657,6.09743946 C11.5136894,6.06763682 11.5697392,6.06763682 11.6114629,6.09743946 L18.4050071,10.949971 C18.4589366,10.9884921 18.4714276,11.0634381 18.4329065,11.1173676 C18.4252097,11.1281431 18.4157825,11.1375703 18.4050071,11.1452671 L11.6114629,15.9977986 C11.5697392,16.0276013 11.5136894,16.0276013 11.4719657,15.9977986 L4.67842151,11.1452671 C4.624492,11.106746 4.612001,11.0318 4.65052208,10.9778705 C4.65821883,10.967095 4.66764605,10.9576678 4.67842151,10.949971 Z" id="矩形备份" fill="#A2C2FF" filter="url(#filter-5)"></path>
                <g id="矩形备份">
                    <use fill="black" fill-opacity="1" filter="url(#filter-7)" xlink:href="#path-6"></use>
                    <use fill-opacity="0.4" fill="#3E4A62" fill-rule="evenodd" xlink:href="#path-6"></use>
                    <use fill="black" fill-opacity="1" filter="url(#filter-8)" xlink:href="#path-6"></use>
                </g>
                <path d="M4.7402437,6.34309724 L11.9852437,2.47909724 C12.0205378,2.46027371 12.0628908,2.46027371 12.0981849,2.47909724 L19.3431849,6.34309724 C19.4016621,6.37428508 19.4237845,6.44697297 19.3925966,6.50545018 C19.3813925,6.52645786 19.3641925,6.54365785 19.3431849,6.55486194 L12.0981849,10.4188619 C12.0628908,10.4376855 12.0205378,10.4376855 11.9852437,10.4188619 L4.7402437,6.55486194 C4.68176649,6.5236741 4.65964409,6.45098621 4.69083193,6.392509 C4.70203603,6.37150133 4.71923602,6.35430133 4.7402437,6.34309724 Z" id="矩形" fill="#A2C2FF" filter="url(#filter-9)"></path>
                <g id="矩形">
                    <use fill="black" fill-opacity="1" filter="url(#filter-11)" xlink:href="#path-10"></use>
                    <use fill-opacity="0.6" fill="#3E4A62" fill-rule="evenodd" xlink:href="#path-10"></use>
                    <use fill="black" fill-opacity="1" filter="url(#filter-12)" xlink:href="#path-10"></use>
                </g>
            </g>
        </g>
        <g id="形状结合">
            <use fill="black" fill-opacity="1" filter="url(#filter-15)" xlink:href="#path-14"></use>
            <use fill="url(#linearGradient-13)" fill-rule="evenodd" xlink:href="#path-14"></use>
        </g>
    </g>
</svg>