<?xml version="1.0" encoding="UTF-8"?>
<svg width="40px" height="40px" viewBox="0 0 40 40" version="1.1" xmlns="http://www.w3.org/2000/svg" xmlns:xlink="http://www.w3.org/1999/xlink">
    <title>icon/xuezhongguyetai</title>
    <defs>
        <path d="M13.4904545,0 C9.40639961,0 4.47840079,2.71306001 1.43848762,10.4748876 C-1.60142556,18.2367152 -0.790116978,32 13.4904545,32 C27.771026,32 29.05485,18.5857841 26.0880111,10.4748876 C23.1211721,2.36399111 17.5745094,0 13.4904545,0 Z" id="path-1"></path>
        <filter x="0.0%" y="0.0%" width="100.0%" height="100.0%" filterUnits="objectBoundingBox" id="filter-2">
            <feGaussianBlur stdDeviation="0" in="SourceGraphic"></feGaussianBlur>
        </filter>
        <filter x="-7.3%" y="-6.2%" width="114.6%" height="112.5%" filterUnits="objectBoundingBox" id="filter-3">
            <feMorphology radius="1" operator="erode" in="SourceAlpha" result="shadowSpreadInner1"></feMorphology>
            <feGaussianBlur stdDeviation="1" in="shadowSpreadInner1" result="shadowBlurInner1"></feGaussianBlur>
            <feOffset dx="0" dy="-1" in="shadowBlurInner1" result="shadowOffsetInner1"></feOffset>
            <feComposite in="shadowOffsetInner1" in2="SourceAlpha" operator="arithmetic" k2="-1" k3="1" result="shadowInnerInner1"></feComposite>
            <feColorMatrix values="0 0 0 0 0.921568627   0 0 0 0 0.560784314   0 0 0 0 0.2  0 0 0 1 0" type="matrix" in="shadowInnerInner1"></feColorMatrix>
        </filter>
        <linearGradient x1="38.1129247%" y1="5.73347652%" x2="50%" y2="100%" id="linearGradient-4">
            <stop stop-color="#FFF7EF" stop-opacity="0.261819479" offset="0%"></stop>
            <stop stop-color="#FFF5EC" stop-opacity="0.6" offset="100%"></stop>
        </linearGradient>
        <path d="M13.5157372,2.43955255 C9.93709301,2.43955255 5.61894476,4.81348006 2.95522744,11.6050792 C0.291510127,18.3966783 1.00241751,30.4395526 13.5157372,30.4395526 C26.0290569,30.4395526 27.154005,18.7021136 24.5543188,11.6050792 C21.9546326,4.50804477 17.0943814,2.43955255 13.5157372,2.43955255 Z" id="path-5"></path>
        <filter x="0.0%" y="0.0%" width="100.0%" height="100.0%" filterUnits="objectBoundingBox" id="filter-6">
            <feGaussianBlur stdDeviation="0" in="SourceGraphic"></feGaussianBlur>
        </filter>
        <filter x="-10.4%" y="-8.9%" width="120.8%" height="117.9%" filterUnits="objectBoundingBox" id="filter-7">
            <feGaussianBlur stdDeviation="2" in="SourceAlpha" result="shadowBlurInner1"></feGaussianBlur>
            <feOffset dx="0" dy="1" in="shadowBlurInner1" result="shadowOffsetInner1"></feOffset>
            <feComposite in="shadowOffsetInner1" in2="SourceAlpha" operator="arithmetic" k2="-1" k3="1" result="shadowInnerInner1"></feComposite>
            <feColorMatrix values="0 0 0 0 0.9004207   0 0 0 0 0.604348929   0 0 0 0 0.322603211  0 0 0 1 0" type="matrix" in="shadowInnerInner1"></feColorMatrix>
        </filter>
        <path d="M17.888495,7.32285845 C20.4354716,8.35054657 21.1495231,7.87151273 21.9260967,9.16696326 C22.7026703,10.4624138 22.4792439,11.8790821 22.7026703,13.7994292 C22.9260967,15.7197763 24.0926058,16.2843029 24.4834835,17.0723329 C25.361554,18.8425696 24.8955589,22.7261293 21.7026703,26.1223024 C20.0531035,27.8768937 17.485726,28.8291272 14.0005379,28.979003 L14,29 C13.831267,29 13.6644883,28.9982915 13.499664,28.9948746 C13.3361896,28.9982846 13.1690759,29 13,29 L12.9984616,28.97896 C9.51378264,28.828945 6.94673869,27.8767258 5.29732972,26.1223024 C2.1044411,22.7261293 1.47620777,18.4652525 2.51651654,17.0723329 C3.52667999,15.7197763 4.02537825,15.0850052 4.29732972,13.7994292 C4.56928119,12.5138531 4.29732972,10.0930889 5.07390331,9.16696326 C5.85047691,8.24083758 6.5645284,8.35054657 9.11150498,7.32285845 C10.9483183,6.58171649 12.6782745,4.79988965 13.5001869,5.01843723 C14.3217255,4.79988965 16.0516817,6.58171649 17.888495,7.32285845 Z" id="path-8"></path>
        <filter x="-13.1%" y="-12.5%" width="126.3%" height="125.0%" filterUnits="objectBoundingBox" id="filter-9">
            <feMorphology radius="2" operator="erode" in="SourceAlpha" result="shadowSpreadInner1"></feMorphology>
            <feGaussianBlur stdDeviation="1.5" in="shadowSpreadInner1" result="shadowBlurInner1"></feGaussianBlur>
            <feOffset dx="0" dy="1" in="shadowBlurInner1" result="shadowOffsetInner1"></feOffset>
            <feComposite in="shadowOffsetInner1" in2="SourceAlpha" operator="arithmetic" k2="-1" k3="1" result="shadowInnerInner1"></feComposite>
            <feColorMatrix values="0 0 0 0 0.458823529   0 0 0 0 0.28627451   0 0 0 0 0.0980392157  0 0 0 0.697405622 0" type="matrix" in="shadowInnerInner1"></feColorMatrix>
        </filter>
        <linearGradient x1="46.9391325%" y1="2.17571528%" x2="34.1406555%" y2="100%" id="linearGradient-10">
            <stop stop-color="#FB6838" offset="0%"></stop>
            <stop stop-color="#B9311E" offset="100%"></stop>
        </linearGradient>
        <path d="M15.1819839,5.76265717 C13.6831621,10.0453689 13.6831621,13.0565222 15.1819839,14.796117 C17.4302165,17.4055093 19.7530594,17.5134659 21.6729965,19.2384605 C23.5929337,20.9634552 24.2984546,23.0906859 24.8747074,20.4718528 C25.1426111,19.2543403 24.9680537,17.9454642 24.4174232,17 C23.7836641,15.9117989 22.7340211,15.1865089 22.6496391,13.6747199 C22.5547648,11.9749506 22.6099197,10.2454453 21.9260967,9.16696326 C21.4732999,8.45284101 20.5917292,8.15412938 19.504763,7.87118149 C17.6857465,7.39767374 16.2448201,6.6948323 15.1819839,5.76265717 Z" id="path-11"></path>
        <filter x="0.0%" y="0.0%" width="100.0%" height="100.0%" filterUnits="objectBoundingBox" id="filter-12">
            <feGaussianBlur stdDeviation="0" in="SourceGraphic"></feGaussianBlur>
        </filter>
        <filter x="-13.7%" y="-9.4%" width="127.4%" height="118.8%" filterUnits="objectBoundingBox" id="filter-13">
            <feGaussianBlur stdDeviation="1" in="SourceAlpha" result="shadowBlurInner1"></feGaussianBlur>
            <feOffset dx="0" dy="-1" in="shadowBlurInner1" result="shadowOffsetInner1"></feOffset>
            <feComposite in="shadowOffsetInner1" in2="SourceAlpha" operator="arithmetic" k2="-1" k3="1" result="shadowInnerInner1"></feComposite>
            <feColorMatrix values="0 0 0 0 0.560784314   0 0 0 0 0.0980392157   0 0 0 0 0.145098039  0 0 0 0.5 0" type="matrix" in="shadowInnerInner1"></feColorMatrix>
        </filter>
        <linearGradient x1="50%" y1="37.4361231%" x2="71.3586447%" y2="61.2975767%" id="linearGradient-14">
            <stop stop-color="#FFF3B2" offset="0%"></stop>
            <stop stop-color="#F85426" offset="100%"></stop>
        </linearGradient>
        <path d="M11.3896032,17.3561585 C12.6186385,16.2364096 14.9181617,15.7157855 16.536312,17.1934724 C18.1544623,18.6711594 18.7799314,18.4385936 20.1594788,18.4385936 C21.5390263,18.4385936 21.6096674,19.3548741 22.1536429,19.7332279 C22.6976184,20.1115817 21.7351768,18.2826383 22.6976184,17.9950452 C23.6600601,17.7074521 24.9561173,18.2489641 25.3353798,20.2936158 C25.7146422,22.3382676 25.1276627,23.8482786 24.0553932,23.8482786 C22.9831236,23.8482786 22.6976184,24.1929057 21.8332825,25.6213469 C20.9689465,27.0497882 18.1406251,28.5711542 15.6735462,27.8065584 C13.2064674,27.0419626 11.6924869,28.3095266 9.90039199,28.3095266 C8.10829705,28.3095266 6.14750266,27.6210455 5.57147553,25.8479772 C4.9954484,24.0749088 3.79425161,23.8482786 3.33449637,23.6923368 C2.87474113,23.5363951 1.25638274,23.3281704 1.48343936,21.0885966 C1.71049599,18.8490227 2.38515843,18.0962507 3.33449637,18.2489641 C4.28383431,18.4016775 5.12766827,20.5938431 5.57147553,19.4645886 C6.01528279,18.3353341 6.7629247,18.0593346 7.77595047,18.2489641 C8.78897625,18.4385936 10.1605679,18.4759074 11.3896032,17.3561585 Z M13.6947558,18.2650967 C12.2897864,18.2650967 11.1326993,19.1566485 11.1326993,21.0392927 C11.1326993,22.9219369 12.6781045,24.5651812 13.6947558,24.5651812 C14.7114071,24.5651812 16.3299736,22.8607456 16.3299736,21.0392927 C16.3299736,19.2178398 15.0997251,18.2650967 13.6947558,18.2650967 Z" id="path-15"></path>
        <filter x="-16.7%" y="-16.6%" width="133.3%" height="166.5%" filterUnits="objectBoundingBox" id="filter-16">
            <feGaussianBlur stdDeviation="0" in="SourceGraphic"></feGaussianBlur>
        </filter>
        <filter x="-29.2%" y="-41.6%" width="158.4%" height="216.4%" filterUnits="objectBoundingBox" id="filter-17">
            <feOffset dx="0" dy="2" in="SourceAlpha" result="shadowOffsetOuter1"></feOffset>
            <feGaussianBlur stdDeviation="2" in="shadowOffsetOuter1" result="shadowBlurOuter1"></feGaussianBlur>
            <feComposite in="shadowBlurOuter1" in2="SourceAlpha" operator="out" result="shadowBlurOuter1"></feComposite>
            <feColorMatrix values="0 0 0 0 0.348704352   0 0 0 0 0.100772027   0 0 0 0 0.0306670243  0 0 0 1 0" type="matrix" in="shadowBlurOuter1"></feColorMatrix>
        </filter>
        <filter x="-22.9%" y="-29.1%" width="145.9%" height="191.5%" filterUnits="objectBoundingBox" id="filter-18">
            <feGaussianBlur stdDeviation="1" in="SourceAlpha" result="shadowBlurInner1"></feGaussianBlur>
            <feOffset dx="0" dy="-1" in="shadowBlurInner1" result="shadowOffsetInner1"></feOffset>
            <feComposite in="shadowOffsetInner1" in2="SourceAlpha" operator="arithmetic" k2="-1" k3="1" result="shadowInnerInner1"></feComposite>
            <feColorMatrix values="0 0 0 0 0.850980392   0 0 0 0 0.141176471   0 0 0 0 0.164705882  0 0 0 0.5 0" type="matrix" in="shadowInnerInner1"></feColorMatrix>
        </filter>
        <linearGradient x1="54.7205187%" y1="13.4961596%" x2="54.7205187%" y2="100%" id="linearGradient-19">
            <stop stop-color="#DF2320" offset="0%"></stop>
            <stop stop-color="#2B0809" offset="100%"></stop>
        </linearGradient>
        <path d="M11.7056866,12.6009655 C14.1929747,13.7381811 15.330644,15.0589956 15.1186943,16.5634088 C14.8007698,18.8200286 9.97929065,19.1029089 8.68692017,21 C7.39454969,22.8970911 10.9473648,18.6613941 10.4261398,16.3458729 C10.0786565,14.8021921 10.5051721,13.5538896 11.7056866,12.6009655 Z" id="path-20"></path>
        <filter x="0.0%" y="0.0%" width="100.0%" height="100.0%" filterUnits="objectBoundingBox" id="filter-21">
            <feGaussianBlur stdDeviation="0" in="SourceGraphic"></feGaussianBlur>
        </filter>
        <filter x="-22.2%" y="-16.9%" width="144.5%" height="133.8%" filterUnits="objectBoundingBox" id="filter-22">
            <feGaussianBlur stdDeviation="1" in="SourceAlpha" result="shadowBlurInner1"></feGaussianBlur>
            <feOffset dx="0" dy="-1" in="shadowBlurInner1" result="shadowOffsetInner1"></feOffset>
            <feComposite in="shadowOffsetInner1" in2="SourceAlpha" operator="arithmetic" k2="-1" k3="1" result="shadowInnerInner1"></feComposite>
            <feColorMatrix values="0 0 0 0 0.149019608   0 0 0 0 0.0392156863   0 0 0 0 0.0431372549  0 0 0 0.5 0" type="matrix" in="shadowInnerInner1"></feColorMatrix>
        </filter>
    </defs>
    <g id="icon/xuezhongguyetai" stroke="none" stroke-width="1" fill="none" fill-rule="evenodd">
        <g id="编组-15备份" transform="translate(6.000000, 4.000000)">
            <g id="编组-11备份">
                <g id="路径-9备份-2" filter="url(#filter-2)" fill="black" fill-opacity="1">
                    <use filter="url(#filter-3)" xlink:href="#path-1"></use>
                </g>
                <g id="路径-9备份-2" filter="url(#filter-6)">
                    <use fill="url(#linearGradient-4)" fill-rule="evenodd" xlink:href="#path-5"></use>
                    <use fill="black" fill-opacity="1" filter="url(#filter-7)" xlink:href="#path-5"></use>
                </g>
                <g id="形状结合">
                    <use fill-opacity="0.395898779" fill="#EE9946" fill-rule="evenodd" xlink:href="#path-8"></use>
                    <use fill="black" fill-opacity="1" filter="url(#filter-9)" xlink:href="#path-8"></use>
                </g>
                <g id="路径-40" filter="url(#filter-12)">
                    <use fill="url(#linearGradient-10)" fill-rule="evenodd" xlink:href="#path-11"></use>
                    <use fill="black" fill-opacity="1" filter="url(#filter-13)" xlink:href="#path-11"></use>
                </g>
                <g id="形状结合备份-7" filter="url(#filter-16)">
                    <use fill="black" fill-opacity="1" filter="url(#filter-17)" xlink:href="#path-15"></use>
                    <use fill-opacity="0.7" fill="url(#linearGradient-14)" fill-rule="evenodd" xlink:href="#path-15"></use>
                    <use fill="black" fill-opacity="1" filter="url(#filter-18)" xlink:href="#path-15"></use>
                </g>
            </g>
        </g>
        <g id="路径-41" filter="url(#filter-21)">
            <use fill="url(#linearGradient-19)" fill-rule="evenodd" xlink:href="#path-20"></use>
            <use fill="black" fill-opacity="1" filter="url(#filter-22)" xlink:href="#path-20"></use>
        </g>
        <path d="M21.5,13.5634088 C22.0912522,13.5634088 22.0658427,13.1088922 21.8908522,12.7817044 C21.7158617,12.4545166 21.7158617,12 21.5,12 C21.2841383,12 21.2841383,12.4545166 21.1091478,12.7817044 C20.9341573,13.1088922 20.9087478,13.5634088 21.5,13.5634088 Z" id="椭圆形" fill="#871D1D"></path>
        <path d="M24.5,15.5634088 C25.0912522,15.5634088 25.0658427,15.1088922 24.8908522,14.7817044 C24.7158617,14.4545166 24.7158617,14 24.5,14 C24.2841383,14 24.2841383,14.4545166 24.1091478,14.7817044 C23.9341573,15.1088922 23.9087478,15.5634088 24.5,15.5634088 Z" id="椭圆形备份-3" fill="#871D1D"></path>
        <path d="M22.5,17.5634088 C23.0912522,17.5634088 23.0658427,17.1088922 22.8908522,16.7817044 C22.7158617,16.4545166 22.7158617,16 22.5,16 C22.2841383,16 22.2841383,16.4545166 22.1091478,16.7817044 C21.9341573,17.1088922 21.9087478,17.5634088 22.5,17.5634088 Z" id="椭圆形备份-4" fill="#871D1D"></path>
        <path d="M26.5,16.5634088 C27.0912522,16.5634088 27.0658427,16.1088922 26.8908522,15.7817044 C26.7158617,15.4545166 26.7158617,15 26.5,15 C26.2841383,15 26.2841383,15.4545166 26.1091478,15.7817044 C25.9341573,16.1088922 25.9087478,16.5634088 26.5,16.5634088 Z" id="椭圆形备份-6" fill="#871D1D"></path>
        <path d="M25.5,19.5634088 C26.0912522,19.5634088 26.0658427,19.1088922 25.8908522,18.7817044 C25.7158617,18.4545166 25.7158617,18 25.5,18 C25.2841383,18 25.2841383,18.4545166 25.1091478,18.7817044 C24.9341573,19.1088922 24.9087478,19.5634088 25.5,19.5634088 Z" id="椭圆形备份-7" fill="#871D1D"></path>
        <path d="M27.5,21.5634088 C28.0912522,21.5634088 28.0658427,21.1088922 27.8908522,20.7817044 C27.7158617,20.4545166 27.7158617,20 27.5,20 C27.2841383,20 27.2841383,20.4545166 27.1091478,20.7817044 C26.9341573,21.1088922 26.9087478,21.5634088 27.5,21.5634088 Z" id="椭圆形备份-8" fill="#871D1D"></path>
    </g>
</svg>