<?xml version="1.0" encoding="UTF-8"?>
<svg width="17px" height="9px" viewBox="0 0 17 9" version="1.1" xmlns="http://www.w3.org/2000/svg" xmlns:xlink="http://www.w3.org/1999/xlink">
    <title>icon/kejian</title>
    <g id="web-plan图像浏览（2021/08更新）" stroke="none" stroke-width="1" fill="none" fill-rule="evenodd">
        <g id="6.图像浏览主面板控件交互说明" transform="translate(-1796.000000, -3804.000000)" fill="#C9D3E6" fill-rule="nonzero">
            <g id="形状结合" transform="translate(1789.000000, 3793.000000)">
                <path d="M8.76343171,11.6709345 C10.834187,14.2710854 13.0703274,15.5383301 15.5,15.5383301 C17.9299605,15.5383301 20.12972,14.2988101 22.1318791,11.7554263 L22.1318791,11.7554263 L23.3105037,12.6832431 C22.7523796,13.3922396 22.1733331,14.015972 21.5738498,14.5534822 L23.0797123,16.1028341 L22.0043941,17.1486308 L20.3870582,15.4866584 C19.6740305,15.9718532 18.934868,16.3442662 18.1702894,16.6024795 L18.8568221,18.727731 L17.4294328,19.1887729 L16.7064431,16.9525495 C16.3104438,17.0096784 15.9082666,17.0383301 15.5,17.0383301 C15.1197064,17.0383301 14.744166,17.0130298 14.3734407,16.9625731 L13.6498513,19.1899054 L12.2231956,18.7265985 L12.9063518,16.6236303 C12.1193857,16.3645593 11.3561286,15.9846479 10.6172373,15.4854287 L9.04442133,17.2113016 L7.93560107,16.2010948 L9.42930596,14.5616731 C8.79655189,14.0027641 8.18331951,13.3503139 7.59006973,12.6053978 L7.59006973,12.6053978 Z"></path>
            </g>
        </g>
    </g>
</svg>