<?xml version="1.0" encoding="UTF-8"?>
<svg width="40px" height="40px" viewBox="0 0 40 40" version="1.1" xmlns="http://www.w3.org/2000/svg" xmlns:xlink="http://www.w3.org/1999/xlink">
    <title>icon/zhongshimianyidian</title>
    <g id="icon/zhongshimianyidian" stroke="none" stroke-width="1" fill="none" fill-rule="evenodd">
        <path d="M13.9814453,26.6847656 L13.9814453,21.8728516 C13.9814453,21.7623946 14.0709884,21.6728516 14.1814453,21.6728516 L18.1320313,21.6728516 C18.2424882,21.6728516 18.3320312,21.7623946 18.3320312,21.8728516 L18.3320312,26.6847656 C18.3320312,26.7952226 18.4215743,26.8847656 18.5320312,26.8847656 L22.1310547,26.8847656 C22.2415116,26.8847656 22.3310547,26.7952226 22.3310547,26.6847656 L22.3310547,14.2 C22.3310547,14.0895431 22.2415116,14 22.1310547,14 L18.5320312,14 C18.4215743,14 18.3320312,14.0895431 18.3320312,14.2 L18.3320312,18.3087891 C18.3320312,18.419246 18.2424882,18.5087891 18.1320313,18.5087891 L14.1814453,18.5087891 C14.0709884,18.5087891 13.9814453,18.419246 13.9814453,18.3087891 L13.9814453,14.2 C13.9814453,14.0895431 13.8919023,14 13.7814453,14 L10.2,14 C10.0895431,14 10,14.0895431 10,14.2 L10,26.6847656 C10,26.7952226 10.0895431,26.8847656 10.2,26.8847656 L13.7814453,26.8847656 C13.8919023,26.8847656 13.9814453,26.7952226 13.9814453,26.6847656 Z M29.125,26.6847656 L29.125,14.2 C29.125,14.0895431 29.0354569,14 28.925,14 L25.3347656,14 C25.2243087,14 25.1347656,14.0895431 25.1347656,14.2 L25.1347656,26.6847656 C25.1347656,26.7952226 25.2243087,26.8847656 25.3347656,26.8847656 L28.925,26.8847656 C29.0354569,26.8847656 29.125,26.7952226 29.125,26.6847656 Z" id="HI" fill="#C9D3E6" transform="translate(19.562500, 20.442383) scale(-1, 1) translate(-19.562500, -20.442383) "></path>
    </g>
</svg>