<?xml version="1.0" encoding="UTF-8"?>
<svg width="40px" height="40px" viewBox="0 0 40 40" version="1.1" xmlns="http://www.w3.org/2000/svg" xmlns:xlink="http://www.w3.org/1999/xlink">
    <title>icon/kuangjiatiqu</title>
    <g id="icon/kuangjiatiqu" stroke="none" stroke-width="1" fill="none" fill-rule="evenodd">
        <path d="M21.0958008,29.9014085 C21.5967773,29.9014085 21.9878906,30.0602504 22.2691406,30.3779343 C22.5503906,30.6956182 22.6910156,31.1924883 22.6910156,31.8685446 L22.6910156,31.8685446 L22.6910156,35 L20.8980469,35 L20.8980469,32.1596244 L20.893125,32.0313615 C20.88,31.8696088 20.840625,31.7449139 20.775,31.657277 C20.6548828,31.485133 20.5054687,31.399061 20.3267578,31.399061 C20.1158203,31.399061 19.9458984,31.4804382 19.8169922,31.6431925 C19.6880859,31.8059468 19.6236328,32.0672927 19.6236328,32.4272301 L19.6236328,32.4272301 L19.6236328,35 L17.8306641,35 L17.8306641,32.2535211 L17.8292578,32.1305164 C17.8255078,31.9777778 17.8142578,31.8701096 17.7955078,31.8075118 C17.7574219,31.6823161 17.6915039,31.5813772 17.5977539,31.5046949 C17.5040039,31.4280125 17.3941406,31.3896714 17.2681641,31.3896714 C17.0630859,31.3896714 16.8946289,31.4726135 16.762793,31.6384977 C16.630957,31.8043819 16.5650391,32.0766823 16.5650391,32.4553991 L16.5650391,32.4553991 L16.5650391,35 L14.7720703,35 L14.7720703,30.0140845 L16.4419922,30.0140845 L16.4419922,30.7417841 L16.5863965,30.5701409 C16.7792871,30.3553052 16.973584,30.1965571 17.1692871,30.0938967 C17.413916,29.9655712 17.709082,29.9014085 18.0547852,29.9014085 C18.4268555,29.9014085 18.7212891,29.971831 18.9380859,30.1126761 C19.1548828,30.2535211 19.3321289,30.4632238 19.4698242,30.7417841 C19.7510742,30.4162754 20.0074219,30.1948357 20.2388672,30.0774648 C20.4703125,29.9600939 20.755957,29.9014085 21.0958008,29.9014085 Z M29.4958008,29.9014085 C29.9967773,29.9014085 30.3878906,30.0602504 30.6691406,30.3779343 C30.9503906,30.6956182 31.0910156,31.1924883 31.0910156,31.8685446 L31.0910156,31.8685446 L31.0910156,35 L29.2980469,35 L29.2980469,32.1596244 L29.293125,32.0313615 C29.28,31.8696088 29.240625,31.7449139 29.175,31.657277 C29.0548828,31.485133 28.9054687,31.399061 28.7267578,31.399061 C28.5158203,31.399061 28.3458984,31.4804382 28.2169922,31.6431925 C28.0880859,31.8059468 28.0236328,32.0672927 28.0236328,32.4272301 L28.0236328,32.4272301 L28.0236328,35 L26.2306641,35 L26.2306641,32.2535211 L26.2292578,32.1305164 C26.2255078,31.9777778 26.2142578,31.8701096 26.1955078,31.8075118 C26.1574219,31.6823161 26.0915039,31.5813772 25.9977539,31.5046949 C25.9040039,31.4280125 25.7941406,31.3896714 25.6681641,31.3896714 C25.4630859,31.3896714 25.2946289,31.4726135 25.162793,31.6384977 C25.030957,31.8043819 24.9650391,32.0766823 24.9650391,32.4553991 L24.9650391,32.4553991 L24.9650391,35 L23.1720703,35 L23.1720703,30.0140845 L24.8419922,30.0140845 L24.8419922,30.7417841 L24.9863965,30.5701409 C25.1792871,30.3553052 25.373584,30.1965571 25.5692871,30.0938967 C25.813916,29.9655712 26.109082,29.9014085 26.4547852,29.9014085 C26.8268555,29.9014085 27.1212891,29.971831 27.3380859,30.1126761 C27.5548828,30.2535211 27.7321289,30.4632238 27.8698242,30.7417841 C28.1510742,30.4162754 28.4074219,30.1948357 28.6388672,30.0774648 C28.8703125,29.9600939 29.155957,29.9014085 29.4958008,29.9014085 Z M20,6.00000002 C24.418278,6.00000002 28,9.58172202 28,14 C28,18.418278 24.418278,22 20,22 C15.581722,22 12,18.418278 12,14 C12,9.58172202 15.581722,6.00000002 20,6.00000002 Z" id="形状结合" fill="#C9D3E6"></path>
        <path d="M11.8,6 C11.9104569,6 12,6.08954305 12,6.2 L11.999,22 L28,22 L28,6.20000001 C28,6.08954306 28.0895431,6.00000001 28.2,6.00000001 L29.8,6.00000001 C29.9104569,6.00000001 30,6.08954306 30,6.20000001 L30,25.8 C30,25.910457 29.9104569,26 29.8,26 L28.2,26 C28.0895431,26 28,25.910457 28,25.8 L28,24 L11.999,24 L12,25.8 C12,25.9104569 11.9104569,26 11.8,26 L10.2,26 C10.0895431,26 10,25.9104569 10,25.8 L10,6.2 C10,6.08954305 10.0895431,6 10.2,6 L11.8,6 Z" id="形状结合" fill-opacity="0.5" fill="#C9D3E6"></path>
        <path d="M11.611084,35.1186523 C12.3991699,35.1186523 13.0297852,34.9370117 13.5029297,34.5737305 C13.9760742,34.2104492 14.2126465,33.7050781 14.2126465,33.0576172 C14.2126465,32.6357422 14.0705566,32.2775879 13.786377,31.9831543 C13.5021973,31.6887207 13.1228027,31.5151367 12.6481934,31.4624023 L12.6481934,31.4624023 L12.6481934,31.4404297 C13.5505371,31.2119141 14.001709,30.6523438 14.001709,29.7617188 C14.001709,29.234375 13.8010254,28.8220215 13.3996582,28.5246582 C12.998291,28.2272949 12.4753418,28.0786133 11.8308105,28.0786133 C11.1950684,28.0786133 10.6428223,28.2001953 10.1740723,28.4433594 L10.1740723,28.4433594 L10.1740723,29.6166992 C10.6047363,29.3178711 11.048584,29.168457 11.5056152,29.168457 C12.2058105,29.168457 12.5559082,29.4584961 12.5559082,30.0385742 C12.5559082,30.6538086 12.098877,30.9614258 11.1848145,30.9614258 L11.1848145,30.9614258 L10.626709,30.9614258 L10.626709,32.0556641 L11.2331543,32.0556641 C11.7165527,32.0556641 12.0922852,32.140625 12.3603516,32.3105469 C12.628418,32.4804688 12.7624512,32.7265625 12.7624512,33.0488281 C12.7624512,33.3623047 12.6496582,33.6040039 12.4240723,33.7739258 C12.1984863,33.9438477 11.8937988,34.0288086 11.5100098,34.0288086 C10.9035645,34.0288086 10.373291,33.8588867 9.91918945,33.519043 L9.91918945,33.519043 L9.91918945,34.7714844 C10.3469238,35.0029297 10.9108887,35.1186523 11.611084,35.1186523 Z" id="3" fill="#C9D3E6" fill-rule="nonzero"></path>
    </g>
</svg>