<?xml version="1.0" encoding="UTF-8"?>
<svg width="24px" height="24px" viewBox="0 0 24 24" version="1.1" xmlns="http://www.w3.org/2000/svg" xmlns:xlink="http://www.w3.org/1999/xlink">
    <title>icon/lock</title>
    <g id="icon/lock" stroke="none" stroke-width="1" fill="none" fill-rule="evenodd">
        <g id="编组-6备份" transform="translate(5.000000, 5.000000)" fill="#C9D3E6">
            <path d="M7,0 C9.209139,0 11,1.790861 11,4 L11,5 L13.7436115,5 C13.8327634,5 13.865092,5.00928256 13.8976846,5.02671327 C13.9302772,5.04414398 13.955856,5.06972284 13.9732867,5.10231543 C13.9907174,5.13490802 14,5.16723665 14,5.25638852 L14,14.7436115 C14,14.8327634 13.9907174,14.865092 13.9732867,14.8976846 C13.955856,14.9302772 13.9302772,14.955856 13.8976846,14.9732867 C13.865092,14.9907174 13.8327634,15 13.7436115,15 L0.25638852,15 C0.167236646,15 0.134908022,14.9907174 0.10231543,14.9732867 C0.0697228371,14.955856 0.0441439796,14.9302772 0.0267132704,14.8976846 C0.00928256111,14.865092 -2.51692214e-14,14.8327634 -2.61063794e-14,14.7436115 L-2.55067218e-14,5.25638852 C-2.55176397e-14,5.16723665 0.00928256111,5.13490802 0.0267132704,5.10231543 C0.0441439796,5.06972284 0.0697228371,5.04414398 0.10231543,5.02671327 C0.134908022,5.00928256 0.167236646,5 0.25638852,5 L3,5 L3,4 C3,1.790861 4.790861,0 7,0 Z M7,8 C6.48716416,8 6.06449284,8.38604019 6.00672773,8.88337887 L6,9 L6,11.7436115 C6,11.8327634 6.00928256,11.865092 6.02671327,11.8976846 C6.04414398,11.9302772 6.06972284,11.955856 6.10231543,11.9732867 C6.12675987,11.9863598 6.15105584,11.9948495 6.19928699,11.9982772 L6.25638852,12 L7.74361148,12 C7.83276335,12 7.86509198,11.9907174 7.89768457,11.9732867 C7.93027716,11.955856 7.95585602,11.9302772 7.97328673,11.8976846 C7.98635976,11.8732401 7.99484946,11.8489442 7.99827724,11.800713 L8,11.7436115 L8,9 C8,8.44771525 7.55228475,8 7,8 Z M7,2 C5.93961328,2 5.07196906,2.82522875 5.00425414,3.86849945 L5,4 L5,5 L9,5 L9,4 C9,2.93961328 8.17477125,2.07196906 7.13150055,2.00425414 L7,2 Z" id="形状结合"></path>
        </g>
    </g>
</svg>