<?xml version="1.0" encoding="UTF-8"?>
<svg width="40px" height="40px" viewBox="0 0 40 40" version="1.1" xmlns="http://www.w3.org/2000/svg" xmlns:xlink="http://www.w3.org/1999/xlink">
    <title>icon/houlianhedian</title>
    <g id="icon/houlianhedian" stroke="none" stroke-width="1" fill="none" fill-rule="evenodd">
        <path d="M10.9990234,25.9044922 L10.9990234,21.3232422 L10.9990234,21.3232422 L13.1787109,21.3232422 C14.7841797,21.3232422 15.9780273,20.9570312 16.7602539,20.2246094 C17.5424805,19.4921875 17.9335938,18.4755859 17.9335938,17.1748047 C17.9335938,15.9091797 17.574707,14.9335938 16.8569336,14.2480469 C16.1391602,13.5625 15.0595703,13.2197266 13.6181641,13.2197266 L7.2,13.2197266 C7.08954305,13.2197266 7,13.3092696 7,13.4197266 L7,25.9044922 C7,26.0149491 7.08954305,26.1044922 7.2,26.1044922 L10.7990234,26.1044922 C10.9094804,26.1044922 10.9990234,26.0149491 10.9990234,25.9044922 Z M10.9990234,18.5128906 L10.9990234,16.0388672 C10.9990234,15.9284102 11.0885665,15.8388672 11.1990234,15.8388672 L12.1328125,15.8388672 L12.1328125,15.8388672 C12.8769531,15.8388672 13.3837891,15.9794922 13.6533203,16.2607422 C13.9228516,16.5419922 14.0576172,16.8847656 14.0576172,17.2890625 C14.0576172,17.7050781 13.9023438,18.0463867 13.5917969,18.3129883 C13.28125,18.5795898 12.7421875,18.7128906 11.9746094,18.7128906 L11.1990234,18.7128906 C11.0885665,18.7128906 10.9990234,18.6233476 10.9990234,18.5128906 Z M26.2480469,26.3330078 C27.4023438,26.3330078 28.3530273,26.1660156 29.1000977,25.8320312 C29.847168,25.4980469 30.4726562,25.0029297 30.9765625,24.3466797 C31.3647332,23.841155 31.6729343,23.2400144 31.9011657,22.543258 C31.936273,22.4360808 31.9807071,22.2823424 32.0344679,22.0820429 C32.0625577,21.9776954 32.0026354,21.8699421 31.8991954,21.8386756 L28.7974337,20.9011154 C28.691643,20.8688838 28.5798858,20.9287615 28.5478874,21.0346227 C28.5469285,21.0377951 28.5460485,21.0409908 28.5452482,21.044207 C28.5124719,21.1759236 28.4848939,21.2783542 28.4625141,21.3514986 C28.2887615,21.9193786 28.0501174,22.3699207 27.746582,22.703125 C27.3569336,23.1308594 26.78125,23.3447266 26.0195312,23.3447266 C25.234375,23.3447266 24.625,23.0795898 24.1914062,22.5493164 C23.7578125,22.019043 23.5410156,21.0390625 23.5410156,19.609375 C23.5410156,18.4550781 23.7226562,17.6083984 24.0859375,17.0693359 C24.5664062,16.3427734 25.2578125,15.9794922 26.1601562,15.9794922 C26.5585938,15.9794922 26.9189453,16.0615234 27.2412109,16.2255859 C27.5634766,16.3896484 27.8359375,16.6240234 28.0585938,16.9287109 C28.1372616,17.0347415 28.2458783,17.2680545 28.3844437,17.6286497 C28.4198014,17.7213228 28.5178026,17.77391 28.6146237,17.7523673 L31.7381592,17.0573807 C31.8461167,17.033546 31.9141362,16.9265957 31.8901244,16.8186776 C31.8881594,16.8098462 31.885598,16.8011581 31.8824577,16.7926732 C31.7858778,16.5317185 31.7069887,16.3339652 31.6457903,16.1994132 C31.2100692,15.2414285 30.6251769,14.5030824 29.8911133,13.984375 C28.9624023,13.328125 27.6865234,13 26.0634766,13 C23.9892578,13 22.3852539,13.5727539 21.2514648,14.7182617 C20.1176758,15.8637695 19.5507812,17.5029297 19.5507812,19.6357422 C19.5507812,21.2353516 19.8730469,22.5478516 20.5175781,23.5732422 C21.1621094,24.5986328 21.9282227,25.3149414 22.815918,25.722168 C23.7036133,26.1293945 24.8476562,26.3330078 26.2480469,26.3330078 Z" id="PC" fill="#C9D3E6"></path>
    </g>
</svg>