<?xml version="1.0" encoding="UTF-8"?>
<svg width="40px" height="40px" viewBox="0 0 40 40" version="1.1" xmlns="http://www.w3.org/2000/svg" xmlns:xlink="http://www.w3.org/1999/xlink">
    <title>icon/guanjieyundongmoni</title>
    <g id="icon/guanjieyundongmoni" stroke="none" stroke-width="1" fill="none" fill-rule="evenodd">
        <path d="M15.4782609,12 L15.4782609,18.8 C15.4782609,18.8920475 15.5404435,18.9695714 15.6250929,18.9928558 L15.6782609,19 L22.2347826,19 C22.3268301,19 22.404354,18.9378173 22.4276384,18.8531679 L22.4347826,18.8 L22.4347826,12 L25.2555366,12 C25.3055749,12 25.3537956,12.018757 25.3906815,12.0525692 L27.9351449,14.384994 C27.9764707,14.4228759 28,14.4763635 28,14.5324248 L28,27.8 C28,27.9104569 27.9104569,28 27.8,28 L12.2,28 C12.0895431,28 12,27.9104569 12,27.8 L12,12.2 C12,12.0895431 12.0895431,12 12.2,12 L15.4782609,12 Z M22.2347826,24 L15.6782609,24 C15.5862134,24 15.5086895,24.0621827 15.4854051,24.1468321 L15.4782609,24.2 L15.4782609,25.8 C15.4782609,25.8920475 15.5404435,25.9695714 15.6250929,25.9928558 L15.6782609,26 L22.2347826,26 C22.3268301,26 22.404354,25.9378173 22.4276384,25.8531679 L22.4347826,25.8 L22.4347826,24.2 C22.4347826,24.0895431 22.3452396,24 22.2347826,24 Z M20.8434783,12 C20.9539352,12 21.0434783,12.0895431 21.0434783,12.2 L21.0434783,17.3652174 C21.0434783,17.4756743 20.9539352,17.5652174 20.8434783,17.5652174 L17.0695652,17.5652174 C16.9591083,17.5652174 16.8695652,17.4756743 16.8695652,17.3652174 L16.8695652,12.2 C16.8695652,12.0895431 16.9591083,12 17.0695652,12 L20.8434783,12 Z" id="形状结合" fill="#C9D3E6"></path>
    </g>
</svg>