<?xml version="1.0" encoding="UTF-8"?>
<svg width="24px" height="24px" viewBox="0 0 24 24" version="1.1" xmlns="http://www.w3.org/2000/svg" xmlns:xlink="http://www.w3.org/1999/xlink">
    <title>icon/setting</title>
    <g id="icon/setting" stroke="none" stroke-width="1" fill="none" fill-rule="evenodd">
        <path d="M14.177153,4 C14.2876099,4 14.377153,4.08954305 14.377153,4.2 L14.3777947,5.96950915 C14.8583264,6.14578102 15.3140388,6.37395079 15.7382264,6.64727481 L17.157534,5.5197961 C17.2428715,5.45201829 17.3667637,5.46503749 17.4361477,5.5490742 L20.1734131,8.86440102 C20.2437384,8.94957781 20.2316989,9.07563719 20.1465221,9.14596252 C20.1455471,9.14676754 20.1445645,9.1475633 20.1435743,9.14834969 L18.6018558,10.3729721 C18.7389665,10.7982143 18.8365859,11.2413463 18.890363,11.6979921 L20.8348256,12.1386224 C20.9425552,12.1630161 21.0101124,12.2701233 20.9857187,12.377853 L20.9853361,12.3795095 L20.0075039,16.5336283 C19.9823473,16.640501 19.8757385,16.7071121 19.7686558,16.6828648 L17.8686515,16.2526405 C17.6170038,16.6527948 17.3260099,17.0254338 17.0011378,17.3650581 L17.8350875,19.0437993 C17.8842702,19.1427023 17.843964,19.2627494 17.745061,19.3119322 C17.7441489,19.3123857 17.7432333,19.3128323 17.7423144,19.3132719 L13.8300535,21.1847651 C13.7314855,21.2319167 13.6133194,21.1912349 13.5646673,21.0933988 L12.754662,19.4652334 C12.5067884,19.4921956 12.2550005,19.5060294 12,19.5060294 C11.7449995,19.5060294 11.4932116,19.4921956 11.245338,19.4652334 L10.4353327,21.0933988 C10.3866806,21.1912349 10.2685145,21.2319167 10.1699465,21.1847651 L6.25768562,19.3132719 C6.15804271,19.2656061 6.11590693,19.1461888 6.16357272,19.0465459 C6.16401231,19.045627 6.16445892,19.0447114 6.1649125,19.0437993 L6.99886222,17.3650581 C6.67399008,17.0254338 6.38299616,16.6527948 6.13134849,16.2526405 L4.23134418,16.6828648 C4.12426148,16.7071121 4.01765272,16.640501 3.9924961,16.5336283 L3.01466386,12.3795095 C2.98935525,12.2719911 3.05599947,12.1643135 3.16351789,12.1390049 C3.16406953,12.138875 3.16462172,12.1387475 3.16517444,12.1386224 L5.10963703,11.6979921 C5.16341412,11.2413463 5.26103349,10.7982143 5.39814416,10.3729721 L3.85642566,9.14834969 C3.76993048,9.07965237 3.75550246,8.95384399 3.82419978,8.86734881 C3.82498616,8.86635869 3.82578192,8.86537605 3.82658694,8.86440102 L6.56385227,5.5490742 C6.63323632,5.46503749 6.75712853,5.45201829 6.84246599,5.5197961 L8.2617736,6.64727481 C8.68596124,6.37395079 9.14167359,6.14578102 9.6222053,5.96950915 L9.622847,4.2 C9.622847,4.08954305 9.71239005,4 9.822847,4 L14.177153,4 Z M12,9.42595523 C10.2967846,9.42595523 8.91605563,10.8145715 8.91605563,12.5275165 C8.91605563,14.2404615 10.2967846,15.6290778 12,15.6290778 C13.7032154,15.6290778 15.0839444,14.2404615 15.0839444,12.5275165 C15.0839444,10.8145715 13.7032154,9.42595523 12,9.42595523 Z" id="形状结合" fill="#C9D3E6"></path>
    </g>
</svg>