<?xml version="1.0" encoding="UTF-8"?>
<svg width="400px" height="80px" viewBox="0 0 400 80" version="1.1" xmlns="http://www.w3.org/2000/svg" xmlns:xlink="http://www.w3.org/1999/xlink">
    <title>icon/buzhoulan</title>
    <defs>
        <linearGradient x1="50%" y1="0%" x2="50%" y2="100%" id="linearGradient-1">
            <stop stop-color="#0D0E10" offset="0%"></stop>
            <stop stop-color="#181B21" stop-opacity="0" offset="100%"></stop>
        </linearGradient>
        <linearGradient x1="50%" y1="50%" x2="50%" y2="100%" id="linearGradient-2">
            <stop stop-color="#252A33" offset="0%"></stop>
            <stop stop-color="#171B20" stop-opacity="0" offset="100%"></stop>
        </linearGradient>
        <linearGradient x1="79.6333773%" y1="81.1600482%" x2="79.6333773%" y2="8.21398125%" id="linearGradient-3">
            <stop stop-color="#424959" stop-opacity="0" offset="0%"></stop>
            <stop stop-color="#252A33" offset="100%"></stop>
        </linearGradient>
        <linearGradient x1="50%" y1="0%" x2="50%" y2="100%" id="linearGradient-4">
            <stop stop-color="#29303A" offset="0%"></stop>
            <stop stop-color="#181C21" stop-opacity="0" offset="100%"></stop>
        </linearGradient>
        <linearGradient x1="79.6333773%" y1="89.2553921%" x2="79.6333773%" y2="66.5447367%" id="linearGradient-5">
            <stop stop-color="#69D8C6" stop-opacity="0" offset="0%"></stop>
            <stop stop-color="#69D8C6" offset="100%"></stop>
        </linearGradient>
    </defs>
    <g id="icon/buzhoulan" stroke="none" stroke-width="1" fill="none" fill-rule="evenodd">
        <g id="编组-6">
            <rect id="矩形" fill="url(#linearGradient-1)" x="0" y="-7.10542736e-15" width="400" height="53.3333333"></rect>
            <path d="M0,47.6736709 L0,10 C-6.76353751e-16,4.4771525 4.4771525,2.79088747e-15 10,0 L182.931902,0 C187.690239,9.02264532e-16 191.78956,3.35292018 192.733263,8.01673779 L200.155626,44.6983529 C201.099329,49.3621705 205.19865,52.7150907 209.956987,52.7150907 L400,52.7150907 L400,52.7150907 L400,80 L0,80 L0,47.6736709 Z" id="路径-3" fill="url(#linearGradient-2)"></path>
            <path d="M192,54.2222222 C192,53.4936187 192.062381,52.7668562 192.186206,52.0528709 L199.547994,9.60389132 C200.427478,4.53267961 204.230014,0.888888889 208.642675,0.888888889 L400,0.888888889" id="路径" stroke="url(#linearGradient-3)" transform="translate(296.000000, 27.555556) scale(1, -1) translate(-296.000000, -27.555556) "></path>
            <path d="M1,54.2222222 L1,9.85241334 C1,4.90199548 3.9073318,0.888888889 7.49370732,0.888888889 L186.79404,0.888888889 C189.918726,0.888888889 192.600359,3.96068096 193.176434,8.19987559 L201,54.2222222" id="路径" stroke="url(#linearGradient-5)" fill="url(#linearGradient-4)"></path>
        </g>
    </g>
</svg>