<?xml version="1.0" encoding="UTF-8"?>
<svg width="24px" height="24px" viewBox="0 0 24 24" version="1.1" xmlns="http://www.w3.org/2000/svg" xmlns:xlink="http://www.w3.org/1999/xlink">
    <title>icon/tihuanxulie</title>
    <g id="icon/tihuanxulie" stroke="none" stroke-width="1" fill="none" fill-rule="evenodd">
        <path d="M19.8,14 C19.9104569,14 20,14.0895431 20,14.2 L20,19.8 C20,19.9104569 19.9104569,20 19.8,20 L13.2,20 C13.0895431,20 13,19.9104569 13,19.8 L13,14.2 C13,14.0895431 13.0895431,14 13.2,14 L19.8,14 Z M6,12 C6,14.9730632 8.16238395,17.4410745 11.0001915,17.9170737 L11.0000487,19.9381123 C7.13435344,19.456091 4.12517261,16.2160132 4.00380682,12.2491793 L4,12 L6,12 Z M13.0009551,4.06201291 C16.8661675,4.5444699 19.8748379,7.78433021 19.9961932,11.7508207 L20,12 L18,12 C18,9.02728549 15.8381232,6.55950437 13.0008069,6.08309386 L13.0009551,4.06201291 Z M10.8,4 C10.9104569,4 11,4.08954305 11,4.2 L11,9.8 C11,9.91045695 10.9104569,10 10.8,10 L4.2,10 C4.08954305,10 4,9.91045695 4,9.8 L4,4.2 C4,4.08954305 4.08954305,4 4.2,4 L10.8,4 Z" id="形状结合" fill="#C9D3E6"></path>
    </g>
</svg>