<?xml version="1.0" encoding="UTF-8"?>
<svg width="103px" height="21px" viewBox="0 0 103 21" version="1.1" xmlns="http://www.w3.org/2000/svg" xmlns:xlink="http://www.w3.org/1999/xlink">
    <title>uih-logo</title>
    <g id="控件" stroke="none" stroke-width="1" fill="none" fill-rule="evenodd">
        <g id="顶部导航" transform="translate(-273.000000, -22.000000)" fill="#FFFFFF" fill-rule="nonzero">
            <g id="uih-logo" transform="translate(273.000000, 22.000000)">
                <path d="M51.62,11.74 L51.62,13.04 L46.34,13.04 C45.63,13.04 45.53,13.61 45.53,14.2 L45.53,14.2 L45.53,17.53 C45.53,18.12 45.63,18.69 46.34,18.69 L46.34,18.69 L49.07,18.69 L49.07,16.37 L47.39,16.37 L47.39,15.05 L51.62,15.05 L51.62,20.05 L46.04,20.05 C42.98,20.05 42.98,18.19 42.98,17.4 L42.98,17.4 L42.98,14.4 C42.98,13.61 42.98,11.77 46.04,11.77 L46.04,11.77 L51.62,11.74 Z M76.4,11.74 L76.4,13.04 L71.12,13.04 C70.41,13.04 70.31,13.61 70.31,14.2 L70.31,14.2 L70.31,17.53 C70.31,18.12 70.41,18.69 71.12,18.69 L71.12,18.69 L73.85,18.69 L73.85,16.37 L72.17,16.37 L72.17,15.05 L76.4,15.05 L76.4,20.05 L70.82,20.05 C67.9205556,20.05 67.7594753,18.3909259 67.7505264,17.5410717 L67.7505264,14.2591067 C67.7594753,13.4112346 67.9205556,11.77 70.82,11.77 L70.82,11.77 L76.4,11.74 Z M39.45,11.78 L42.59,20.04 L39.52,20.04 L37.14,13.9 L34.83,20.04 L32.89,20.04 L36.03,11.78 L39.45,11.78 Z M55.88,11.78 L55.88,20.04 L53.42,20.04 L53.42,11.78 L55.88,11.78 Z M60.93,11.78 L64.26,17.14 L64.26,11.78 L66.26,11.78 L66.26,20.04 L63.2,20.04 L59.78,14.53 L59.78,20.04 L57.78,20.04 L57.78,11.78 L60.93,11.78 Z M24.18,11.78 L26.46,17.04 L28.93,11.78 L31.93,11.78 L31.93,20.04 L29.43,20.04 L29.43,14.54 L26.85,20.04 L25.12,20.04 L22.76,14.53 L22.76,20.04 L21.05,20.04 L21.09,11.78 L24.18,11.78 Z M19.39,11.78 L19.39,20.04 L16.91,20.04 L16.91,11.78 L19.39,11.78 Z M102.72,8.04 L102.72,12.04 C102.697259,13.6873037 101.969025,15.2457261 100.72,16.32 C99.2780689,17.5512623 97.4809499,18.2904282 95.59,18.43 L95.59,18.43 L95.54,8.04 L102.72,8.04 Z M93.78,0.2 L93.78,18.43 C91.8820726,18.294606 90.0773321,17.5551881 88.63,16.32 C87.3809755,15.2457261 86.6527407,13.6873037 86.63,12.04 L86.63,12.04 L86.63,0.2 L93.78,0.2 Z M72.8,4.81 L72.8,6.76 L70.34,6.76 L70.34,8.48 L68.96,8.48 L68.96,6.76 L66.52,6.76 L66.52,4.81 L72.8,4.81 Z M68.25,7.03 L67.8,8.44 L66.4,8.44 L66.84,7.03 L68.25,7.03 Z M72.45,7.03 L72.87,8.44 L71.51,8.44 L71.04,7.03 L72.45,7.03 Z M3.05,0.2 L3.05,5.98 C3.05,6.57 3.17,7.13 3.86,7.13 L3.86,7.13 L5.95,7.13 C6.66,7.13 6.78,6.57 6.78,5.98 L6.78,5.98 L6.78,0.2 L9.32,0.2 L9.31947359,5.95089335 C9.31052469,6.79876543 9.14944444,8.44 6.25,8.44 L6.25,8.44 L3.57,8.44 C0.670555556,8.44 0.509475309,6.79876543 0.500526406,5.95089335 L0.5,0.2 L3.05,0.2 Z M23.55,0.2 L23.55,8.44 L21.07,8.44 L21.07,0.2 L23.55,0.2 Z M48.72,0.2 C51.77,0.2 51.78,2.03 51.78,2.81 L51.78,2.81 L51.78,5.81 C51.78,6.6 51.72,8.44 48.72,8.44 L48.72,8.44 L42.95,8.44 L42.95,0.2 Z M41.18,0.2 L41.18,1.5 L36.63,1.5 L36.63,3.65 L40.9,3.65 L40.9,4.97 L36.63,4.97 L36.63,7.13 L41.4,7.13 L41.4,8.44 L34.07,8.44 L34.07,0.2 L41.18,0.2 Z M14.08,0.2 L17.4,5.54 L17.4,0.2 L19.4,0.2 L19.4,8.44 L16.4,8.44 L12.99,2.95 L12.99,8.44 L10.99,8.44 L10.99,0.2 L14.08,0.2 Z M61.14,0.2 L61.46,1.34 L63.04,1.34 L63.35,0.2 L64.76,0.2 L64.44,1.34 L64.85,1.34 L64.85,2.07 L62.88,2.07 L62.88,4.26 L64.9,4.26 L64.9,5 L63.3,5 L64.85,8.44 L63.43,8.44 L62.16,5.79 L60.92,8.44 L59.5,8.44 L61.09,5 L59.55,5 L59.55,4.26 L61.56,4.26 L61.56,2.07 L59.61,2.07 L59.61,1.34 L60.13,1.34 L59.83,0.2 L61.14,0.2 Z M76.4,5.9 L76.4,7.31 L73.38,8.44 L73.38,7.06 L76.4,5.9 Z M32.79,0.2 L32.79,1.5 L30.01,1.5 L30.01,8.44 L27.44,8.44 L27.44,1.5 L24.7,1.5 L24.7,0.2 L32.79,0.2 Z M59.39,0.18 L59.39,0.9 L59.1,0.9 L59.1,8.42 L57.82,8.42 L57.82,7.73 L54.89,8.1 L54.89,7.33 L55.19,7.33 L55.19,0.92 L54.85,0.92 L54.85,0.2 L59.39,0.18 Z M57.85,5.39 L56.5,5.39 L56.5,7.16 L57.85,6.99 L57.85,5.39 Z M48.41,1.5 L45.5,1.5 L45.5,7.13 L48.41,7.13 C49.1,7.13 49.22,6.57 49.22,5.98 L49.22,5.98 L49.22,2.66 C49.22,2.07 49.1,1.5 48.41,1.5 L48.41,1.5 Z M102.77,0.2 L102.77,6.29 L95.59,6.29 L95.59,0.2 L102.77,0.2 Z M71.27,5.43 L68.03,5.43 L68.03,6.1 L71.27,6.1 L71.27,5.43 Z M76.4,3.03 L76.4,4.48 L73.38,5.62 L73.38,4.19 L76.4,3.03 Z M57.85,3.2 L56.5,3.2 L56.5,4.75 L57.85,4.75 L57.85,3.2 Z M72.8,0.2 L72.8,3.1 L70.34,3.1 L70.34,3.68 L72.9,3.68 L72.9,4.37 L66.43,4.37 L66.43,3.68 L68.99,3.68 L68.99,3.1 L66.55,3.1 L66.55,0.2 L72.8,0.2 Z M76.4,0.2 L76.4,1.61 L73.38,2.76 L73.38,1.35 L76.4,0.2 Z M57.85,0.92 L56.5,0.92 L56.5,2.56 L57.85,2.56 L57.85,0.92 Z M71.29,1.97 L68.05,1.97 L68.05,2.53 L71.29,2.53 L71.29,1.97 Z M71.3,0.84 L68.05,0.84 L68.05,1.38 L71.3,1.38 L71.3,0.84 Z" id="形状结合"></path>
            </g>
        </g>
    </g>
</svg>