<?xml version="1.0" encoding="UTF-8"?>
<svg width="40px" height="40px" viewBox="0 0 40 40" version="1.1" xmlns="http://www.w3.org/2000/svg" xmlns:xlink="http://www.w3.org/1999/xlink">
    <title>icon/vrt</title>
    <defs>
        <filter x="0.0%" y="0.0%" width="100.0%" height="100.0%" filterUnits="objectBoundingBox" id="filter-1">
            <feGaussianBlur stdDeviation="0" in="SourceGraphic"></feGaussianBlur>
        </filter>
        <path d="M11.203125,27 L15.453125,15.546875 L11.859375,15.546875 L9.3203125,23.7890625 L6.7421875,15.546875 L3.0390625,15.546875 L7.3671875,27 L11.203125,27 Z M19.41875,27 L19.41875,22.3515625 L19.73125,22.3515625 C20.0541667,22.3515625 20.3432292,22.4401042 20.5984375,22.6171875 C20.7859375,22.7526042 20.9994792,23.046875 21.2390625,23.5 L21.2390625,23.5 L23.1296875,27 L27.1296875,27 L25.41875,23.6796875 C25.3354167,23.5130208 25.1700521,23.2760417 24.9226562,22.96875 C24.6752604,22.6614583 24.4864583,22.4609375 24.35625,22.3671875 C24.1635417,22.2265625 23.85625,22.0859375 23.434375,21.9453125 C23.9604167,21.8255208 24.3744792,21.6744792 24.6765625,21.4921875 C25.1505208,21.2057292 25.5229167,20.8320312 25.79375,20.3710938 C26.0645833,19.9101562 26.2,19.3619792 26.2,18.7265625 C26.2,17.9973958 26.0229167,17.3789062 25.66875,16.8710938 C25.3145833,16.3632812 24.8484375,16.015625 24.2703125,15.828125 C23.6921875,15.640625 22.85625,15.546875 21.7625,15.546875 L21.7625,15.546875 L15.8640625,15.546875 L15.8640625,27 L19.41875,27 Z M20.9109375,20.1875 L19.41875,20.1875 L19.41875,17.859375 L20.9734375,17.859375 C21.6192708,17.859375 22.059375,17.9583333 22.29375,18.15625 C22.528125,18.3541667 22.6453125,18.6380208 22.6453125,19.0078125 C22.6453125,19.2578125 22.5710937,19.4791667 22.4226562,19.671875 C22.2742187,19.8645833 22.0828125,19.984375 21.8484375,20.03125 C21.3848958,20.1354167 21.0723958,20.1875 20.9109375,20.1875 L20.9109375,20.1875 Z M33.665625,27 L33.665625,18.375 L37.275,18.375 L37.275,15.546875 L26.5171875,15.546875 L26.5171875,18.375 L30.1265625,18.375 L30.1265625,27 L33.665625,27 Z" id="path-2"></path>
        <filter x="-24.8%" y="-56.8%" width="149.7%" height="248.4%" filterUnits="objectBoundingBox" id="filter-3">
            <feOffset dx="0" dy="2" in="SourceAlpha" result="shadowOffsetOuter1"></feOffset>
            <feGaussianBlur stdDeviation="2.5" in="shadowOffsetOuter1" result="shadowBlurOuter1"></feGaussianBlur>
            <feComposite in="shadowBlurOuter1" in2="SourceAlpha" operator="out" result="shadowBlurOuter1"></feComposite>
            <feColorMatrix values="0 0 0 0 0.0235619438   0 0 0 0 0.0407606734   0 0 0 0 0.0808910425  0 0 0 0.6 0" type="matrix" in="shadowBlurOuter1"></feColorMatrix>
        </filter>
        <filter x="-24.8%" y="-56.8%" width="149.7%" height="248.4%" filterUnits="objectBoundingBox" id="filter-4">
            <feGaussianBlur stdDeviation="2.5" in="SourceAlpha" result="shadowBlurInner1"></feGaussianBlur>
            <feOffset dx="0" dy="2" in="shadowBlurInner1" result="shadowOffsetInner1"></feOffset>
            <feComposite in="shadowOffsetInner1" in2="SourceAlpha" operator="arithmetic" k2="-1" k3="1" result="shadowInnerInner1"></feComposite>
            <feColorMatrix values="0 0 0 0 0.988235294   0 0 0 0 0.988235294   0 0 0 0 0.992156863  0 0 0 0.39809263 0" type="matrix" in="shadowInnerInner1"></feColorMatrix>
        </filter>
    </defs>
    <g id="icon/vrt" stroke="none" stroke-width="1" fill="none" fill-rule="evenodd">
        <path d="M10.6679687,26.6322327 L14.9093781,16.1959305 L12.2140656,16.1959305 L9.55859375,23.421875 C9.42317708,23.8541667 9.33463542,24.2630208 9.29296875,24.6484375 L9.24609375,24.6484375 C9.21484375,24.2734375 9.13411458,23.875 9.00390625,23.453125 L6.38214493,16.1959305 L3.65558243,16.1959305 L7.80401993,26.6322327 L10.6679687,26.6322327 Z M19.2024384,26.6322327 L19.2024384,22.3125 L19.9836884,22.3125 C20.2649384,22.3125 20.5305634,22.40625 20.7805634,22.59375 C21.0305634,22.78125 21.3508759,23.2005208 21.7415009,23.8515625 L23.6399384,26.6322327 L26.6086884,26.6322327 L24.3274384,23.4140625 C23.650355,22.3723958 23.0331675,21.7578125 22.4758759,21.5703125 L22.4758759,21.5390625 C23.3196259,21.2994792 23.9823863,20.8854167 24.4641571,20.296875 C24.9459279,19.7083333 25.1868134,19.0026042 25.1868134,18.1796875 C25.1868134,15.9921875 23.7467092,15.802721 20.8665009,15.802721 L16.6243134,15.802721 L16.6243134,26.6322327 L19.2024384,26.6322327 Z M19.2024384,20.3437641 L19.2024384,17.5699406 L20.5149384,17.5699406 C21.82223,17.5699406 22.7438011,17.9296875 22.7438011,19.0234375 C22.7438011,19.5494792 22.4144058,19.6484375 22.0472183,20 C21.6800308,20.3515625 21.07223,20.3437641 20.4680634,20.3437641 L19.2024384,20.3437641 Z M33.1470566,26.4131622 L33.1470566,18.0885315 L36.6001816,18.0885315 L36.6001816,15.9791565 L27.1158066,15.9791565 L27.1158066,18.0885315 L30.5611191,18.0885315 L30.5611191,26.4131622 L33.1470566,26.4131622 Z" id="VRT" fill="#A2C2FF" filter="url(#filter-1)"></path>
        <g id="VRT">
            <use fill="black" fill-opacity="1" filter="url(#filter-3)" xlink:href="#path-2"></use>
            <use fill-opacity="0.6" fill="#3E4A62" fill-rule="evenodd" xlink:href="#path-2"></use>
            <use fill="black" fill-opacity="1" filter="url(#filter-4)" xlink:href="#path-2"></use>
        </g>
    </g>
</svg>