<?xml version="1.0" encoding="UTF-8"?>
<svg width="40px" height="40px" viewBox="0 0 40 40" version="1.1" xmlns="http://www.w3.org/2000/svg" xmlns:xlink="http://www.w3.org/1999/xlink">
    <title>icon/zidongshibie</title>
    <g id="icon/zidongshibie" stroke="none" stroke-width="1" fill="none" fill-rule="evenodd">
        <path d="M34,26 L34,34 L26,34 L26,32 L32,32 L32,26 L34,26 Z M8,26 L8,32 L14,32 L14,34 L6,34 L6,26 L8,26 Z M21.9573044,14 C22.0239558,14 22.0850219,14.0330545 22.12179,14.086206 L22.1445177,14.1296354 L26.8369501,26.614401 C26.8454053,26.6368971 26.8497368,26.660733 26.8497368,26.6847656 C26.8497368,26.7768131 26.7875541,26.854337 26.7029047,26.8776214 L26.6497368,26.8847656 L22.9217118,26.8847656 C22.8509197,26.8847656 22.7868599,26.8475491 22.7511475,26.7892368 L22.7300162,26.741799 L22.1822748,24.9007791 C22.1620872,24.8329265 22.1081482,24.7821394 22.0420732,24.7645387 L21.9905792,24.7578125 L17.7543353,24.7578125 C17.6833182,24.7578125 17.6190998,24.7952618 17.5834577,24.8538542 L17.5624244,24.9015081 L17.0227182,26.7410701 C17.0027253,26.8092149 16.9487117,26.8602932 16.882455,26.8779987 L16.8308072,26.8847656 L13.2000542,26.8847656 C13.1760216,26.8847656 13.1521857,26.8804342 13.1296896,26.8719789 C13.043527,26.8395945 12.9928368,26.7541127 13.0008226,26.6666832 L13.0128409,26.614401 L17.7052733,14.1296354 C17.7287228,14.0672453 17.7811485,14.0217127 17.8438377,14.0059953 L17.8924866,14 L21.9573044,14 Z M19.7126357,17.9152381 L19.6902691,17.9639987 L18.5448636,21.7132452 C18.5390778,21.7321839 18.5361367,21.7518769 18.5361367,21.7716797 C18.5361367,21.8637271 18.5983194,21.9412511 18.6829688,21.9645355 L18.7361367,21.9716797 L21.034062,21.9716797 C21.0539811,21.9716797 21.0737884,21.968704 21.0928282,21.9628512 C21.1808124,21.9358048 21.2366431,21.8535881 21.234027,21.7658336 L21.2252335,21.7129135 L20.0727137,17.963667 C20.053205,17.9002036 20.0034738,17.8505586 19.9399767,17.83116 C19.8519457,17.8042663 19.7596364,17.8410853 19.7126357,17.9152381 Z M34,6 L34,14 L32,14 L32,8 L26,8 L26,6 L34,6 Z M14,6 L14,8 L8,8 L8,14 L6,14 L6,6 L14,6 Z" id="形状结合" fill="#C9D3E6"></path>
    </g>
</svg>