<?xml version="1.0" encoding="UTF-8"?>
<svg width="24px" height="24px" viewBox="0 0 24 24" version="1.1" xmlns="http://www.w3.org/2000/svg" xmlns:xlink="http://www.w3.org/1999/xlink">
    <title>icon/dianjizhengaoliang</title>
    <defs>
        <linearGradient x1="100%" y1="50%" x2="0%" y2="50%" id="linearGradient-1">
            <stop stop-color="#E4EDFE" offset="0%"></stop>
            <stop stop-color="#BCC6DA" offset="14.7120476%"></stop>
            <stop stop-color="#A7B4CC" offset="30.1579475%"></stop>
            <stop stop-color="#E4EDFE" offset="48.8929749%"></stop>
            <stop stop-color="#A7B4CC" offset="67.1824455%"></stop>
            <stop stop-color="#C9D3E6" offset="84.308815%"></stop>
            <stop stop-color="#BCC6DA" offset="100%"></stop>
        </linearGradient>
        <rect id="path-2" x="10.9150635" y="8.24519053" width="5" height="3"></rect>
        <filter x="-70.0%" y="-83.3%" width="240.0%" height="333.3%" filterUnits="objectBoundingBox" id="filter-3">
            <feOffset dx="0" dy="1" in="SourceAlpha" result="shadowOffsetOuter1"></feOffset>
            <feGaussianBlur stdDeviation="1" in="shadowOffsetOuter1" result="shadowBlurOuter1"></feGaussianBlur>
            <feComposite in="shadowBlurOuter1" in2="SourceAlpha" operator="out" result="shadowBlurOuter1"></feComposite>
            <feColorMatrix values="0 0 0 0 0   0 0 0 0 0   0 0 0 0 0  0 0 0 0.143711757 0" type="matrix" in="shadowBlurOuter1"></feColorMatrix>
        </filter>
        <polygon id="path-4" points="9.5 11.5262794 13.830127 14.0262794 12.330127 16.6243557 8 14.1243557"></polygon>
        <filter x="-60.0%" y="-49.0%" width="220.1%" height="237.3%" filterUnits="objectBoundingBox" id="filter-5">
            <feOffset dx="0" dy="1" in="SourceAlpha" result="shadowOffsetOuter1"></feOffset>
            <feGaussianBlur stdDeviation="1" in="shadowOffsetOuter1" result="shadowBlurOuter1"></feGaussianBlur>
            <feComposite in="shadowBlurOuter1" in2="SourceAlpha" operator="out" result="shadowBlurOuter1"></feComposite>
            <feColorMatrix values="0 0 0 0 0   0 0 0 0 0   0 0 0 0 0  0 0 0 0.143711757 0" type="matrix" in="shadowBlurOuter1"></feColorMatrix>
        </filter>
        <polygon id="path-6" points="7 15.8564065 11.330127 18.3564065 9.83012702 20.9544827 5.5 18.4544827"></polygon>
        <filter x="-60.0%" y="-49.0%" width="220.1%" height="237.3%" filterUnits="objectBoundingBox" id="filter-7">
            <feOffset dx="0" dy="1" in="SourceAlpha" result="shadowOffsetOuter1"></feOffset>
            <feGaussianBlur stdDeviation="1" in="shadowOffsetOuter1" result="shadowBlurOuter1"></feGaussianBlur>
            <feComposite in="shadowBlurOuter1" in2="SourceAlpha" operator="out" result="shadowBlurOuter1"></feComposite>
            <feColorMatrix values="0 0 0 0 0   0 0 0 0 0   0 0 0 0 0  0 0 0 0.143711757 0" type="matrix" in="shadowBlurOuter1"></feColorMatrix>
        </filter>
    </defs>
    <g id="icon/dianjizhengaoliang" stroke="none" stroke-width="1" fill="none" fill-rule="evenodd">
        <rect id="矩形" fill="url(#linearGradient-1)" transform="translate(11.665064, 12.776279) rotate(-330.000000) translate(-11.665064, -12.776279) " x="9.16506351" y="1.77627944" width="5" height="22" rx="0.2"></rect>
        <g id="矩形" transform="translate(13.415064, 9.745191) rotate(-330.000000) translate(-13.415064, -9.745191) ">
            <use fill="black" fill-opacity="1" filter="url(#filter-3)" xlink:href="#path-2"></use>
            <use fill-opacity="0.704772522" fill="#04856F" fill-rule="evenodd" xlink:href="#path-2"></use>
        </g>
        <g id="矩形备份-10">
            <use fill="black" fill-opacity="1" filter="url(#filter-5)" xlink:href="#path-4"></use>
            <use fill-opacity="0.704772522" fill="#04856F" fill-rule="evenodd" xlink:href="#path-4"></use>
        </g>
        <g id="矩形备份-11">
            <use fill="black" fill-opacity="1" filter="url(#filter-7)" xlink:href="#path-6"></use>
            <use fill-opacity="0.704772522" fill="#04856F" fill-rule="evenodd" xlink:href="#path-6"></use>
        </g>
        <path d="M18,17 C20.209139,17 22,19.2640915 22,20 C22,20.7359085 20.209139,23 18,23 C15.790861,23 14,20.6688137 14,20 C14,19.3311863 15.790861,17 18,17 Z M18,18.5 C17.1715729,18.5 16.5,19.1715729 16.5,20 C16.5,20.8284271 17.1715729,21.5 18,21.5 C18.8284271,21.5 19.5,20.8284271 19.5,20 C19.5,19.1715729 18.8284271,18.5 18,18.5 Z M18,19.5 C18.2761424,19.5 18.5,19.7238576 18.5,20 C18.5,20.2761424 18.2761424,20.5 18,20.5 C17.7238576,20.5 17.5,20.2761424 17.5,20 C17.5,19.7238576 17.7238576,19.5 18,19.5 Z" id="形状结合" fill="#69D8C6" fill-rule="nonzero"></path>
    </g>
</svg>