<?xml version="1.0" encoding="UTF-8"?>
<svg width="24px" height="24px" viewBox="0 0 24 24" version="1.1" xmlns="http://www.w3.org/2000/svg" xmlns:xlink="http://www.w3.org/1999/xlink">
    <title>icon/dianjizhen</title>
    <defs>
        <linearGradient x1="100%" y1="50%" x2="0%" y2="50%" id="linearGradient-1">
            <stop stop-color="#E4EDFE" offset="0%"></stop>
            <stop stop-color="#BCC6DA" offset="14.7120476%"></stop>
            <stop stop-color="#A7B4CC" offset="30.1579475%"></stop>
            <stop stop-color="#E4EDFE" offset="48.8929749%"></stop>
            <stop stop-color="#A7B4CC" offset="67.1824455%"></stop>
            <stop stop-color="#C9D3E6" offset="84.308815%"></stop>
            <stop stop-color="#BCC6DA" offset="100%"></stop>
        </linearGradient>
        <rect id="path-2" x="10.9150635" y="8.24519053" width="5" height="3"></rect>
        <filter x="-40.0%" y="-33.3%" width="180.0%" height="233.3%" filterUnits="objectBoundingBox" id="filter-3">
            <feOffset dx="0" dy="1" in="SourceAlpha" result="shadowOffsetOuter1"></feOffset>
            <feGaussianBlur stdDeviation="0.5" in="shadowOffsetOuter1" result="shadowBlurOuter1"></feGaussianBlur>
            <feComposite in="shadowBlurOuter1" in2="SourceAlpha" operator="out" result="shadowBlurOuter1"></feComposite>
            <feColorMatrix values="0 0 0 0 0   0 0 0 0 0   0 0 0 0 0  0 0 0 0.199792395 0" type="matrix" in="shadowBlurOuter1"></feColorMatrix>
        </filter>
        <rect id="path-4" x="8.41506351" y="12.5753175" width="5" height="3"></rect>
        <filter x="-40.0%" y="-33.3%" width="180.0%" height="233.3%" filterUnits="objectBoundingBox" id="filter-5">
            <feOffset dx="0" dy="1" in="SourceAlpha" result="shadowOffsetOuter1"></feOffset>
            <feGaussianBlur stdDeviation="0.5" in="shadowOffsetOuter1" result="shadowBlurOuter1"></feGaussianBlur>
            <feComposite in="shadowBlurOuter1" in2="SourceAlpha" operator="out" result="shadowBlurOuter1"></feComposite>
            <feColorMatrix values="0 0 0 0 0   0 0 0 0 0   0 0 0 0 0  0 0 0 0.199792395 0" type="matrix" in="shadowBlurOuter1"></feColorMatrix>
        </filter>
        <rect id="path-6" x="5.91506351" y="16.9054446" width="5" height="3"></rect>
        <filter x="-40.0%" y="-33.3%" width="180.0%" height="233.3%" filterUnits="objectBoundingBox" id="filter-7">
            <feOffset dx="0" dy="1" in="SourceAlpha" result="shadowOffsetOuter1"></feOffset>
            <feGaussianBlur stdDeviation="0.5" in="shadowOffsetOuter1" result="shadowBlurOuter1"></feGaussianBlur>
            <feComposite in="shadowBlurOuter1" in2="SourceAlpha" operator="out" result="shadowBlurOuter1"></feComposite>
            <feColorMatrix values="0 0 0 0 0   0 0 0 0 0   0 0 0 0 0  0 0 0 0.199792395 0" type="matrix" in="shadowBlurOuter1"></feColorMatrix>
        </filter>
    </defs>
    <g id="icon/dianjizhen" stroke="none" stroke-width="1" fill="none" fill-rule="evenodd">
        <rect id="矩形" fill="url(#linearGradient-1)" transform="translate(11.665064, 12.776279) rotate(-330.000000) translate(-11.665064, -12.776279) " x="9.16506351" y="1.77627944" width="5" height="22" rx="0.2"></rect>
        <g id="矩形" transform="translate(13.415064, 9.745191) rotate(-330.000000) translate(-13.415064, -9.745191) ">
            <use fill="black" fill-opacity="1" filter="url(#filter-3)" xlink:href="#path-2"></use>
            <use fill-opacity="0.704851057" fill="#FFFFFF" fill-rule="evenodd" xlink:href="#path-2"></use>
        </g>
        <g id="矩形备份-10" transform="translate(10.915064, 14.075318) rotate(-330.000000) translate(-10.915064, -14.075318) ">
            <use fill="black" fill-opacity="1" filter="url(#filter-5)" xlink:href="#path-4"></use>
            <use fill-opacity="0.704851057" fill="#FFFFFF" fill-rule="evenodd" xlink:href="#path-4"></use>
        </g>
        <g id="矩形备份-11" transform="translate(8.415064, 18.405445) rotate(-330.000000) translate(-8.415064, -18.405445) ">
            <use fill="black" fill-opacity="1" filter="url(#filter-7)" xlink:href="#path-6"></use>
            <use fill-opacity="0.704851057" fill="#FFFFFF" fill-rule="evenodd" xlink:href="#path-6"></use>
        </g>
        <path d="M14.7224824,17.7108372 C14.7320778,17.7230836 14.7407832,17.7340554 14.7485985,17.7437527 C15.5649324,18.7566489 16.6288183,19.25 18,19.25 C19.3692335,19.25 20.432032,18.7641862 21.2472012,17.7681884 L21.2772622,17.7295519 C21.3439402,17.643853 21.4668169,17.6270113 21.5540947,17.6916088 L22.4659609,18.366514 C22.5405688,18.4217679 22.5562892,18.5270371 22.5010572,18.6016612 L22.4997347,18.6034237 L22.4983892,18.6051688 C22.1873874,19.0031095 21.8442083,19.3463743 21.4702624,19.6343786 L22.3622266,20.674684 C22.43413,20.7585329 22.4244462,20.8847951 22.3405972,20.9566985 L21.5055765,21.6727574 C21.4217276,21.7446607 21.2954654,21.7349769 21.223562,21.651128 L20.1337701,20.3806497 C19.6942075,20.5469807 19.2254269,20.6574213 18.7288384,20.7113872 L18.7471227,22.0448922 C18.7486711,22.1553383 18.6603921,22.2461278 18.549946,22.2476761 L18.549946,22.2476761 L17.450054,22.263096 C17.3396079,22.2646443 17.2488185,22.1763653 17.2472701,22.0659192 L17.2472701,22.0659192 L17.2279114,20.7061205 C16.7371005,20.6488105 16.2736909,20.5354653 15.8390643,20.3666906 L14.7376292,21.651128 C14.6657258,21.7349769 14.5394636,21.7446607 14.4556147,21.6727574 L13.6205939,20.9566985 C13.536745,20.8847951 13.5270612,20.7585329 13.5989645,20.674684 L14.5121174,19.610115 C14.1671946,19.3396455 13.8486499,19.0215034 13.5576057,18.6561807 L13.5187105,18.6052469 C13.4516723,18.5174596 13.4684928,18.3919487 13.5562801,18.3249105 C13.557351,18.3240927 13.5584301,18.3232858 13.5595173,18.3224898 L14.4470346,17.6727134 C14.5341336,17.6091493 14.6559796,17.6259609 14.7224824,17.7108372 Z" id="形状结合" fill="#C9D3E6"></path>
    </g>
</svg>