<?xml version="1.0" encoding="UTF-8"?>
<svg width="40px" height="40px" viewBox="0 0 40 40" version="1.1" xmlns="http://www.w3.org/2000/svg" xmlns:xlink="http://www.w3.org/1999/xlink">
    <title>icon/kuaisudingweiT</title>
    <g id="icon/kuaisudingweiT" stroke="none" stroke-width="1" fill="none" fill-rule="evenodd">
        <path d="M28.8,12 C28.9104569,12 29,12.0895431 29,12.2 L29,13.8 C29,13.9104569 28.9104569,14 28.8,14 L26,14 L26,19.8 C26,19.9104569 25.9104569,20 25.8,20 L24.2,20 C24.0895431,20 24,19.9104569 24,19.8 L24,14 L21.2,14 C21.0895431,14 21,13.9104569 21,13.8 L21,12.2 C21,12.0895431 21.0895431,12 21.2,12 L28.8,12 Z M13.8,3 C13.9104569,3 14,3.08954305 14,3.2 L14.0007613,6.12621352 C15.406088,6.48821631 16.5123973,7.59477429 16.8740452,9.00024347 L19.8,9 C19.9104569,9 20,9.08954305 20,9.2 L20,10.8 C20,10.9104569 19.9104569,11 19.8,11 L16.8737865,11.0007613 C16.51187,12.4057531 15.4057531,13.51187 14.0007613,13.8737865 L14,16.8 C14,16.9104569 13.9104569,17 13.8,17 L12.2,17 C12.0895431,17 12,16.9104569 12,16.8 L12.0002435,13.8740452 C10.5944393,13.5123111 9.4876889,12.4055607 9.12595483,10.9997565 L6.2,11 C6.08954305,11 6,10.9104569 6,10.8 L6,9.2 C6,9.08954305 6.08954305,9 6.2,9 L9.12621352,8.99923866 C9.48821631,7.59391198 10.5947743,6.48760271 12.0002435,6.12595483 L12,3.2 C12,3.08954305 12.0895431,3 12.2,3 L13.8,3 Z M12,10.999 L10.7079455,10.9998252 C10.9599339,11.5766859 11.4233141,12.0400661 12.0001748,12.2920545 L12,10.999 Z M15.2916153,11.00083 L14,11 L14.00083,12.2916153 C14.5768891,12.0396744 15.0396744,11.5768891 15.2916153,11.00083 Z M14.00083,7.70838468 L14,9 L15.2920545,9.00017484 C15.0402124,8.42364913 14.577224,7.96047212 14.00083,7.70838468 Z M10.7083847,8.99916997 L12,8.999 L12.0001748,7.70794546 C11.4236491,7.95978756 10.9604721,8.42277602 10.7083847,8.99916997 Z" id="形状结合" fill="#C9D3E6"></path>
        <path d="M25,23 C29.3349143,23 32.8645429,26.4478378 32.9961932,30.7508207 L33,31 L31,31 C31,27.6862915 28.3137085,25 25,25 C21.7616031,25 19.1224282,27.5655749 19.0041385,30.7750617 L19,31 L17,31 C17,26.581722 20.581722,23 25,23 Z" id="路径备份" fill-opacity="0.5" fill="#C9D3E6"></path>
        <rect id="矩形备份-10" stroke="#C9D3E6" fill-opacity="0.5" fill="#C9D3E6" x="16.5" y="29.5" width="3" height="3" rx="0.2"></rect>
        <rect id="矩形备份-11" stroke="#C9D3E6" fill-opacity="0.5" fill="#C9D3E6" x="30.5" y="29.5" width="3" height="3" rx="0.2"></rect>
        <rect id="矩形备份-12" stroke="#C9D3E6" fill-opacity="0.5" fill="#C9D3E6" x="23.5" y="22.5" width="3" height="3" rx="0.2"></rect>
    </g>
</svg>