<?xml version="1.0" encoding="UTF-8"?>
<svg width="40px" height="40px" viewBox="0 0 40 40" version="1.1" xmlns="http://www.w3.org/2000/svg" xmlns:xlink="http://www.w3.org/1999/xlink">
    <title>icon/putongshijiao</title>
    <g id="icon/putongshijiao" stroke="none" stroke-width="1" fill="none" fill-rule="evenodd">
        <path d="M31.8,26 C31.9104569,26 32,26.0895431 32,26.2 L32,31.8 C32,31.9104569 31.9104569,32 31.8,32 L26.2,32 C26.0895431,32 26,31.9104569 26,31.8 L26,30.2 C26,30.0895431 26.0895431,30 26.2,30 L30,30 L30,26.2 C30,26.0895431 30.0895431,26 30.2,26 L31.8,26 Z M9.8,26 C9.91045695,26 10,26.0895431 10,26.2 L10,26.2 L10,30 L13.8,30 C13.9104569,30 14,30.0895431 14,30.2 L14,30.2 L14,31.8 C14,31.9104569 13.9104569,32 13.8,32 L13.8,32 L8.2,32 C8.08954305,32 8,31.9104569 8,31.8 L8,31.8 L8,26.2 C8,26.0895431 8.08954305,26 8.2,26 L8.2,26 Z M20.8,22 C20.9104569,22 21,22.0895431 21,22.2 L21,27.8 C21,27.9104569 20.9104569,28 20.8,28 L19.2,28 C19.0895431,28 19,27.9104569 19,27.8 L19,22.2 C19,22.0895431 19.0895431,22 19.2,22 L20.8,22 Z M17.8,19 C17.9104569,19 18,19.0895431 18,19.2 L18,20.8 C18,20.9104569 17.9104569,21 17.8,21 L12.2,21 C12.0895431,21 12,20.9104569 12,20.8 L12,19.2 C12,19.0895431 12.0895431,19 12.2,19 L17.8,19 Z M27.8,19 C27.9104569,19 28,19.0895431 28,19.2 L28,20.8 C28,20.9104569 27.9104569,21 27.8,21 L22.2,21 C22.0895431,21 22,20.9104569 22,20.8 L22,19.2 C22,19.0895431 22.0895431,19 22.2,19 L27.8,19 Z M20.8,12 C20.9104569,12 21,12.0895431 21,12.2 L21,17.8 C21,17.9104569 20.9104569,18 20.8,18 L19.2,18 C19.0895431,18 19,17.9104569 19,17.8 L19,12.2 C19,12.0895431 19.0895431,12 19.2,12 L20.8,12 Z M31.8,8 C31.9104569,8 32,8.08954305 32,8.2 L32,8.2 L32,13.8 C32,13.9104569 31.9104569,14 31.8,14 L31.8,14 L30.2,14 C30.0895431,14 30,13.9104569 30,13.8 L30,13.8 L30,10 L26.2,10 C26.0895431,10 26,9.91045695 26,9.8 L26,9.8 L26,8.2 C26,8.08954305 26.0895431,8 26.2,8 L26.2,8 Z M13.8,8 C13.9104569,8 14,8.08954305 14,8.2 L14,9.8 C14,9.91045695 13.9104569,10 13.8,10 L10,10 L10,13.8 C10,13.9104569 9.91045695,14 9.8,14 L8.2,14 C8.08954305,14 8,13.9104569 8,13.8 L8,8.2 C8,8.08954305 8.08954305,8 8.2,8 L13.8,8 Z" id="形状结合" fill="#C9D3E6"></path>
    </g>
</svg>