<?xml version="1.0" encoding="UTF-8"?>
<svg width="40px" height="40px" viewBox="0 0 40 40" version="1.1" xmlns="http://www.w3.org/2000/svg" xmlns:xlink="http://www.w3.org/1999/xlink">
    <title>icon/sheweiruludian</title>
    <g id="icon/sheweiruludian" stroke="none" stroke-width="1" fill="none" fill-rule="evenodd">
        <path d="M14.2,27 C14.0895431,27 14,26.9104569 14,26.8 L14,13 L14.2,13 C14.0895431,13 14,12.9104569 14,12.8 L14,11.2 C14,11.0895431 14.0895431,11 14.2,11 L25.8,11 C25.9104569,11 26,11.0895431 26,11.2 L26,12.8 C26,12.9104569 25.9104569,13 25.8,13 L16,13 L16,19 L25.8,19 C25.9104569,19 26,19.0895431 26,19.2 L26,20.8 C26,20.9104569 25.9104569,21 25.8,21 L16,21 L16,26.8 C16,26.9104569 15.9104569,27 15.8,27 L25.8,27 C25.9104569,27 26,27.0895431 26,27.2 L26,28.8 C26,28.9104569 25.9104569,29 25.8,29 L14.2,29 C14.0895431,29 14,28.9104569 14,28.8 L14,27.2 C14,27.0895431 14.0895431,27 14.2,27 L14.2,27 Z" id="形状结合" fill="#C9D3E6"></path>
    </g>
</svg>