<?xml version="1.0" encoding="UTF-8"?>
<svg width="40px" height="40px" viewBox="0 0 40 40" version="1.1" xmlns="http://www.w3.org/2000/svg" xmlns:xlink="http://www.w3.org/1999/xlink">
    <title>icon/xinzenglujin</title>
    <g id="icon/xinzenglujin" stroke="none" stroke-width="1" fill="none" fill-rule="evenodd">
        <path d="M11.9486588,23.8152795 C11.9817113,23.8520045 12,23.8996641 12,23.9490725 L12,26.9990708 L16.8,27 C16.9104569,27 17,27.0895431 17,27.2 L17,28.8 C17,28.9104569 16.9104569,29 16.8,29 L12,28.9990708 L12,32.0509275 C12,32.1613845 11.9104569,32.2509275 11.8,32.2509275 C11.7505916,32.2509275 11.702932,32.2326388 11.6662071,32.1995863 L7.16517648,28.1486588 C7.08307447,28.074767 7.07641879,27.9483091 7.15031059,27.8662071 C7.15500184,27.8609946 7.15996398,27.8560324 7.16517648,27.8513412 L11.6662071,23.8004137 C11.7483091,23.7265218 11.874767,23.7331775 11.9486588,23.8152795 Z M26,19 C29.3137085,19 32,21.6862915 32,25 C32,28.3137085 29.3137085,31 26,31 C22.6862915,31 20,28.3137085 20,25 C20,21.6862915 22.6862915,19 26,19 Z M26.8,22 L25.2,22 C25.1079525,22 25.0304286,22.0621827 25.0071442,22.1468321 L25,22.2 L25,24 L23.2,24 C23.1079525,24 23.0304286,24.0621827 23.0071442,24.1468321 L23,24.2 L23,25.8 C23,25.8920475 23.0621827,25.9695714 23.1468321,25.9928558 L23.2,26 L25,26 L25,27.8 C25,27.8920475 25.0621827,27.9695714 25.1468321,27.9928558 L25.2,28 L26.8,28 C26.8920475,28 26.9695714,27.9378173 26.9928558,27.8531679 L27,27.8 L27,26 L28.8,26 C28.8920475,26 28.9695714,25.9378173 28.9928558,25.8531679 L29,25.8 L29,24.2 C29,24.1079525 28.9378173,24.0304286 28.8531679,24.0071442 L28.8,24 L27,24 L27,22.2 C27,22.1079525 26.9378173,22.0304286 26.8531679,22.0071442 L26.8,22 Z M24.0513412,7.81527953 C24.125233,7.73317753 24.2516909,7.72652185 24.3337929,7.80041365 L24.3337929,7.80041365 L28.8348235,11.8513412 C28.840036,11.8560324 28.8449982,11.8609946 28.8496894,11.8662071 C28.9235812,11.9483091 28.9169255,12.074767 28.8348235,12.1486588 L28.8348235,12.1486588 L24.3337929,16.1995863 C24.297068,16.2326388 24.2494084,16.2509275 24.2,16.2509275 C24.0895431,16.2509275 24,16.1613845 24,16.0509275 L24,16.0509275 L24,12.9990708 L11.5,13 C9.54248439,13 8,14.3710972 8,16 C8,17.5727337 9.43794026,18.905135 11.2990251,18.9951547 L11.5,19 L18.3,19 C18.4104569,19 18.5,19.0895431 18.5,19.2 L18.5,20.8 C18.5,20.9104569 18.4104569,21 18.3,21 L11.5,21 C8.48695286,21 6,18.7893752 6,16 C6,13.2803591 8.36415957,11.110893 11.2750385,11.0041194 L11.5,11 L24,10.9990708 L24,7.94907248 C24,7.91613358 24.0081283,7.88397188 24.0233405,7.85530916 Z" id="形状结合" fill="#C9D3E6"></path>
    </g>
</svg>