<?xml version="1.0" encoding="UTF-8"?>
<svg width="40px" height="40px" viewBox="0 0 40 40" version="1.1" xmlns="http://www.w3.org/2000/svg" xmlns:xlink="http://www.w3.org/1999/xlink">
    <title>icon/zhendaoshijiao</title>
    <g id="icon/zhendaoshijiao" stroke="none" stroke-width="1" fill="none" fill-rule="evenodd">
        <path d="M31.8,26 C31.9104569,26 32,26.0895431 32,26.2 L32,31.8 C32,31.9104569 31.9104569,32 31.8,32 L26.2,32 C26.0895431,32 26,31.9104569 26,31.8 L26,30.2 C26,30.0895431 26.0895431,30 26.2,30 L30,30 L30,26.2 C30,26.0895431 30.0895431,26 30.2,26 L31.8,26 Z M9.8,26 C9.89204746,26 9.96957137,26.0621827 9.99285581,26.1468321 L10,26.2 L10,30 L13.8,30 C13.8920475,30 13.9695714,30.0621827 13.9928558,30.1468321 L14,30.2 L14,31.8 C14,31.8920475 13.9378173,31.9695714 13.8531679,31.9928558 L13.8,32 L8.2,32 C8.10795254,32 8.03042863,31.9378173 8.00714419,31.8531679 L8,31.8 L8,26.2 C8,26.1079525 8.06218267,26.0304286 8.14683208,26.0071442 L8.2,26 L9.8,26 Z M20,18 C21.1045695,18 22,18.8954305 22,20 C22,21.1045695 21.1045695,22 20,22 C18.8954305,22 18,21.1045695 18,20 C18,18.8954305 18.8954305,18 20,18 Z M31.8,8 C31.8920475,8 31.9695714,8.06218267 31.9928558,8.14683208 L32,8.2 L32,13.8 C32,13.8920475 31.9378173,13.9695714 31.8531679,13.9928558 L31.8,14 L30.2,14 C30.1079525,14 30.0304286,13.9378173 30.0071442,13.8531679 L30,13.8 L30,10 L26.2,10 C26.1079525,10 26.0304286,9.93781733 26.0071442,9.85316792 L26,9.8 L26,8.2 C26,8.10795254 26.0621827,8.03042863 26.1468321,8.00714419 L26.2,8 L31.8,8 Z M13.8,8 C13.9104569,8 14,8.08954305 14,8.2 L14,9.8 C14,9.91045695 13.9104569,10 13.8,10 L10,10 L10,13.8 C10,13.9104569 9.91045695,14 9.8,14 L8.2,14 C8.08954305,14 8,13.9104569 8,13.8 L8,8.2 C8,8.08954305 8.08954305,8 8.2,8 L13.8,8 Z" id="形状结合" fill="#C9D3E6"></path>
        <path d="M20.8,10 C20.9104569,10 21,10.0895431 21,10.2 L21,19 L29.8,19 C29.9104569,19 30,19.0895431 30,19.2 L30,20.8 C30,20.9104569 29.9104569,21 29.8,21 L20.999,21 L21,29.8 C21,29.9104569 20.9104569,30 20.8,30 L19.2,30 C19.0895431,30 19,29.9104569 19,29.8 L18.999,21 L10.2,21 C10.0895431,21 10,20.9104569 10,20.8 L10,19.2 C10,19.0895431 10.0895431,19 10.2,19 L19,19 L19,10.2 C19,10.0895431 19.0895431,10 19.2,10 L20.8,10 Z" id="形状结合" fill-opacity="0.5" fill="#C9D3E6"></path>
        <path d="M20,13 C23.8659932,13 27,16.1340068 27,20 C27,23.8659932 23.8659932,27 20,27 C16.1340068,27 13,23.8659932 13,20 C13,16.1340068 16.1340068,13 20,13 Z M20,15 C17.2385763,15 15,17.2385763 15,20 C15,22.7614237 17.2385763,25 20,25 C22.7614237,25 25,22.7614237 25,20 C25,17.2385763 22.7614237,15 20,15 Z" id="椭圆形" fill-opacity="0.8" fill="#C9D3E6"></path>
    </g>
</svg>