<?xml version="1.0" encoding="UTF-8"?>
<svg width="40px" height="40px" viewBox="0 0 40 40" version="1.1" xmlns="http://www.w3.org/2000/svg" xmlns:xlink="http://www.w3.org/1999/xlink">
    <title>icon/gouhuichongjian</title>
    <g id="icon/gouhuichongjian" stroke="none" stroke-width="1" fill="none" fill-rule="evenodd">
        <g id="编组" transform="translate(8.000000, 7.000000)" fill="#C9D3E6" fill-opacity="0.6">
            <path d="M20.4444444,1.42108547e-13 L23.2291496,6.50462466 C23.4469742,6.66495461 23.5974404,6.91147899 23.6302422,7.19389171 L23.6369699,7.31051284 L23.6369699,25.7720513 L23.6368011,25.800894 C23.6361899,25.8216654 23.6349292,25.8423668 23.6330309,25.8629695 L23.6369699,25.7720513 C23.6369699,25.8205769 23.6335136,25.8682953 23.6268336,25.9149737 C23.623956,25.9349703 23.6204211,25.9549903 23.6162869,25.9748629 C23.6127978,25.9923115 23.6087388,26.0096358 23.604236,26.0267803 C23.5992176,26.0450166 23.5939138,26.063024 23.5881131,26.0808617 C23.5831389,26.0970142 23.5774862,26.1130244 23.5714433,26.1288419 C23.5641287,26.1472484 23.5564549,26.165681 23.5482383,26.1838723 C23.5395591,26.2036183 23.5301959,26.2226376 23.5202581,26.2413047 C23.5165817,26.247872 23.512946,26.2545424 23.5092342,26.2611723 C23.4953203,26.2862057 23.4802873,26.3104498 23.4642772,26.3339754 C23.4565845,26.3453548 23.44852,26.3567383 23.4402119,26.3679592 C23.4280192,26.3842051 23.4156511,26.3998402 23.4028361,26.4150871 C23.3918088,26.4285415 23.379951,26.4419538 23.3677132,26.4550626 C23.3539208,26.4694501 23.3400996,26.483382 23.325881,26.4968999 C23.3128234,26.5096838 23.299227,26.5219174 23.2852582,26.5338002 C23.2723242,26.5444908 23.2592561,26.5550705 23.2459221,26.5653215 C23.2303756,26.577487 23.2143544,26.5890312 23.1979281,26.6001336 C23.1802985,26.6119809 23.162326,26.6233635 23.1439781,26.634177 C23.1378717,26.6377154 23.1316803,26.6412583 23.1254395,26.6447412 L23.1082355,26.6542654 C23.0870113,26.6656267 23.0653295,26.6762446 23.0432247,26.6860841 L23.0203062,26.6956601 L22.9998884,26.7041604 C22.9820816,26.7110985 22.964027,26.7175411 22.9457416,26.7234713 L23.0203062,26.6956601 C22.974762,26.7145629 22.9286196,26.7298496 22.8821981,26.7416522 C22.8690587,26.7450804 22.8554372,26.7482173 22.8417126,26.7510729 C22.8177384,26.7560848 22.7940793,26.7601551 22.7704142,26.7633564 C22.7650871,26.7639377 22.7593465,26.7646551 22.7535911,26.7653236 L22.7284192,26.768129 C22.7050105,26.7702854 22.6816201,26.7716009 22.6582881,26.7720924 L22.6369699,26.7720513 L1.39397395,26.772249 C1.37251558,26.7719875 1.35099564,26.7710291 1.32944476,26.7693598 L1.4062007,26.7720513 C1.36535537,26.7720513 1.325082,26.7696025 1.28551939,26.7648436 C1.27092108,26.763188 1.25619058,26.7610523 1.24146504,26.7585766 C1.18184751,26.7486484 1.12426736,26.7335691 1.06894192,26.7137527 L1.05755129,26.7093045 L1.05755129,26.7093045 L1.01049579,26.6907071 C0.995615506,26.684289 0.980922111,26.6775198 0.96642603,26.6704101 L1.05755129,26.7093045 C1.00003677,26.6879097 0.945659339,26.6617844 0.894696048,26.6315339 C0.883873965,26.6250541 0.873321766,26.6184878 0.862903215,26.6117328 C0.843590633,26.5993929 0.824363484,26.5860004 0.805707653,26.5720085 C0.79554423,26.5641122 0.785432901,26.5562012 0.775480345,26.5481026 C0.755297169,26.5320065 0.736098622,26.5151192 0.717633381,26.4975783 C0.709036848,26.4890588 0.700697848,26.4808543 0.692504151,26.4725067 C0.679130797,26.4592338 0.665552351,26.4445501 0.652448513,26.4294999 C0.639646982,26.4145648 0.627197222,26.399431 0.61519273,26.3839349 C0.608647983,26.3755971 0.602468721,26.3673268 0.596422166,26.3589681 C0.539090267,26.2800052 0.492864185,26.1919835 0.460376844,26.0975692 C0.455132979,26.0816101 0.45007618,26.0656605 0.445418315,26.0495831 C0.430270139,25.9978181 0.419346779,25.9439323 0.412928434,25.8886724 C0.407520564,25.8410568 0.405506629,25.8005515 0.406002987,25.7598245 L0.406200702,7.31051284 C0.406200702,7.01050631 0.538311162,6.74135583 0.747529686,6.55806379 L3.55555556,1.42108547e-13 L20.4444444,1.42108547e-13 Z M18.7849302,19.101 L4.95393021,19.101 L2.84393021,24.772 L21.1389302,24.772 L18.7849302,19.101 Z M21.6369302,8.307 L20.6279302,8.307 L20.628,18.325 L21.6359302,20.754 L21.6369302,8.307 Z M3.25893021,8.307 L2.40593021,8.307 L2.40593021,20.214 L3.259,17.921 L3.25893021,8.307 Z M18.6279302,8.307 L5.25893021,8.307 L5.25893021,17.101 L18.6279302,17.101 L18.6279302,8.307 Z M18.6279302,2 L5.25893021,2 L5.25893021,6.307 L18.6279302,6.307 L18.6279302,2 Z M20.6279302,5.515 L20.6279302,6.307 L20.967,6.307 L20.6279302,5.515 Z" id="形状结合"></path>
        </g>
        <path d="M21.2111571,17.2125638 C21.6811097,17.3288126 22.1357257,17.4552934 22.5750054,17.5920061 L23.0091728,17.7321295 C23.1363478,17.7321295 23.4507941,17.8486826 24.0833432,18.119114 C24.5050425,18.2994016 24.8479839,18.4776468 25.1121674,18.6538498 C24.8690214,18.7003037 24.6634489,18.7235307 24.4954501,18.7235307 L24.4954501,18.7235307 C24.6666657,18.7235307 24.8722381,18.7003037 25.1121674,18.6538498 C25.4702263,18.7943054 25.8336827,19.0199098 26.2025364,19.3306631 C26.5186968,19.597023 26.7507616,19.8332861 26.8987308,20.0394523 L26.9657074,20.1400274 L26.9657074,20.1400274 C27.3444849,20.3999504 27.6134166,20.6970981 27.7725024,21.0314702 C28.0111312,21.5330285 27.9646136,21.52637 28.1878927,21.9502904 C28.4077741,22.3677599 28.7448568,22.9649656 28.6909205,23.2463954 L28.6966795,23.2321845 C28.8003934,23.4873068 28.861722,23.6699773 28.8806653,23.7801957 C28.8920312,23.8463268 28.9175739,23.93785 28.9267232,24.0540075 L28.9300625,24.1414839 L28.9300625,24.1414839 C28.9981466,24.4970485 29.0165208,24.8065179 28.9851853,25.069892 C28.938182,25.4649531 28.869815,25.5576322 28.8005527,25.9618755 C28.7312903,26.3661189 28.7254133,26.7092764 28.2633275,26.9693035 C27.9552704,27.1426549 27.710108,27.1937089 27.5278403,27.1224654 L27.5321761,27.1087524 C27.3544168,27.1695913 26.6253517,27.0160477 26.5776601,26.8829691 L26.581,26.887 L26.5833453,26.9058674 C26.4420945,26.8230003 26.3190282,26.7761858 26.2141464,26.7654238 L26.1388946,26.7641122 C25.9919989,26.7752521 25.8477226,26.8423446 25.5598118,26.9731235 C25.4307758,27.031736 25.2940132,27.0787056 25.1495242,27.1140321 L25.1495242,27.1140321 C24.909587,27.2376986 24.6638963,27.2995319 24.4124521,27.2995319 C24.0352858,27.2995319 24.0285447,27.2341247 23.6316082,27.2995319 C23.3669839,27.3431367 23.0705363,27.4194927 22.7422654,27.5286 L22.7499012,27.5190597 C22.6669458,27.5789753 22.5007191,27.6256817 22.2513764,27.6601139 C21.8778929,27.7116889 21.6485452,27.6309022 21.5220998,27.6787106 C21.3956543,27.726519 21.3500816,27.8341757 20.8846197,27.9655027 C20.4191578,28.0968297 20.3675126,28.0323681 20.0008561,28.1039333 C19.6341995,28.1754985 19.4066203,28.3684211 18.9390768,28.3684211 C18.4715334,28.3684211 18.4525501,28.3097894 18.1384512,28.277555 C17.8243524,28.2453206 17.7070793,28.2545819 17.3003253,28.188266 C17.0279817,28.1438639 16.6755129,28.0047627 16.6755129,27.9378028 C16.6755129,27.9369524 16.6758741,27.9363035 16.6765691,27.9358274 C16.5649085,27.9160153 16.4421773,27.8560184 16.3067898,27.7466282 C15.8021271,27.3388712 15.691001,26.4502365 16.2042854,25.7236356 C16.355521,25.5095478 16.5165729,25.3240493 16.6715933,25.1673 C16.6285058,25.1999332 16.5788352,25.2368237 16.5239358,25.2770939 C15.9545149,25.5932689 15.1621725,25.7880788 14.1469087,25.8615236 C12.624013,25.9716907 12.2041446,25.8051167 11.7508242,25.5544234 C11.523164,25.4285238 11.3748878,25.16616 11.3437076,24.9361516 C11.3429384,24.9349438 11.3403292,24.9309619 11.337567,24.9267404 C11.0700205,24.5178511 10.8691455,23.7481937 11.1033562,22.7455797 C11.2594967,22.0771704 11.429903,21.5578464 11.614575,21.1876078 C11.9227474,20.7160085 12.2024421,20.2810461 12.4536465,19.8827208 C12.7048509,19.4843954 13.0958859,19.1045644 13.6267514,18.7432278 L13.627,18.744 L13.870671,18.550304 C14.1328444,18.3516815 14.4070677,18.1749828 14.6933408,18.0202078 C15.0750383,17.8138412 15.4471669,17.6509486 15.8097266,17.5315301 C16.2533323,17.4009044 16.783556,17.2824336 17.4003977,17.1761178 C18.0172395,17.0698019 18.5279918,17.0117191 18.9326549,17.0018694 C19.8250529,16.9873339 20.5845536,17.0575654 21.2111571,17.2125638 Z" id="形状结合" fill="#C9D3E6" transform="translate(20.000000, 22.684211) rotate(-345.000000) translate(-20.000000, -22.684211) "></path>
    </g>
</svg>