<?xml version="1.0" encoding="UTF-8"?>
<svg width="40px" height="40px" viewBox="0 0 40 40" version="1.1" xmlns="http://www.w3.org/2000/svg" xmlns:xlink="http://www.w3.org/1999/xlink">
    <title>icon/hetuantiqu</title>
    <g id="icon/hetuantiqu" stroke="none" stroke-width="1" fill="none" fill-rule="evenodd">
        <g id="编组" transform="translate(7.000000, 7.000000)" fill="#C9D3E6">
            <path d="M12.7136995,24.1533209 C11.7035324,24.8713597 10.6356999,25.0826481 9.51020219,24.7871861 C8.30967126,24.4720267 7.66992042,23.6465268 7.59094967,22.3106865 C6.3451118,22.3402932 5.27454016,21.8920423 4.37923476,20.9659338 C3.48392936,20.0398252 3.13775224,18.6974331 3.34070341,16.9387576 C2.08887512,16.6199401 1.3497102,15.5119771 1.12320866,13.6148686 C0.896707113,11.71776 1.63587203,10.1797273 3.34070341,9.00077047 C2.78126976,7.11832193 2.96843529,5.74533182 3.90220001,4.88180015 C4.83596472,4.01826847 5.94868503,3.66025805 7.24036092,3.80776887 C7.52829635,2.29350747 8.35034145,1.40866636 9.70649622,1.15324553 C11.062651,0.897824711 12.1321403,1.33950551 12.9149641,2.47828792 L12.9149641,2.47828792 C13.6977879,1.33950551 14.7672772,0.897824711 16.123432,1.15324553 C17.4795867,1.40866636 18.3016318,2.29350747 18.5895673,3.80776887 C19.8812432,3.66025805 20.9939635,4.01826847 21.9277282,4.88180015 C22.8614929,5.74533182 23.0486584,7.11832193 22.4892248,9.00077047 C24.1940562,10.1797273 24.9332211,11.71776 24.7067195,13.6148686 C24.480218,15.5119771 23.7410531,16.6199401 22.4892248,16.9387576 C22.6921759,18.6974331 22.3459988,20.0398252 21.4506934,20.9659338 C20.555388,21.8920423 19.4848164,22.3402932 18.2389785,22.3106865 C18.1600078,23.6465268 17.5202569,24.4720267 16.319726,24.7871861 C15.1191951,25.1023456 13.9842744,24.8409357 12.9149641,24.0029564 Z" id="形状结合" fill-opacity="0.3"></path>
            <path d="M12.9629464,0.840289419 C13.8858994,0.105926673 15.0309281,-0.154899032 16.3239437,0.08863004 C17.8197817,0.370359076 18.8652678,1.26468789 19.3913078,2.65919893 L19.3913078,2.65919893 L19.4046968,2.69830513 L19.6346046,2.71417013 C20.6725107,2.80807583 21.6171536,3.20286751 22.4414584,3.89138575 L22.4414584,3.89138575 L22.6632649,4.08644055 C23.7808201,5.119939 24.1116221,6.61209581 23.7413349,8.45615858 L23.7413349,8.45615858 L23.7141968,8.57538846 L23.7873793,8.63675767 C25.2667984,9.91808996 25.9604554,11.5567967 25.8097002,13.4683699 L25.8097002,13.4683699 L25.7824131,13.7432989 C25.565109,15.5633727 24.8924618,16.8829523 23.7531799,17.5749573 L23.7531799,17.5749573 L23.6242801,17.6472218 L23.627817,17.7591633 C23.6481045,19.2833557 23.2482271,20.5539906 22.4042855,21.5280572 L22.4042855,21.5280572 L22.2295693,21.7189036 C21.4017996,22.5751528 20.4290853,23.1098457 19.3400246,23.3081241 L19.3400246,23.3081241 L19.1663634,23.3347218 L19.1325071,23.4615147 C18.7864597,24.5977068 17.9933381,25.3995937 16.8080306,25.7734947 L16.8080306,25.7734947 L16.5947987,25.8350154 C15.3288343,26.1673522 14.1006028,25.9945551 12.9641451,25.3414355 L12.9641451,25.3414355 L12.9144468,25.3107218 L12.8455672,25.3531405 C11.7943797,25.951418 10.6652886,26.1384013 9.50373573,25.8980694 L9.50373573,25.8980694 L9.2351295,25.8350154 C7.93144545,25.4927765 7.06382422,24.6645417 6.69742112,23.4615147 L6.69742112,23.4615147 L6.66253008,23.3347218 L6.48990361,23.3081241 C5.49159795,23.1263689 4.59105561,22.6619321 3.81030445,21.9262582 L3.81030445,21.9262582 L3.6003589,21.7189036 C2.63688548,20.7222816 2.1804712,19.3849685 2.2021112,17.7591633 L2.202,17.813 L2.19836956,17.8126053 L2.202,17.799 L2.2021112,17.7591633 L2.20461342,17.6472218 L2.07674828,17.5749573 C0.997428561,16.9193736 0.336916758,15.7005374 0.0856118787,14.0265012 L0.0856118787,14.0265012 L0.0475150389,13.7432989 C-0.194807991,11.7136743 0.492681208,9.97910578 2.04254888,8.63675767 L2.04254888,8.63675767 L2.11469675,8.57538846 L2.08859328,8.45615858 C1.73682047,6.70429895 2.01778057,5.27003445 3.00491997,4.24489191 L3.00491997,4.24489191 L3.16666332,4.08644055 C4.04179214,3.27713448 5.06306241,2.81661271 6.19532358,2.71417013 L6.19532358,2.71417013 L6.42419675,2.69830513 L6.43862036,2.65919893 C6.93697407,1.33808321 7.9015342,0.465884497 9.27355213,0.138188039 L9.27355213,0.138188039 L9.50598447,0.08863004 C10.7603461,-0.147618867 11.8797298,0.0905163946 12.7991373,0.791650868 L12.7991373,0.791650868 L12.9111968,0.882638458 Z M15.9229202,2.21786103 C15.1419636,2.07077414 14.5660514,2.23149331 14.0827428,2.74678913 L14.0835114,23.4861054 C14.7218621,23.8421986 15.3594809,23.9192261 16.0446533,23.7393569 C16.7798967,23.5463432 17.1055466,23.1261422 17.1575333,22.2467548 L17.1575333,22.2467548 L17.2192478,21.202814 L18.2647161,21.227659 C19.2051286,21.2500074 19.9848997,20.9235154 20.6718176,20.212964 C21.3183037,19.5442354 21.5815658,18.5233677 21.4130336,17.06295 L21.4130336,17.06295 L21.3045134,16.1225663 L22.2218548,15.8889364 C22.9752026,15.6970727 23.4525123,14.9816147 23.6310259,13.4864382 C23.8086619,11.9986126 23.2556523,10.8479264 21.8730439,9.89179924 L21.8730439,9.89179924 L21.2270299,9.44505559 L21.4507783,8.69216075 C21.9041561,7.1665812 21.7745323,6.21569988 21.1921915,5.67715975 C20.4915005,5.02917116 19.6927053,4.77216408 18.7124862,4.8841062 L18.7124862,4.8841062 L17.7131875,4.99822721 L17.5253032,4.01013771 C17.3177514,2.91861631 16.8244785,2.38766226 15.9229202,2.21786103 Z M11.9165994,2.94694067 C11.3996641,2.27792777 10.7872877,2.05206743 9.90700796,2.21786103 C9.0054497,2.38766226 8.51217677,2.91861631 8.30462497,4.01013771 L8.30462497,4.01013771 L8.11674064,4.99822721 L7.117442,4.8841062 C6.13722285,4.77216408 5.33842771,5.02917116 4.6377367,5.67715975 C4.25806826,6.02827145 4.07083361,6.5546546 4.11213837,7.30130303 C4.24842777,7.24757123 4.384319,7.20111293 4.5209637,7.16150199 C5.14704233,6.98001261 5.86993419,6.95984713 6.69440853,7.0840609 L6.80761804,7.10328616 C6.9165159,7.12177921 6.98980348,7.22504995 6.97131043,7.33394782 L6.97067933,7.33747262 L6.64382627,9.07329058 C6.62357366,9.17981885 6.52217501,9.25092782 6.41515,9.23349079 C6.39111185,9.22957438 6.37023201,9.22631021 6.35251046,9.22369827 C5.82739312,9.14630252 5.41649567,9.15776798 5.12420822,9.24249706 C4.92384848,9.30057789 4.71662505,9.39025794 4.50279375,9.51304631 L3.95688426,9.89179924 C2.5742759,10.8479264 2.02126627,11.9986126 2.19890228,13.4864382 C2.34674538,14.7247274 2.69953192,15.4282096 3.24433421,15.7423769 C3.4041536,15.5329603 3.57982374,15.3352923 3.76975733,15.147804 C4.42452138,14.5014697 5.21057872,14.0071772 6.11827538,13.6662424 L6.27101708,13.612988 C6.37531641,13.5766233 6.4893471,13.6316952 6.52571176,13.7359945 C6.52622595,13.7374693 6.52672284,13.7389501 6.52720234,13.7404365 L7.06926593,15.4207862 C7.10262082,15.5237976 7.04787244,15.6345955 6.94582517,15.6707929 C6.91243531,15.6826367 6.88404822,15.6930008 6.86066389,15.701885 C6.24070838,15.9374201 5.72085693,16.2662925 5.29186395,16.6897625 C4.88040405,17.0959251 4.57541949,17.5723047 4.37260225,18.1294076 C4.41445926,19.0388238 4.68263851,19.7211332 5.15811062,20.212964 C5.84502848,20.9235154 6.62479956,21.2500074 7.56521207,21.227659 L7.56521207,21.227659 L8.61068037,21.202814 L8.67239493,22.2467548 C8.72438159,23.1261422 9.05003153,23.5463432 9.78527488,23.7393569 C10.5908467,23.950833 11.3259887,23.8069579 12.0531946,23.2939804 L11.916,23.384 Z" id="形状结合" fill-opacity="0.4"></path>
        </g>
        <path d="M23.1121113,12.6304308 C23.0016543,12.6304308 22.9121113,12.5408877 22.9121113,12.4304308 C22.9121113,12.3810224 22.9304,12.3333628 22.9634524,12.2966378 L28.6022685,6.03128662 C28.6761603,5.94918462 28.8026183,5.94252893 28.8847203,6.01642074 C28.8899328,6.02111198 28.8948949,6.02607413 28.8995862,6.03128662 L34.5384022,12.2966378 C34.612294,12.3787398 34.6056384,12.5051978 34.5235364,12.5790896 C34.4868114,12.612142 34.4391518,12.6304308 34.3897434,12.6304308 L30.7802235,12.6304308 L30.7802235,19.1947514 C30.7802235,19.3052083 30.6906805,19.3947514 30.5802235,19.3947514 L26.9216311,19.3947514 C26.8111742,19.3947514 26.7216311,19.3052083 26.7216311,19.1947514 L26.7216311,12.6304308 L23.1121113,12.6304308 Z" id="形状结合" fill="#C9D3E6"></path>
        <path d="M20,25 C23,25 23,22.9852814 23,20.5 C23,18.0147186 21.6568542,16 20,16 C18.3431458,16 17,18.0147186 17,20.5 C17,22.9852814 17,25 20,25 Z" id="椭圆形" fill="#C9D3E6"></path>
    </g>
</svg>