<?xml version="1.0" encoding="UTF-8"?>
<svg width="40px" height="40px" viewBox="0 0 40 40" version="1.1" xmlns="http://www.w3.org/2000/svg" xmlns:xlink="http://www.w3.org/1999/xlink">
    <title>icon/jianying</title>
    <g id="icon/jianying" stroke="none" stroke-width="1" fill="none" fill-rule="evenodd">
        <g id="编组" transform="translate(6.000000, 6.000000)" stroke="#C9D3E6" stroke-width="2">
            <path d="M10.2666667,1 C7.70774733,1 5.39108066,2.037207 3.71414383,3.71414383 C2.037207,5.39108066 1,7.70774733 1,10.2666667 C1,12.4138226 1.73008946,14.3905229 2.95589493,15.9616242 C3.88862857,17.1570986 5.10802236,18.1181386 6.5109081,18.7407258 C6.48170697,18.4088598 6.46666667,18.0728524 6.46666667,17.7333333 C6.46666667,14.6221292 7.72773129,11.8054626 9.76659693,9.76659693 C11.8054626,7.72773129 14.6221292,6.46666667 17.7333333,6.46666667 C18.0729054,6.46666667 18.408965,6.48171103 18.7409139,6.51118523 C18.1183849,5.10828448 17.1572504,3.88877656 15.9617047,2.9559726 C14.3905391,1.73009761 12.413832,1 10.2666667,1 Z" id="形状结合" stroke-opacity="0.5" fill-opacity="0.704562527" fill="#C9D3E6"></path>
            <path d="M21.4890959,9.2593443 C21.5182917,9.591111 21.5333333,9.92713287 21.5333333,10.2666667 C21.5333333,13.3778708 20.2722687,16.1945374 18.2334031,18.2334031 C16.1945374,20.2722687 13.3778708,21.5333333 10.2666667,21.5333333 C9.92711901,21.5333333 9.59108318,21.5182921 9.25911114,21.4888114 C9.88161508,22.8917155 10.8427496,24.1112234 12.0382953,25.0440274 C13.6094609,26.2699024 15.586168,27 17.7333333,27 C20.2922527,27 22.6089193,25.962793 24.2858562,24.2858562 C25.962793,22.6089193 27,20.2922527 27,17.7333333 C27,15.586306 26.2699958,13.6097144 25.0442067,12.0386229 C24.111494,10.8431669 22.8920899,9.88208734 21.4890959,9.2593443 Z" id="形状结合" stroke-opacity="0.5" fill-opacity="0.298614715" fill="#C9D3E6"></path>
            <line x1="16.8" y1="16.8" x2="27.0666667" y2="27.1692449" id="路径-3" stroke-opacity="0.4" transform="translate(21.933333, 21.984622) scale(-1, 1) translate(-21.933333, -21.984622) "></line>
            <line x1="13.0884705" y1="13.0666667" x2="26.1333333" y2="26.1333333" id="路径-3备份" stroke-opacity="0.4" transform="translate(19.610902, 19.600000) scale(-1, 1) translate(-19.610902, -19.600000) "></line>
            <line x1="10.1450331" y1="11.2" x2="23.3333333" y2="24.4103438" id="路径-3备份-2" stroke-opacity="0.4" transform="translate(16.739183, 17.805172) scale(-1, 1) translate(-16.739183, -17.805172) "></line>
        </g>
        <path d="M35.8,33 C35.9104569,33 36,33.0895431 36,33.2 L36,34.8 C36,34.9104569 35.9104569,35 35.8,35 L26.2,35 C26.0895431,35 26,34.9104569 26,34.8 L26,33.2 C26,33.0895431 26.0895431,33 26.2,33 L35.8,33 Z M35.8,29 C35.9104569,29 36,29.0895431 36,29.2 L36,30.8 C36,30.9104569 35.9104569,31 35.8,31 L26.2,31 C26.0895431,31 26,30.9104569 26,30.8 L26,29.2 C26,29.0895431 26.0895431,29 26.2,29 L35.8,29 Z M35.8,25 C35.9104569,25 36,25.0895431 36,25.2 L36,26.8 C36,26.9104569 35.9104569,27 35.8,27 L26.2,27 C26.0895431,27 26,26.9104569 26,26.8 L26,25.2 C26,25.0895431 26.0895431,25 26.2,25 L35.8,25 Z" id="形状结合" fill="#C9D3E6"></path>
    </g>
</svg>