<?xml version="1.0" encoding="UTF-8"?>
<svg width="24px" height="24px" viewBox="0 0 24 24" version="1.1" xmlns="http://www.w3.org/2000/svg" xmlns:xlink="http://www.w3.org/1999/xlink">
    <title>icon/dengdai</title>
    <g id="icon/dengdai" stroke="none" stroke-width="1" fill="none" fill-rule="evenodd">
        <g id="编组-7" transform="translate(3.000000, 3.000000)">
            <path d="M7.02292742,14.2626785 C7.03521768,14.2668886 7.04742472,14.2713379 7.05954161,14.2760237 L7.18268766,14.3236466 C7.68365764,14.5173808 7.94210048,15.0722683 7.7680326,15.5804064 L7.33025414,16.858367 C7.15127358,17.3808461 6.58262818,17.6593066 6.06014909,17.4803261 L6.0235349,17.4669809 L5.90038885,17.419358 C5.39941887,17.2256237 5.14097603,16.6707362 5.31504391,16.1625982 L5.75282237,14.8846376 C5.93180293,14.3621585 6.50044833,14.0836979 7.02292742,14.2626785 Z M12.0247156,14.8480234 C12.0294014,14.8601403 12.0338507,14.8723474 12.0380608,14.8846376 L12.4758393,16.1625982 C12.6499072,16.6707362 12.3914643,17.2256237 11.8904943,17.419358 L11.7673483,17.4669809 C11.2522396,17.6661829 10.6731763,17.4100899 10.4739743,16.8949812 C10.4692885,16.8828643 10.4648392,16.8706572 10.460629,16.858367 L10.0228506,15.5804064 C9.84878271,15.0722683 10.1072256,14.5173808 10.6081955,14.3236466 L10.7313416,14.2760237 C11.2464503,14.0768217 11.8255136,14.3329147 12.0247156,14.8480234 Z M4.25812483,11.7188117 C4.26727358,11.7337257 4.27602934,11.7488772 4.28438307,11.7642506 L4.38698494,11.9530693 C4.64094054,12.4204248 4.48460747,13.0047966 4.03121866,13.2829211 L2.98746406,13.9231963 C2.51669689,14.2119812 1.90095828,14.0644554 1.61217339,13.5936883 L1.58591515,13.5482494 L1.48331328,13.3594307 C1.22935768,12.8920752 1.38569074,12.3077034 1.83907956,12.0295789 L2.88283416,11.3893037 C3.35360133,11.1005188 3.96933993,11.2480446 4.25812483,11.7188117 Z M14.8626101,11.3630455 C14.8779835,11.3713992 14.8931351,11.380155 14.908049,11.3893037 L15.9518036,12.0295789 C16.4051924,12.3077034 16.5615255,12.8920752 16.3075699,13.3594307 L16.204968,13.5482494 C15.9412783,14.0335186 15.3341272,14.2131442 14.848858,13.9494545 C14.8334846,13.9411008 14.8183331,13.932345 14.8034191,13.9231963 L13.7596645,13.2829211 C13.3062757,13.0047966 13.1499426,12.4204248 13.4038982,11.9530693 L13.5065001,11.7642506 C13.7701898,11.2789814 14.377341,11.0993558 14.8626101,11.3630455 Z M1.72047904,6.51365326 L1.74090702,6.51726149 L1.74090702,6.51726149 L2.90289815,6.73495753 C3.43779274,6.83516865 3.79435626,7.34471435 3.70526206,7.88157254 L3.66503832,8.12395024 C3.57462065,8.66878333 3.05964816,9.03715981 2.51481508,8.94674214 C2.50799346,8.94561006 2.50118377,8.94440725 2.4943871,8.94313391 L1.33239597,8.72543788 C0.797501378,8.62522676 0.44093786,8.11568106 0.530032057,7.57882286 L0.570255802,7.33644516 C0.66067347,6.79161207 1.17564595,6.4232356 1.72047904,6.51365326 Z M17.2170192,7.31601718 L17.2206274,7.33644516 L17.2206274,7.33644516 L17.2608511,7.57882286 C17.3499453,8.11568106 16.9933818,8.62522676 16.4584872,8.72543788 L15.2964961,8.94313391 C14.7536558,9.04483364 14.2311528,8.68721854 14.1294531,8.14437822 C14.1281798,8.13758155 14.126977,8.13077186 14.1258449,8.12395024 L14.0856211,7.88157254 C13.9965269,7.34471435 14.3530904,6.83516865 14.887985,6.73495753 L16.0499762,6.51726149 C16.5928165,6.41556176 17.1153194,6.77317686 17.2170192,7.31601718 Z M4.88130594,2.16983033 C4.89454296,2.18467763 4.90733403,2.19991658 4.91966208,2.21552684 L5.71970122,3.22856695 C6.04763813,3.64381318 5.99534145,4.24264902 5.60039037,4.59476503 L5.47368944,4.7077244 C5.06145049,5.0752533 4.42932375,5.03900864 4.06179485,4.62676969 C4.04855784,4.61192239 4.03576677,4.59668344 4.02343871,4.58107318 L3.22339957,3.56803307 C2.89546267,3.15278684 2.94775934,2.553951 3.34271043,2.20183499 L3.46941135,2.08887562 C3.8816503,1.72134672 4.51377704,1.75759138 4.88130594,2.16983033 Z M14.2757753,2.05051948 L14.3214718,2.08887562 L14.3214718,2.08887562 L14.4481728,2.20183499 C14.8431238,2.553951 14.8954205,3.15278684 14.5674836,3.56803307 L13.7674445,4.58107318 C13.4251531,5.01449565 12.7963127,5.08837196 12.3628903,4.74608054 C12.34728,4.73375249 12.332041,4.72096142 12.3171937,4.7077244 L12.1904928,4.59476503 C11.7955417,4.24264902 11.7432451,3.64381318 12.071182,3.22856695 L12.8712211,2.21552684 C13.2135125,1.78210437 13.8423529,1.70822806 14.2757753,2.05051948 Z M8.95426512,0 C9.50654987,-1.01453063e-16 9.95426512,0.44771525 9.95426512,1 L9.95426512,2.375 C9.95426512,2.92728475 9.50654987,3.375 8.95426512,3.375 L8.83661806,3.375 C8.28433332,3.375 7.83661806,2.92728475 7.83661806,2.375 L7.83661806,1 C7.83661806,0.44771525 8.28433332,1.01453063e-16 8.83661806,0 L8.95426512,0 Z" id="形状结合" fill="#434B59"></path>
            <rect id="矩形" fill-opacity="0.6" fill="#69D8C6" fill-rule="nonzero" x="7.83661806" y="0" width="2.11764706" height="3.375" rx="1.05882353"></rect>
            <path d="M13.2453341,1.75106017 L13.4150015,1.75615028 C13.9438874,1.77201714 14.3688732,2.19713635 14.3845741,2.72602719 L14.4228782,4.01631619 C14.4392664,4.56835774 14.0050335,5.02916106 13.4529919,5.04554921 C13.4331095,5.04613945 13.4132138,5.04613633 13.3933315,5.04553985 L13.2236641,5.04044974 C12.6947782,5.02458288 12.2697924,4.59946367 12.2540915,4.07057282 L12.2157874,2.78028383 C12.1993992,2.22824228 12.6336321,1.76743896 13.1856737,1.75105081 C13.2055561,1.75046057 13.2254518,1.75046369 13.2453341,1.75106017 Z" id="矩形" fill-opacity="0.8" fill="#69D8C6" fill-rule="nonzero" transform="translate(13.319333, 3.398300) rotate(40.000000) translate(-13.319333, -3.398300) "></path>
            <path d="M15.5541672,6.13794038 L15.7998475,6.14041617 C16.3440206,6.14589996 16.7839086,6.58552816 16.7897138,7.12969798 L16.8023249,8.31183837 C16.8082163,8.8640917 16.3653025,9.31655744 15.8130492,9.32244889 C15.8061347,9.32252266 15.7992196,9.3225247 15.792305,9.32245502 L15.5466248,9.31997923 C15.0024516,9.31449544 14.5625637,8.87486724 14.5567585,8.33069742 L14.5441474,7.14855703 C14.5382559,6.5963037 14.9811697,6.14383796 15.533423,6.13794651 C15.5403376,6.13787274 15.5472527,6.1378707 15.5541672,6.13794038 Z" id="矩形" fill="#69D8C6" fill-rule="nonzero" transform="translate(15.673236, 7.730198) rotate(80.000000) translate(-15.673236, -7.730198) "></path>
        </g>
    </g>
</svg>