<?xml version="1.0" encoding="UTF-8"?>
<svg width="40px" height="40px" viewBox="0 0 40 40" version="1.1" xmlns="http://www.w3.org/2000/svg" xmlns:xlink="http://www.w3.org/1999/xlink">
    <title>icon/lunkuobianji</title>
    <g id="icon/lunkuobianji" stroke="none" stroke-width="1" fill="none" fill-rule="evenodd">
        <polygon id="路径-19" fill-opacity="0.3" fill="#C9D3E6" points="10.2759505 10.752889 24.0206146 10.752889 30.0018086 15.8601608 30.0018086 29.7472687 15.8262939 29.7472687 10.2759505 23.0292424"></polygon>
        <path d="M24.8,10 C24.8484933,10 24.8929556,10.0172587 24.9275796,10.0459689 L24.9279039,10.0466613 C24.9391234,10.0561639 24.9438361,10.0608766 24.9483058,10.0658135 L30.9622143,16.095984 L30.055,17 L30.9998436,17 L30.9998436,21 L28.9998436,21 L28.9998436,17 L29.039,17 L24.051,12 L24,12 L23.9997777,23.482 L30,28.6396329 L28.999,29.585 L28.9998436,30 L29.999,29 L30.9998436,29 L30.9998436,31 L26.9998436,31 L26.9998436,29 L27.397,29 L22.7437777,25 L17,25 L17,26.9998436 L15,26.9998436 L15,25 L11.978,25 L15.966,28.999 L16,29 L17,30 L17,28.999 L18.9998436,29 L18.9998436,31 L15,31 L15,30.862 L9.14467572,24.9922495 C9.06112875,24.9682508 9,24.8912641 9,24.8 L9,10.2 C9,10.0895431 9.08954305,10 9.2,10 L24.8,10 Z M24.9998436,29 L24.9998436,31 L20.9998436,31 L20.9998436,29 L24.9998436,29 Z M30.9998436,23 L30.9998436,27 L28.9998436,27 L28.9998436,23 L30.9998436,23 Z M21.962,12 L12.097,12 L16.6326889,16.2409967 C16.8121943,16.4195312 16.9729617,16.6488213 17.0011682,16.8923874 L17.0082554,17.0151912 L17,17.016 L17,20.9998436 L15,20.9998436 L15,17.312 L11,13.582 L11,23.032 L15,23.032 L15,22.9998436 L17,22.9998436 L17,23.031 L21.9622198,23.0314303 L21.962,18 L18.0001564,18 L18.0001564,16 L21.961,16 L21.962,12 Z M28.0001564,16 L28.0001564,18 L24.0001564,18 L24.0001564,16 L28.0001564,16 Z" id="形状结合" fill="#C9D3E6"></path>
    </g>
</svg>