<?xml version="1.0" encoding="UTF-8"?>
<svg width="40px" height="40px" viewBox="0 0 40 40" version="1.1" xmlns="http://www.w3.org/2000/svg" xmlns:xlink="http://www.w3.org/1999/xlink">
    <title>icon/naoshizhitiqu</title>
    <g id="icon/naoshizhitiqu" stroke="none" stroke-width="1" fill="none" fill-rule="evenodd">
        <g id="编组" transform="translate(7.000000, 7.000000)" fill="#C9D3E6">
            <path d="M12.7136995,24.1533209 C11.7035324,24.8713597 10.6356999,25.0826481 9.51020219,24.7871861 C8.30967126,24.4720267 7.66992042,23.6465268 7.59094967,22.3106865 C6.3451118,22.3402932 5.27454016,21.8920423 4.37923476,20.9659338 C3.48392936,20.0398252 3.13775224,18.6974331 3.34070341,16.9387576 C2.08887512,16.6199401 1.3497102,15.5119771 1.12320866,13.6148686 C0.896707113,11.71776 1.63587203,10.1797273 3.34070341,9.00077047 C2.78126976,7.11832193 2.96843529,5.74533182 3.90220001,4.88180015 C4.83596472,4.01826847 5.94868503,3.66025805 7.24036092,3.80776887 C7.52829635,2.29350747 8.35034145,1.40866636 9.70649622,1.15324553 C11.062651,0.897824711 12.1321403,1.33950551 12.9149641,2.47828792 L12.9149641,2.47828792 C13.6977879,1.33950551 14.7672772,0.897824711 16.123432,1.15324553 C17.4795867,1.40866636 18.3016318,2.29350747 18.5895673,3.80776887 C19.8812432,3.66025805 20.9939635,4.01826847 21.9277282,4.88180015 C22.8614929,5.74533182 23.0486584,7.11832193 22.4892248,9.00077047 C24.1940562,10.1797273 24.9332211,11.71776 24.7067195,13.6148686 C24.480218,15.5119771 23.7410531,16.6199401 22.4892248,16.9387576 C22.6921759,18.6974331 22.3459988,20.0398252 21.4506934,20.9659338 C20.555388,21.8920423 19.4848164,22.3402932 18.2389785,22.3106865 C18.1600078,23.6465268 17.5202569,24.4720267 16.319726,24.7871861 C15.1191951,25.1023456 13.9842744,24.8409357 12.9149641,24.0029564 Z" id="形状结合" fill-opacity="0.3"></path>
            <path d="M12.9629464,0.840289419 C13.8858994,0.105926673 15.0309281,-0.154899032 16.3239437,0.08863004 C17.8197817,0.370359076 18.8652678,1.26468789 19.3913078,2.65919893 L19.3913078,2.65919893 L19.4046968,2.69830513 L19.6346046,2.71417013 C20.6725107,2.80807583 21.6171536,3.20286751 22.4414584,3.89138575 L22.4414584,3.89138575 L22.6632649,4.08644055 C23.7808201,5.119939 24.1116221,6.61209581 23.7413349,8.45615858 L23.7413349,8.45615858 L23.7141968,8.57538846 L23.7873793,8.63675767 C25.2667984,9.91808996 25.9604554,11.5567967 25.8097002,13.4683699 L25.8097002,13.4683699 L25.7824131,13.7432989 C25.565109,15.5633727 24.8924618,16.8829523 23.7531799,17.5749573 L23.7531799,17.5749573 L23.6242801,17.6472218 L23.627817,17.7591633 C23.6481045,19.2833557 23.2482271,20.5539906 22.4042855,21.5280572 L22.4042855,21.5280572 L22.2295693,21.7189036 C21.4017996,22.5751528 20.4290853,23.1098457 19.3400246,23.3081241 L19.3400246,23.3081241 L19.1663634,23.3347218 L19.1325071,23.4615147 C18.7864597,24.5977068 17.9933381,25.3995937 16.8080306,25.7734947 L16.8080306,25.7734947 L16.5947987,25.8350154 C15.3288343,26.1673522 14.1006028,25.9945551 12.9641451,25.3414355 L12.9641451,25.3414355 L12.9144468,25.3107218 L12.8455672,25.3531405 C11.7943797,25.951418 10.6652886,26.1384013 9.50373573,25.8980694 L9.50373573,25.8980694 L9.2351295,25.8350154 C7.93144545,25.4927765 7.06382422,24.6645417 6.69742112,23.4615147 L6.69742112,23.4615147 L6.66253008,23.3347218 L6.48990361,23.3081241 C5.49159795,23.1263689 4.59105561,22.6619321 3.81030445,21.9262582 L3.81030445,21.9262582 L3.6003589,21.7189036 C2.63688548,20.7222816 2.1804712,19.3849685 2.2021112,17.7591633 L2.202,17.813 L2.19836956,17.8126053 L2.202,17.799 L2.2021112,17.7591633 L2.20461342,17.6472218 L2.07674828,17.5749573 C0.997428561,16.9193736 0.336916758,15.7005374 0.0856118787,14.0265012 L0.0856118787,14.0265012 L0.0475150389,13.7432989 C-0.194807991,11.7136743 0.492681208,9.97910578 2.04254888,8.63675767 L2.04254888,8.63675767 L2.11469675,8.57538846 L2.08859328,8.45615858 C1.73682047,6.70429895 2.01778057,5.27003445 3.00491997,4.24489191 L3.00491997,4.24489191 L3.16666332,4.08644055 C4.04179214,3.27713448 5.06306241,2.81661271 6.19532358,2.71417013 L6.19532358,2.71417013 L6.42419675,2.69830513 L6.43862036,2.65919893 C6.93697407,1.33808321 7.9015342,0.465884497 9.27355213,0.138188039 L9.27355213,0.138188039 L9.50598447,0.08863004 C10.7603461,-0.147618867 11.8797298,0.0905163946 12.7991373,0.791650868 L12.7991373,0.791650868 L12.9111968,0.882638458 Z M15.9229202,2.21786103 C15.1419636,2.07077414 14.5660514,2.23149331 14.0827428,2.74678913 L14.0835114,23.4861054 C14.7218621,23.8421986 15.3594809,23.9192261 16.0446533,23.7393569 C16.7798967,23.5463432 17.1055466,23.1261422 17.1575333,22.2467548 L17.1575333,22.2467548 L17.2192478,21.202814 L18.2647161,21.227659 C19.2051286,21.2500074 19.9848997,20.9235154 20.6718176,20.212964 C21.3183037,19.5442354 21.5815658,18.5233677 21.4130336,17.06295 L21.4130336,17.06295 L21.3045134,16.1225663 L22.2218548,15.8889364 C22.9752026,15.6970727 23.4525123,14.9816147 23.6310259,13.4864382 C23.8086619,11.9986126 23.2556523,10.8479264 21.8730439,9.89179924 L21.8730439,9.89179924 L21.2270299,9.44505559 L21.4507783,8.69216075 C21.9041561,7.1665812 21.7745323,6.21569988 21.1921915,5.67715975 C20.4915005,5.02917116 19.6927053,4.77216408 18.7124862,4.8841062 L18.7124862,4.8841062 L17.7131875,4.99822721 L17.5253032,4.01013771 C17.3177514,2.91861631 16.8244785,2.38766226 15.9229202,2.21786103 Z M11.9165994,2.94694067 C11.3996641,2.27792777 10.7872877,2.05206743 9.90700796,2.21786103 C9.0054497,2.38766226 8.51217677,2.91861631 8.30462497,4.01013771 L8.30462497,4.01013771 L8.11674064,4.99822721 L7.117442,4.8841062 C6.13722285,4.77216408 5.33842771,5.02917116 4.6377367,5.67715975 C4.25806826,6.02827145 4.07083361,6.5546546 4.11213837,7.30130303 C4.24842777,7.24757123 4.384319,7.20111293 4.5209637,7.16150199 C5.14704233,6.98001261 5.86993419,6.95984713 6.69440853,7.0840609 L6.80761804,7.10328616 C6.9165159,7.12177921 6.98980348,7.22504995 6.97131043,7.33394782 L6.97067933,7.33747262 L6.64382627,9.07329058 C6.62357366,9.17981885 6.52217501,9.25092782 6.41515,9.23349079 C6.39111185,9.22957438 6.37023201,9.22631021 6.35251046,9.22369827 C5.82739312,9.14630252 5.41649567,9.15776798 5.12420822,9.24249706 C4.92384848,9.30057789 4.71662505,9.39025794 4.50279375,9.51304631 L3.95688426,9.89179924 C2.5742759,10.8479264 2.02126627,11.9986126 2.19890228,13.4864382 C2.34674538,14.7247274 2.69953192,15.4282096 3.24433421,15.7423769 C3.4041536,15.5329603 3.57982374,15.3352923 3.76975733,15.147804 C4.42452138,14.5014697 5.21057872,14.0071772 6.11827538,13.6662424 L6.27101708,13.612988 C6.37531641,13.5766233 6.4893471,13.6316952 6.52571176,13.7359945 C6.52622595,13.7374693 6.52672284,13.7389501 6.52720234,13.7404365 L7.06926593,15.4207862 C7.10262082,15.5237976 7.04787244,15.6345955 6.94582517,15.6707929 C6.91243531,15.6826367 6.88404822,15.6930008 6.86066389,15.701885 C6.24070838,15.9374201 5.72085693,16.2662925 5.29186395,16.6897625 C4.88040405,17.0959251 4.57541949,17.5723047 4.37260225,18.1294076 C4.41445926,19.0388238 4.68263851,19.7211332 5.15811062,20.212964 C5.84502848,20.9235154 6.62479956,21.2500074 7.56521207,21.227659 L7.56521207,21.227659 L8.61068037,21.202814 L8.67239493,22.2467548 C8.72438159,23.1261422 9.05003153,23.5463432 9.78527488,23.7393569 C10.5908467,23.950833 11.3259887,23.8069579 12.0531946,23.2939804 L11.916,23.384 Z" id="形状结合" fill-opacity="0.4"></path>
        </g>
        <path d="M23.1121113,12.6304308 C23.0016543,12.6304308 22.9121113,12.5408877 22.9121113,12.4304308 C22.9121113,12.3810224 22.9304,12.3333628 22.9634524,12.2966378 L28.6022685,6.03128662 C28.6761603,5.94918462 28.8026183,5.94252893 28.8847203,6.01642074 C28.8899328,6.02111198 28.8948949,6.02607413 28.8995862,6.03128662 L34.5384022,12.2966378 C34.612294,12.3787398 34.6056384,12.5051978 34.5235364,12.5790896 C34.4868114,12.612142 34.4391518,12.6304308 34.3897434,12.6304308 L30.7802235,12.6304308 L30.7802235,19.1947514 C30.7802235,19.3052083 30.6906805,19.3947514 30.5802235,19.3947514 L26.9216311,19.3947514 C26.8111742,19.3947514 26.7216311,19.3052083 26.7216311,19.1947514 L26.7216311,12.6304308 L23.1121113,12.6304308 Z" id="形状结合" fill="#C9D3E6"></path>
        <path d="M20,13 C20.070301,13 20.1299538,13.0480364 20.1510028,13.114656 L20.1591146,13.1676448 L20.1591146,13.1676448 L20.1584516,15.120502 C20.2676163,15.0379137 20.4081745,14.9920707 20.5584191,15.001132 L20.5584191,15.001132 L20.6498921,15.0151733 C20.8856142,15.0694034 21.0640386,15.2551453 21.0996105,15.4827857 C21.4715056,15.2355789 21.9592333,15.0446079 22.5888434,15.0068175 L22.8193135,15 C22.9191036,15 23,15.0573339 23,15.1280591 C23,15.1987841 22.9191041,15.2561183 22.8193135,15.2561183 C22.0381781,15.2561183 21.4859647,15.5251184 21.1053063,15.8454362 L21.1060358,17.2405936 C21.1203394,17.3057338 21.1435547,17.3688156 21.1750902,17.4282328 L21.1750902,17.4282328 L21.2573572,17.586754 C21.7096986,18.3662694 22.7551082,18.9417361 23.4024933,18.9674792 C23.5413573,18.9733122 23.7552382,18.9313736 23.9879959,18.8692598 L24.002,18.865 L24.0031746,18.8473931 C24.0112043,18.8169619 24.0340234,18.7898942 24.0665502,18.7710544 C24.3682513,17.7378118 25.6087969,17.0798195 25.7329215,17.0162626 L25.7427513,17.0112925 C25.8378554,16.9799059 25.9467319,17.0161897 25.9859325,17.0923343 C26.0176745,17.1539898 25.9944305,17.2250237 25.9290073,17.2662971 C25.867192,17.2964228 24.8145102,17.8264577 24.4707595,18.6794244 L24.7853984,18.6151526 C25.0352619,18.5259415 25.2139635,18.4549046 25.2139635,18.4549046 C25.3387163,18.414501 25.4683557,18.4155017 25.5857852,18.4506105 L27.781461,18.004177 C27.8747524,17.9862854 27.9700583,18.0275224 27.9943327,18.0962825 C28.0186075,18.1650427 27.9626586,18.2352876 27.8693672,18.253179 L25.8884628,18.6562347 C25.9156612,18.6914871 25.938948,18.7302631 25.9575026,18.7722125 L25.9575026,18.7722125 L25.9699254,18.8042531 C26.0715951,19.0935512 25.907133,19.4063658 25.6025902,19.5029457 L25.6025902,19.5029457 L25.5878088,19.5064876 C25.5028954,19.5269536 25.0656424,19.633932 24.628379,19.7704183 C25.266308,20.6194891 26.5175718,20.6871627 26.7890101,20.6925104 L26.8388789,20.6929614 C26.9100665,20.6929614 26.9704714,20.7369499 26.9917859,20.7979555 L27,20.846479 C27,20.9312642 26.9278638,21 26.8388789,21 C26.7247647,21 25.1835004,20.9802173 24.3911434,19.9820004 L24.3719047,19.990822 L24.3508438,19.9963961 L24.3508438,19.9963961 L24.3290658,19.9997685 C24.2668365,20.0025371 24.2085354,19.9803 24.1717589,19.9424967 L24.1631731,19.9302549 C23.9855347,19.9988768 23.8348566,20.0692723 23.7445475,20.1360361 C23.211384,20.544883 22.7296085,21.9880187 22.8902004,22.6256862 C22.9154763,22.7277311 22.9872979,22.8626314 23.0827639,23.0097104 C23.0993536,23.0026878 23.1148723,22.9996535 23.1303052,23.0000314 C23.1610565,22.9984829 23.1924637,23.0086458 23.2189845,23.0315806 C23.2212619,23.0335501 23.2234854,23.0356009 23.2256515,23.0377302 C23.281058,23.0878435 24.5449445,24.2288973 25.6520563,23.3769717 L25.7743541,23.2739551 C25.8318126,23.2174761 25.918166,23.22531 25.9672289,23.2914527 C26.0162925,23.3575953 26.0094871,23.4570002 25.9520287,23.5134784 L25.9487369,23.5166131 L25.9453617,23.519628 C25.6115161,23.8334558 25.1929967,24.0033303 24.7619923,23.9999505 C24.3323304,23.9999513 23.9327335,23.8445829 23.6282949,23.6785308 L23.7546294,23.8712469 C23.885377,24.0215005 23.9774045,24.1206917 23.9774045,24.1206917 C23.9847089,24.1302602 23.9916891,24.1400484 23.9983341,24.1500412 C24.0453921,24.220807 24.0734837,24.2978235 24.0838858,24.3757172 L24.9719032,25.7442376 C25.0160557,25.8118475 25.0072073,25.9106016 24.95214,25.9648105 L24.9514551,25.96548 C24.9364651,25.9802462 24.9190578,25.9905751 24.9005771,25.9958812 L24.8722194,26 C24.8333333,25.9997793 24.7966444,25.977834 24.7725351,25.9403739 L23.9964437,24.7445961 C23.9517945,24.8108918 23.8914888,24.8691515 23.8168129,24.9139621 L23.8168129,24.9139621 L23.7247159,24.9586051 C23.4726931,25.0557178 23.1766137,24.9787528 23.0138551,24.7614098 L23.0138551,24.7614098 L23.0058278,24.749338 C22.9886047,24.7235195 22.9445317,24.6578613 22.8820237,24.5676575 C23.0459216,25.1524005 23.1596088,26.1467182 22.3695972,26.8581047 L22.2350945,26.969606 L22.192195,26.9917555 L22.192195,26.9917555 L22.1442215,27 C22.114962,26.9998708 22.0868047,26.991243 22.0632216,26.9757361 L22.0317117,26.9475188 C21.9918452,26.8999116 21.9902635,26.8347605 22.0230474,26.7861749 L22.0540177,26.7533748 C22.0542747,26.7531775 22.0545323,26.7529811 22.0547907,26.7527855 C23.206279,25.8736997 22.5306555,24.382453 22.4481163,24.2127605 L22.4413623,24.1991555 C22.4098156,24.1373726 22.4307234,24.0640807 22.4874876,24.0255741 C22.2556034,23.7232111 21.993106,23.4153792 21.809419,23.2999673 C21.234493,22.9414702 19.6446431,22.9613022 19.0552721,23.2999673 C18.64737,23.5349007 17.8941959,24.7431122 17.8941959,24.7431122 C17.8876444,24.7514819 17.8808454,24.759674 17.8738068,24.7676789 C17.7568287,24.900717 17.5880568,24.9684216 17.418791,24.9664186 C17.2670109,25.4613309 17.2458626,26.110464 17.8245117,26.6511661 L17.9485525,26.7579221 C18.0153999,26.8106374 18.0173614,26.8977102 17.9529338,26.9524054 C17.9210039,26.9795119 17.8768902,26.9947252 17.8308797,26.9944976 L17.8308793,27 C17.7875977,26.999859 17.7460503,26.9860641 17.7148876,26.9614876 C16.889954,26.30653 16.9213646,25.4801721 17.1114217,24.8756814 L17.052696,24.8376945 L16.9823845,24.7681859 C16.8893242,24.6590477 16.8440329,24.5230478 16.8496767,24.3875279 L15.2954764,25.9476031 C15.2740041,25.9695234 15.2470888,25.9852232 15.2176997,25.9934415 L15.1721253,26 C15.141742,25.9998755 15.1122034,25.9920102 15.0862993,25.9775285 L15.0505179,25.9509842 C14.9831607,25.8850599 14.9831607,25.7785897 15.0505179,25.7126653 L16.8142715,23.9423323 C16.7395798,23.9588751 16.6643534,23.9720492 16.5887287,23.9818021 L16.383466,23.999794 C15.9304476,24.0074135 15.4925898,23.8034144 15.1502249,23.429698 L15.0397502,23.2988975 C14.99735,23.2442223 14.9888699,23.1626451 15.0143101,23.0972091 L15.0397502,23.051831 C15.092914,22.9831217 15.1794645,22.9826669 15.2330658,23.050815 L15.2338584,23.051831 C15.9442818,23.9362315 16.8652611,23.6475346 17.3851089,23.3696332 L17.6928759,23.0607457 C17.7292912,23.0182804 17.7825846,22.9975945 17.8352954,23.0002224 C17.9521269,22.8231043 18.0369334,22.6583478 18.0547874,22.5372036 C18.1527478,21.8949578 17.6886382,20.5219921 17.2084697,20.0536571 C17.1557092,20.001369 17.0745821,19.950375 16.9753659,19.9015707 L16.9892794,19.8647708 C16.9635374,19.9465775 16.8958457,20.0007692 16.8203733,20 L16.8203728,19.9897306 C16.7989548,19.9901429 16.77771,19.9852438 16.758077,19.9753649 L15.6469681,19.4941018 C15.499004,19.4615882 15.4034247,19.4434491 15.4034247,19.4434491 C15.3921785,19.4399877 15.3810456,19.4362022 15.3700417,19.4320978 C15.3272876,19.4161505 15.2876298,19.3959368 15.251397,19.3721721 C14.5677058,19.9375778 13.667809,20 13.3058135,20 L13.1505757,20 C13.0648749,19.997227 12.9974914,19.9202984 13.0000717,19.8281749 L13.0005686,19.8189441 L13.0005686,19.8189441 L13.0015403,19.8097572 C13.0089413,19.718116 13.0839329,19.6501933 13.1692059,19.6578967 C13.2269808,19.6578967 14.2071026,19.7344165 14.9556291,19.1947395 L13.1164387,18.3971965 C13.0426582,18.3658165 12.9977033,18.2840191 13.0000906,18.1981101 L13.0112356,18.1330441 L13.0112356,18.1330441 L13.0114258,18.1324578 C13.0463065,18.0264915 13.1490854,17.9731918 13.240989,18.0134099 L13.2410306,18.0134281 L15.017,18.788 L15.0404874,18.7142502 L15.0886015,18.6279086 C15.1960999,18.4694372 15.378599,18.3734879 15.572591,18.3671047 C15.798535,17.2118134 14.2875795,16.3706653 14.1023602,16.2729726 L14.0866855,16.2648415 C13.9956071,16.219415 13.9726186,16.1291141 14.0353393,16.0631495 L14.0359807,16.062479 L14.0366273,16.061811 C14.1000886,15.9962187 14.2249499,15.9803059 14.3155147,16.0262688 C14.3159957,16.0265129 14.3164752,16.0267586 14.3169533,16.0270057 C14.3387273,16.0388334 16.2941921,17.0522164 15.9620226,18.460646 C16.353454,18.5987822 17.3134472,18.9210555 17.7030977,18.9018895 C18.3759842,18.8698556 19.5001202,18.2337094 19.8807226,17.3931477 C19.9087521,17.3424394 19.9282588,17.2878782 19.9385355,17.2314426 L19.9385355,17.2314426 L19.9378,16.986707 C19.8808328,16.9611911 19.8408854,16.9016884 19.8408854,16.8323552 L19.8410328,15.7945769 C19.5020529,15.526705 19.0332923,15.304821 18.3954282,15.2637282 L18.1803608,15.2569094 C18.0807505,15.2569094 18,15.1994008 18,15.1284601 C18,15.0575197 18.0807501,15 18.1803608,15 C18.8871718,14.9983584 19.429436,15.1848761 19.8402423,15.4398252 L19.8408854,13.1676448 C19.8408854,13.0750574 19.9121233,13 20,13 Z" id="形状结合" fill="#C9D3E6" fill-rule="nonzero"></path>
    </g>
</svg>