<?xml version="1.0" encoding="UTF-8"?>
<svg width="40px" height="40px" viewBox="0 0 40 40" version="1.1" xmlns="http://www.w3.org/2000/svg" xmlns:xlink="http://www.w3.org/1999/xlink">
    <title>icon/pcxueguantiqu</title>
    <g id="icon/pcxueguantiqu" stroke="none" stroke-width="1" fill="none" fill-rule="evenodd">
        <path d="M19.197592,8.94759198 C22.5113005,8.94759198 25.197592,10.5145954 25.197592,12.447592 L25.197592,12.447592 L25.197592,31.447592 C25.1697473,30.9188355 25.0223833,30.4762586 24.7554999,30.1198611 C23.7277369,28.7473807 21.4566145,27.9202619 19.197592,27.947592 C16.9385694,27.974922 14.904572,28.6271871 13.7448795,29.9819967 C13.4393704,30.3389075 13.2569412,30.8274392 13.197592,31.447592 L13.197592,12.447592 L13.203438,12.2916883 C13.3432552,10.4310371 15.9734432,8.94759198 19.197592,8.94759198 Z" id="形状结合" fill-opacity="0.4" fill="#C9D3E6" transform="translate(19.197592, 20.197592) rotate(-45.000000) translate(-19.197592, -20.197592) "></path>
        <ellipse id="椭圆形" fill-opacity="0.6" fill="#C9D3E6" transform="translate(27.152543, 28.152543) rotate(-45.000000) translate(-27.152543, -28.152543) " cx="27.1525433" cy="28.1525433" rx="6" ry="3.5"></ellipse>
        <path d="M20.1121113,13.6304308 C20.0016543,13.6304308 19.9121113,13.5408877 19.9121113,13.4304308 C19.9121113,13.3810224 19.9304,13.3333628 19.9634524,13.2966378 L25.6022685,7.03128662 C25.6761603,6.94918462 25.8026183,6.94252893 25.8847203,7.01642074 C25.8899328,7.02111198 25.8948949,7.02607413 25.8995862,7.03128662 L31.5384022,13.2966378 C31.612294,13.3787398 31.6056384,13.5051978 31.5235364,13.5790896 C31.4868114,13.612142 31.4391518,13.6304308 31.3897434,13.6304308 L27.7802235,13.6304308 L27.7802235,20.1947514 C27.7802235,20.3052083 27.6906805,20.3947514 27.5802235,20.3947514 L23.9216311,20.3947514 C23.8111742,20.3947514 23.7216311,20.3052083 23.7216311,20.1947514 L23.7216311,13.6304308 L20.1121113,13.6304308 Z" id="形状结合" fill="#C9D3E6"></path>
        <path d="M15.5625755,23.5 L15.5625755,21.375 L16.5313255,21.375 C17.2448672,21.375 17.7754662,21.2122396 18.1231224,20.8867188 C18.4707787,20.5611979 18.6446068,20.109375 18.6446068,19.53125 C18.6446068,18.96875 18.4851016,18.5351562 18.1660912,18.2304688 C17.8470807,17.9257812 17.367263,17.7734375 16.726638,17.7734375 L16.726638,17.7734375 L13.7852318,17.7734375 L13.7852318,23.5 L15.5625755,23.5 Z M15.9961693,20.2148438 L15.5625755,20.2148438 L15.5625755,18.9375 L16.0664818,18.9375 C16.3972109,18.9375 16.6224714,19 16.742263,19.125 C16.8620547,19.25 16.9219505,19.4023438 16.9219505,19.5820312 C16.9219505,19.7669271 16.8529401,19.9186198 16.7149193,20.0371094 C16.5768984,20.155599 16.3373151,20.2148438 15.9961693,20.2148438 L15.9961693,20.2148438 Z M22.3399193,23.6015625 C22.8529401,23.6015625 23.2754662,23.5273438 23.6074974,23.3789062 C23.9395287,23.2304688 24.2175234,23.0104167 24.4414818,22.71875 C24.6654401,22.4270833 24.8295026,22.0638021 24.9336693,21.6289062 L24.9336693,21.6289062 L23.382888,21.1601562 C23.304763,21.5221354 23.179112,21.7981771 23.0059349,21.9882812 C22.8327578,22.1783854 22.5768984,22.2734375 22.2383568,22.2734375 C21.8893984,22.2734375 21.6185651,22.155599 21.4258568,21.9199219 C21.2331484,21.6842448 21.1367943,21.2486979 21.1367943,20.6132812 C21.1367943,20.1002604 21.2175234,19.7239583 21.3789818,19.484375 C21.5925234,19.1614583 21.8998151,19 22.3008568,19 C22.4779401,19 22.6380964,19.0364583 22.7813255,19.109375 C22.9245547,19.1822917 23.0456484,19.2864583 23.1446068,19.421875 C23.2045026,19.5026042 23.2617943,19.6302083 23.3164818,19.8046875 L23.3164818,19.8046875 L24.8789818,19.4570312 C24.6784609,18.8528646 24.3718203,18.4049479 23.9590599,18.1132812 C23.5462995,17.8216146 22.9792422,17.6757812 22.257888,17.6757812 C21.336013,17.6757812 20.6231224,17.9303385 20.1192162,18.4394531 C19.6153099,18.9485677 19.3633568,19.6770833 19.3633568,20.625 C19.3633568,21.3359375 19.5065859,21.9192708 19.7930443,22.375 C20.0795026,22.8307292 20.4199974,23.1490885 20.8145287,23.3300781 C21.2090599,23.5110677 21.7175234,23.6015625 22.3399193,23.6015625 Z" id="PC" fill-opacity="0.8" fill="#C9D3E6" transform="translate(19.359451, 20.638672) rotate(46.000000) translate(-19.359451, -20.638672) "></path>
    </g>
</svg>