<?xml version="1.0" encoding="UTF-8"?>
<svg width="50px" height="50px" viewBox="0 0 50 50" version="1.1" xmlns="http://www.w3.org/2000/svg" xmlns:xlink="http://www.w3.org/1999/xlink">
    <title>编组 6</title>
    <g id="影像处理-分割" stroke="none" stroke-width="1" fill="none" fill-rule="evenodd">
        <g id="画板" transform="translate(-328.000000, -322.000000)">
            <g id="编组-6" transform="translate(328.000000, 322.000000)">
                <rect id="矩形备份-16" x="0" y="0" width="50" height="50" rx="4"></rect>
                <g id="icon/shoudongpeizhun" transform="translate(15.000000, 16.227003)" fill="#C9D3E6">
                    <path d="M5.88759503,9.34598837 C5.88759503,9.45644532 5.79805198,9.54598837 5.68759503,9.54598837 C5.64080773,9.54598837 5.59550115,9.52958513 5.55955815,9.49963263 L0.071968135,4.92664095 C-0.0128872445,4.85592813 -0.0243520572,4.72981519 0.046360759,4.64495981 C0.0541046031,4.6356672 0.062675522,4.62709628 0.071968135,4.61935244 L5.55955815,0.046360759 C5.64441353,-0.0243520572 5.77052647,-0.0128872445 5.84123928,0.071968135 C5.87119178,0.107911135 5.88759503,0.153217714 5.88759503,0.200005015 L5.887,3.772 L18.6395892,3.77299669 C18.873594,3.77299669 19.0688456,3.81197597 19.2724792,3.92456143 C19.4777404,4.03804676 19.6427616,4.20864578 19.7499442,4.415834 C19.8321057,4.57465532 19.8709053,4.72616213 19.8831387,4.89711054 L19.887595,5.02938521 L19.887595,16.5166082 C19.887595,16.744535 19.8526461,16.9316327 19.7499442,17.1301594 C19.6427616,17.3373476 19.4777404,17.5079466 19.2724792,17.621432 C19.1095723,17.7115003 18.9520299,17.7544607 18.7757188,17.7680422 L18.6395892,17.7729967 L2.08759503,17.7729967 C1.97713808,17.7729967 1.88759503,17.6834536 1.88759503,17.5729967 L1.88759503,15.9729967 C1.88759503,15.8625397 1.97713808,15.7729967 2.08759503,15.7729967 L17.687595,15.7729967 C17.798052,15.7729967 17.887595,15.6834536 17.887595,15.5729967 L17.887595,5.97299669 C17.887595,5.86253974 17.798052,5.77299669 17.687595,5.77299669 L5.887,5.772 L5.88759503,9.34598837 Z" id="形状结合" transform="translate(9.943798, 8.886498) scale(-1, 1) translate(-9.943798, -8.886498) "></path>
                </g>
            </g>
        </g>
    </g>
</svg>