<?xml version="1.0" encoding="UTF-8"?>
<svg width="40px" height="40px" viewBox="0 0 40 40" version="1.1" xmlns="http://www.w3.org/2000/svg" xmlns:xlink="http://www.w3.org/1999/xlink">
    <title>icon/tougutiqu</title>
    <g id="icon/tougutiqu" stroke="none" stroke-width="1" fill="none" fill-rule="evenodd">
        <g id="编组" transform="translate(6.000000, 8.000000)" fill="#C9D3E6">
            <path d="M8.57684553,1.71931062 C10.4948319,0.287178467 14.138753,-0.776179499 18.4393684,0.736232758 C22.7399838,2.24864502 25.4117717,4.98674606 26.5476983,8.87916065 C27.6836249,12.7715752 27.6836249,15.5218824 26.5476983,17.3182179 C25.4117717,19.1145534 24.453753,20.3529445 22.1249278,21.0301725 C19.7961026,21.7074005 17.3622575,21.7247239 16.5774867,21.3848792 C15.7927159,21.0450345 15.7115699,20.1201983 15.9069535,19.6926409 C16.1023372,19.2650835 16.2118484,18.2415137 15.7115699,18.2415137 C15.2112915,18.2415137 14.9773066,17.3825643 14.8187683,17.8912092 C14.66023,18.3998542 13.9560198,19.5181283 13.1203767,20.8951595 C12.2847336,22.2721907 11.7980541,23.2659586 10.4948319,23.2659586 C9.1916097,23.2659586 7.39291175,23.3891709 5.20542472,23.7073079 C3.01793769,24.0254449 0.877676353,23.8310714 0.172443845,22.9378547 C-0.532788663,22.044638 1.15297201,20.0078253 1.15297201,18.40604 C1.15297201,16.8042546 1.78119077,15.0907205 2.25148901,14.1122962 C2.56502116,13.4600133 2.61411257,12.9109623 2.39876325,12.4651433 C3.08785255,12.4231842 3.51224386,12.3299759 3.67193715,12.1855185 C3.91147709,11.9688322 4.16420896,9.90257232 3.67193715,9.44569221 C3.17966534,8.9888121 3.68431513,8.63552174 4.32566421,8.33670079 C4.96701329,8.03787985 5.57681264,7.01712489 5.57681264,6.1053347 C5.57681264,5.19354452 6.65885918,3.15144277 8.57684553,1.71931062 Z" id="路径-5" fill-opacity="0.4"></path>
            <path d="M5.35282239,12.7732584 L6.89661211,12.9642201 C6.77697422,13.9314075 6.87218668,14.3914288 6.93483022,14.4223432 C7.09071477,14.4992716 7.23845766,14.5157563 7.73342263,14.4723056 L8.223082,14.4233913 C8.74193961,14.3678368 9.10918642,14.342036 9.54186718,14.342036 C10.1051309,14.342036 10.5679724,14.4563376 11.1593791,14.7037665 L11.5398585,14.8720015 L11.7086489,14.9497427 C12.4600384,15.2954903 12.8507019,15.4150237 13.4012971,15.4150237 L13.6954093,15.4088339 C13.8317269,15.4030171 13.9832007,15.3926929 14.1805823,15.3761824 L15.1285543,15.2900666 C16.8899048,15.1379178 17.9436537,15.2647134 18.780211,16.0265921 L18.9177103,16.1595133 L17.8047566,17.2462916 C17.4121074,16.8441853 16.7633935,16.7315024 15.5192879,16.8195839 L14.1322902,16.9406394 C13.8422967,16.9625505 13.63783,16.9705792 13.4012971,16.9705792 C12.6542872,16.9705792 12.1149408,16.8284092 11.3298323,16.4849101 L10.9240226,16.3025624 C10.7481142,17.2440706 10.5550427,18.0904797 10.3443885,18.8423697 C9.83426509,20.6631578 8.15937773,21.7369739 5.73366303,21.7369739 C5.32788205,21.7369739 4.93940608,21.8600671 4.35189123,22.1545063 L3.58388867,22.5520823 C2.83345496,22.9329207 2.62012067,22.9822744 2.12212433,22.9571482 C1.27885588,22.9146014 0.668877814,22.3349249 0.21109138,21.2402754 L0.121539286,21.0144858 L1.57737154,20.4664844 C1.85001778,21.1908022 2.04807645,21.3958779 2.20050956,21.4035688 L2.27451734,21.4022227 C2.40216653,21.3903718 2.56563151,21.3244189 2.97943247,21.1133813 L3.4252361,20.8818179 C4.33753977,20.4027965 4.96322018,20.1814184 5.73366303,20.1814184 C7.50595723,20.1814184 8.53941093,19.5188429 8.84650919,18.4227144 C9.05261166,17.687071 9.24272775,16.8462981 9.41638415,15.90105 L9.54186718,15.8975916 C9.24863326,15.8975916 8.98640708,15.911894 8.65335247,15.9433005 L7.96130412,16.0137581 C7.05592642,16.0995694 6.75488585,16.0682044 6.24643206,15.8172844 C5.41962315,15.4092574 5.18278677,14.4537513 5.32554981,13.0171374 L5.35282239,12.7732584 Z M4.03381378,10.4671379 C4.40746522,11.3041848 4.53201569,12.0966675 4.40746522,12.8445858 C4.28291474,13.5925042 4.06801347,14.0982833 3.7627614,14.361923 C3.57107518,13.9810119 3.18404967,13.6659216 2.60168487,13.416652 C2.19298791,13.2417174 3.1275981,13.3123688 3.7627614,12.4145305 C3.94269494,12.1601845 4.03304573,11.5110536 4.03381378,10.4671379 Z M13.7558715,6.62008526 L14.0259383,8.15201771 L13.0724361,8.32399878 C12.2793269,8.47069718 11.6319716,8.60075471 11.1348411,8.71274893 L10.5788148,8.84592593 C10.8231011,9.38163069 10.9296968,9.77217883 10.8507647,10.2222585 L10.8123714,10.3942223 C10.7621655,10.5806093 10.67949,10.7580611 10.564928,10.9237251 L10.4226282,11.1371064 C10.2060613,11.4800298 10.2303791,11.5718076 10.4485057,11.6495418 L10.5127646,11.670572 C10.6644441,11.7168239 10.8245404,11.7755608 11.0090436,11.8512388 L12.2202483,12.3856507 L12.6185059,12.5474066 C13.0612417,12.7153609 13.4090463,12.798854 13.6756734,12.798854 C14.2202535,12.798854 15.0546308,12.5588916 16.1476382,12.067668 L16.4262602,11.9396209 L17.0872302,13.3477657 C15.6677148,14.014073 14.543738,14.3544095 13.6756734,14.3544095 C13.1853246,14.3544095 12.6702565,14.2307636 12.0667642,14.0018255 C11.9215336,13.9467315 11.776663,13.8878714 11.6149365,13.8186429 L10.3988255,13.2799173 C10.2339342,13.2098805 10.1883458,13.1979151 10.0590509,13.158489 C8.64431811,12.7270915 8.37722965,11.4769993 9.18725745,10.1878366 L9.28549829,10.0389581 C9.29955093,10.018637 9.30663638,10.0034291 9.31035246,9.98963332 C9.32663657,9.92917927 9.30490417,9.82046335 9.21547503,9.60856561 L8.97825024,9.07394759 C8.91048053,8.90851827 8.90168823,8.84418885 8.88337522,8.68166219 C8.8216106,8.13350583 9.12639119,7.68074399 9.67251045,7.49312934 L9.90754595,7.41891096 C10.5620724,7.22668872 11.7199413,6.9839777 13.4106224,6.68140148 L13.7558715,6.62008526 Z M6.31370595,8.61617163 C6.63694824,8.08247813 8.04478227,9.87824633 8.19450001,10.6147164 C8.34421774,11.3511866 8.07155366,13.3633086 6.9198052,12.7193183 C5.76805675,12.0753279 5.99046366,9.14986512 6.31370595,8.61617163 Z" id="形状结合" fill-opacity="0.8" fill-rule="nonzero"></path>
        </g>
        <path d="M23.1121113,12.6304308 C23.0016543,12.6304308 22.9121113,12.5408877 22.9121113,12.4304308 C22.9121113,12.3810224 22.9304,12.3333628 22.9634524,12.2966378 L28.6022685,6.03128662 C28.6761603,5.94918462 28.8026183,5.94252893 28.8847203,6.01642074 C28.8899328,6.02111198 28.8948949,6.02607413 28.8995862,6.03128662 L34.5384022,12.2966378 C34.612294,12.3787398 34.6056384,12.5051978 34.5235364,12.5790896 C34.4868114,12.612142 34.4391518,12.6304308 34.3897434,12.6304308 L30.7802235,12.6304308 L30.7802235,19.1947514 C30.7802235,19.3052083 30.6906805,19.3947514 30.5802235,19.3947514 L26.9216311,19.3947514 C26.8111742,19.3947514 26.7216311,19.3052083 26.7216311,19.1947514 L26.7216311,12.6304308 L23.1121113,12.6304308 Z" id="形状结合" fill="#C9D3E6"></path>
    </g>
</svg>