<?xml version="1.0" encoding="UTF-8"?>
<svg width="50px" height="50px" viewBox="0 0 50 50" version="1.1" xmlns="http://www.w3.org/2000/svg" xmlns:xlink="http://www.w3.org/1999/xlink">
    <title>编组 21</title>
    <g id="影像处理-分割" stroke="none" stroke-width="1" fill="none" fill-rule="evenodd">
        <g id="编组-21">
            <rect id="矩形备份-16" x="0" y="0" width="50" height="50" rx="4"></rect>
            <path d="M23.2740356,14.1321431 C26.6501859,14.1321431 28.6501859,15.2267381 29.2740356,17.415928 L29.2740356,36.415928 C29.2461909,35.8871716 29.0988268,35.4445946 28.8319435,35.0881971 C27.8041805,33.7157167 25.5330581,32.888598 23.2740356,32.915928 C21.015013,32.943258 18.9810156,33.5955231 17.8213231,34.9503328 C17.515814,35.3072435 17.3333848,35.7957753 17.2740356,36.415928 L17.2740356,17.415928 C17.8978852,15.2267381 19.8978852,14.1321431 23.2740356,14.1321431 Z" id="矩形" fill-opacity="0.4" fill="#C9D3E6" transform="translate(23.274036, 25.274036) rotate(-45.000000) translate(-23.274036, -25.274036) "></path>
            <ellipse id="椭圆形备份" fill-opacity="0.4" fill="#C9D3E6" transform="translate(17.717514, 19.717514) rotate(-45.000000) translate(-17.717514, -19.717514) " cx="17.7175144" cy="19.7175144" rx="6" ry="3.5"></ellipse>
            <ellipse id="椭圆形" fill-opacity="0.6" fill="#C9D3E6" transform="translate(31.152543, 33.152543) rotate(-45.000000) translate(-31.152543, -33.152543) " cx="31.1525433" cy="33.1525433" rx="6" ry="3.5"></ellipse>
            <path d="M26.368767,19.9832949 L32.9330876,19.9832949 C33.0435446,19.9832949 33.1330876,20.0728379 33.1330876,20.1832949 L33.1330876,23.8418873 C33.1330876,23.9523442 33.0435446,24.0418873 32.9330876,24.0418873 L26.368767,24.0418873 L26.368767,24.0418873 L26.368767,19.9832949 Z" id="矩形" fill="#C9D3E6" transform="translate(29.750927, 22.012591) rotate(-270.000000) translate(-29.750927, -22.012591) "></path>
            <path d="M29.8995862,12.0312866 L35.5384022,18.2966378 C35.612294,18.3787398 35.6056384,18.5051978 35.5235364,18.5790896 C35.4868114,18.612142 35.4391518,18.6304308 35.3897434,18.6304308 L24.1121113,18.6304308 C24.0016543,18.6304308 23.9121113,18.5408877 23.9121113,18.4304308 C23.9121113,18.3810224 23.9304,18.3333628 23.9634524,18.2966378 L29.6022685,12.0312866 C29.6761603,11.9491846 29.8026183,11.9425289 29.8847203,12.0164207 C29.8899328,12.021112 29.8948949,12.0260741 29.8995862,12.0312866 Z" id="三角形" fill="#C9D3E6" transform="translate(29.750927, 15.248270) rotate(-360.000000) translate(-29.750927, -15.248270) "></path>
        </g>
    </g>
</svg>