<?xml version="1.0" encoding="UTF-8"?>
<svg width="50px" height="50px" viewBox="0 0 50 50" version="1.1" xmlns="http://www.w3.org/2000/svg" xmlns:xlink="http://www.w3.org/1999/xlink">
    <title>icon/xueguantiqu</title>
    <g id="icon/xueguantiqu" stroke="none" stroke-width="1" fill="none" fill-rule="evenodd">
        <rect id="矩形备份-16" x="0" y="0" width="50" height="50" rx="4"></rect>
        <path d="M23.197592,13.947592 C26.5113005,13.947592 29.197592,15.5145954 29.197592,17.447592 L29.197592,17.447592 L29.197592,36.447592 C29.1697473,35.9188355 29.0223833,35.4762586 28.7554999,35.1198611 C27.7277369,33.7473807 25.4566145,32.9202619 23.197592,32.947592 C20.9385694,32.974922 18.904572,33.6271871 17.7448795,34.9819967 C17.4393704,35.3389075 17.2569412,35.8274392 17.197592,36.447592 L17.197592,17.447592 L17.203438,17.2916883 C17.3432552,15.4310371 19.9734432,13.947592 23.197592,13.947592 Z" id="形状结合" fill-opacity="0.4" fill="#C9D3E6" transform="translate(23.197592, 25.197592) rotate(-45.000000) translate(-23.197592, -25.197592) "></path>
        <ellipse id="椭圆形" fill-opacity="0.6" fill="#C9D3E6" transform="translate(31.152543, 33.152543) rotate(-45.000000) translate(-31.152543, -33.152543) " cx="31.1525433" cy="33.1525433" rx="6" ry="3.5"></ellipse>
        <path d="M24.1121113,18.6304308 C24.0016543,18.6304308 23.9121113,18.5408877 23.9121113,18.4304308 C23.9121113,18.3810224 23.9304,18.3333628 23.9634524,18.2966378 L29.6022685,12.0312866 C29.6761603,11.9491846 29.8026183,11.9425289 29.8847203,12.0164207 C29.8899328,12.021112 29.8948949,12.0260741 29.8995862,12.0312866 L35.5384022,18.2966378 C35.612294,18.3787398 35.6056384,18.5051978 35.5235364,18.5790896 C35.4868114,18.612142 35.4391518,18.6304308 35.3897434,18.6304308 L31.7802235,18.6304308 L31.7802235,25.1947514 C31.7802235,25.3052083 31.6906805,25.3947514 31.5802235,25.3947514 L27.9216311,25.3947514 C27.8111742,25.3947514 27.7216311,25.3052083 27.7216311,25.1947514 L27.7216311,18.6304308 L24.1121113,18.6304308 Z" id="形状结合" fill="#C9D3E6"></path>
    </g>
</svg>