<?xml version="1.0" encoding="UTF-8"?>
<svg width="40px" height="40px" viewBox="0 0 40 40" version="1.1" xmlns="http://www.w3.org/2000/svg" xmlns:xlink="http://www.w3.org/1999/xlink">
    <title>icon/xueguanshengzhang</title>
    <g id="icon/xueguanshengzhang" stroke="none" stroke-width="1" fill="none" fill-rule="evenodd">
        <path d="M19.197592,7.94759198 C22.5113005,7.94759198 25.197592,9.51459535 25.197592,11.447592 L25.197592,11.447592 L25.197592,30.447592 C25.1697473,29.9188355 25.0223833,29.4762586 24.7554999,29.1198611 C23.7277369,27.7473807 21.4566145,26.9202619 19.197592,26.947592 C16.9385694,26.974922 14.904572,27.6271871 13.7448795,28.9819967 C13.4393704,29.3389075 13.2569412,29.8274392 13.197592,30.447592 L13.197592,11.447592 L13.203438,11.2916883 C13.3432552,9.4310371 15.9734432,7.94759198 19.197592,7.94759198 Z" id="形状结合" fill-opacity="0.4" fill="#C9D3E6" transform="translate(19.197592, 19.197592) rotate(-45.000000) translate(-19.197592, -19.197592) "></path>
        <ellipse id="椭圆形" fill-opacity="0.6" fill="#C9D3E6" transform="translate(27.152543, 27.152543) rotate(-45.000000) translate(-27.152543, -27.152543) " cx="27.1525433" cy="27.1525433" rx="6" ry="3.5"></ellipse>
        <path d="M29.5,6 C31.4329966,6 33,7.56700338 33,9.5 C33,11.4329966 31.4329966,13 29.5,13 C29.3337207,13 29.1701497,12.9884046 29.0100514,12.9659784 L21,19 L26.2349122,10.7632473 C26.0832021,10.3713938 26,9.94541337 26,9.5 C26,7.56700338 27.5670034,6 29.5,6 Z M29.5,7.5 C28.3954305,7.5 27.5,8.3954305 27.5,9.5 C27.5,9.68865121 27.525724,9.87241184 27.5757122,10.0483951 L27.6337344,10.221679 L27.9073159,10.9283154 L26.699,12.828 L28.6033562,11.3943646 L29.2181365,11.4804817 C29.3106095,11.4934351 29.40466,11.5 29.5,11.5 C30.6045695,11.5 31.5,10.6045695 31.5,9.5 C31.5,8.3954305 30.6045695,7.5 29.5,7.5 Z" id="形状结合" fill="#C9D3E6" fill-rule="nonzero"></path>
    </g>
</svg>