<?xml version="1.0" encoding="UTF-8"?>
<svg width="40px" height="40px" viewBox="0 0 40 40" version="1.1" xmlns="http://www.w3.org/2000/svg" xmlns:xlink="http://www.w3.org/1999/xlink">
    <title>icon/xuezhongfenge</title>
    <g id="icon/xuezhongfenge" stroke="none" stroke-width="1" fill="none" fill-rule="evenodd">
        <path d="M19.7232589,31.3044396 C18.7944701,31.9601594 17.812924,32.1522583 16.7786204,31.8807363 C15.670438,31.5898199 15.0798988,30.82782 15.0070027,29.5947367 C13.8569985,29.622066 12.8687785,29.2082959 12.0423428,28.3534264 C11.215907,27.498557 10.8963589,26.2594259 11.0836985,24.636033 C9.92816465,24.34174 9.24585857,23.3190049 9.03678022,21.5678278 C8.82770187,19.8166506 9.51000795,18.3969282 11.0836985,17.3086603 C10.5672982,15.5710155 10.7400663,14.30364 11.602003,13.5065339 C12.4639397,12.7094277 13.4910661,12.3789565 14.6833823,12.5151204 C14.9491689,11.1173406 15.7079797,10.3005642 16.9598149,10.0647911 C18.2116501,9.82901808 19.1988709,10.2367234 19.9214775,11.2879072 L19.9214775,11.2879072 C20.6440841,10.2367234 21.631305,9.82901808 22.8831402,10.0647911 C24.1349754,10.3005642 24.8937862,11.1173406 25.1595728,12.5151204 C26.351889,12.3789565 27.3790154,12.7094277 28.2409521,13.5065339 C29.1028887,14.30364 29.2756569,15.5710155 28.7592566,17.3086603 C30.3329471,18.3969282 31.0152532,19.8166506 30.8061749,21.5678278 C30.5970965,23.3190049 29.9147904,24.34174 28.7592566,24.636033 C28.9465962,26.2594259 28.6270481,27.498557 27.8006123,28.3534264 C26.9741766,29.2082959 25.9859566,29.622066 24.8359524,29.5947367 C24.7630563,30.82782 24.1725171,31.5898199 23.0643347,31.8807363 C21.9561523,32.1716527 20.9085332,31.9303513 19.9214775,31.156832 Z" id="形状结合" fill-opacity="0.3" fill="#C9D3E6"></path>
        <path d="M23.0682579,9.08206915 C24.65473,9.38086839 25.6924074,10.426176 26.0845495,12.0605931 C26.0890658,12.0794165 26.094117,12.1014498 26.0997033,12.1266931 C26.1001339,12.1286388 26.1005354,12.1305908 26.1009076,12.1325485 C26.1181078,12.2230046 26.0714864,12.3108077 25.9926446,12.349471 L25.9417259,12.3664004 L24.3609317,12.6669869 C24.2588035,12.6864065 24.1598659,12.6206918 24.1381643,12.5190241 C23.9412928,11.6933772 23.5370796,11.2550923 22.8497323,11.0808535 L22.6980823,11.0475131 L22.5291355,11.0204682 C21.9275377,10.9420041 21.4629901,11.0812939 21.0671032,11.4667847 L20.9989722,11.5372568 L20.9999722,30.6772568 L21.0535611,30.7088199 C21.5615152,30.9787748 22.0699675,31.0577639 22.6074703,30.9588962 L22.8104513,30.9135093 C23.4438917,30.7472206 23.7479771,30.39825 23.8247222,29.6924832 L23.8377251,29.5357228 L23.8832989,28.7648126 C23.888596,28.6752101 23.9522331,28.6025147 24.0356134,28.5822528 L24.0877019,28.5766718 L24.8597401,28.5950189 L25.0737053,28.593449 C25.8471827,28.5629568 26.5004417,28.2596132 27.0816799,27.6583774 C27.6386525,27.082242 27.8874738,26.2229506 27.7916919,25.0149018 L27.7658793,24.7506722 L27.6857413,24.056235 C27.6765616,23.9766883 27.7155567,23.9015122 27.7811844,23.8619755 L27.8350621,23.839494 L28.5124835,23.6669674 L28.6325515,23.6306483 C29.2587616,23.4096752 29.658168,22.7482536 29.8132568,21.4492767 C29.8876339,20.8263162 29.8223971,20.2766445 29.6214165,19.7838286 C29.61614,19.7708902 29.6099513,19.7563175 29.6028504,19.7401105 C29.5687697,19.6623252 29.5880484,19.5740799 29.6456233,19.5173618 L29.6957496,19.4813907 L31.1242185,18.7584405 C31.1258871,18.757596 31.1275674,18.756775 31.1292591,18.7559776 C31.2125209,18.7167322 31.3091577,18.7399266 31.3663108,18.806569 L31.3954418,18.8516162 L31.4259096,18.9162556 C31.7582279,19.6760852 31.8910475,20.5050451 31.8275757,21.3895174 L31.7991527,21.6863789 L31.7639864,21.9477964 C31.546511,23.3964816 30.9970469,24.4758638 30.1082915,25.1037594 L29.9260143,25.2232944 L29.8975502,25.2393103 C29.8421429,25.2704864 29.8085528,25.3297784 29.8102947,25.3933306 C29.8289384,26.7940243 29.4631774,27.9627408 28.6912438,28.8603049 L28.5196045,29.0484755 L28.3258086,29.2398797 C27.6771846,29.851055 26.9389936,30.2594283 26.1260587,30.4572985 L25.8523325,30.5154483 L25.8146196,30.521039 C25.7409558,30.5319593 25.6806502,30.5852713 25.6607779,30.6570396 C25.3225596,31.767526 24.5216785,32.5320505 23.3182778,32.8479633 C22.1328516,33.1591575 20.983267,32.9905357 19.9215963,32.3660054 C18.859718,32.9905357 17.7101334,33.1591575 16.5247072,32.8479633 C15.396519,32.5517951 14.6221078,31.8613392 14.2510302,30.8611765 L14.1822071,30.6570396 L14.1604269,30.6074029 C14.1414616,30.5770733 14.1141598,30.5527597 14.0818441,30.5374213 L14.0300256,30.5215148 L13.9906525,30.5154483 C13.1612909,30.3644516 12.4050261,30.0020962 11.7366813,29.4360831 L11.5171763,29.2398797 L11.3233804,29.0484755 C10.493311,28.1898474 10.0709692,27.0572686 10.0345869,25.6899143 L10.0319722,25.4432568 L10.0292364,25.4426617 L10.0319722,25.4322568 L10.0326903,25.3933306 L10.0273828,25.3468014 C10.0197347,25.3168196 10.004146,25.2894043 9.98229147,25.2675004 L9.94501956,25.2391465 L9.91697065,25.2232944 C8.98294396,24.6559622 8.38869534,23.6316645 8.12692234,22.232585 L8.07899858,21.9477964 L8.04383227,21.6863789 C7.83080103,19.9020935 8.3962625,18.3648462 9.68644578,17.1521147 L9.88540197,16.9726485 L9.91859462,16.9320046 C9.92976111,16.9117313 9.93598503,16.8889913 9.93662033,16.8657006 L9.93330106,16.830591 L9.92790449,16.8059417 C9.62123076,15.2786794 9.83552514,14.0129129 10.627901,13.0798151 L10.7737445,12.9186186 L10.9230461,12.7723558 C11.6635397,12.0875583 12.5173866,11.6732923 13.4595946,11.5361664 L13.7187325,11.5056446 L13.891617,11.4936606 C13.9149756,11.4920415 13.9352116,11.47687 13.9433141,11.454902 C14.376273,10.3071453 15.1904366,9.52645631 16.3405934,9.18639494 L16.5601742,9.127815 L16.7747271,9.08206915 C17.9891862,8.85333558 19.0622145,9.10661246 19.9217656,9.81193148 L20.0058841,9.74445353 C20.8508184,9.09062512 21.8933542,8.86078552 23.0682579,9.08206915 Z M17.1449027,11.0475131 C16.364708,11.1944565 15.9157545,11.6344025 15.7048207,12.5190241 L15.6657799,12.7019224 L15.5270345,13.4315885 C15.5113872,13.5138783 15.447084,13.5753705 15.3687257,13.5905931 L15.3078623,13.5929365 L14.5699187,13.5086625 C13.665101,13.4053313 12.9277517,13.6425686 12.28096,14.240712 C11.9303073,14.5649903 11.7574779,15.0512327 11.7958543,15.7410394 C11.9204645,15.6907102 12.0464661,15.6476032 12.1731695,15.610874 C12.7510882,15.4433454 13.418373,15.4247311 14.1794263,15.5393899 L14.2684859,15.5545141 C14.3773837,15.5730071 14.4506713,15.6762779 14.4321782,15.7851757 C14.4319784,15.7863525 14.431768,15.7875275 14.4315471,15.7887005 L14.135554,17.3606307 C14.1155663,17.4671437 14.0143613,17.538315 13.9073541,17.5211687 C13.891077,17.5185605 13.8765683,17.5163176 13.863828,17.5144398 C13.3791043,17.4429976 12.9998144,17.4535811 12.7300106,17.5317926 C12.5446447,17.5855269 12.3529143,17.668562 12.1550573,17.7823002 L11.6524808,18.1311484 C10.3762269,19.0137273 9.86575648,20.0758992 10.0297282,21.4492767 C10.1661423,22.5918401 10.4915785,23.2411438 10.9941183,23.5313216 C11.1425562,23.3380496 11.3045808,23.1557574 11.4797482,22.9828451 C12.0841458,22.3862288 12.8097372,21.9299589 13.647611,21.6152498 L13.773732,21.5712768 C13.8606481,21.540973 13.9543221,21.5741667 14.0041768,21.6464315 L14.0284267,21.6942834 C14.0289409,21.6957582 14.0294378,21.6972389 14.0299173,21.6987253 L14.5208913,23.2207018 C14.5540813,23.3235108 14.4996132,23.4340855 14.3978848,23.4704533 C14.3728897,23.479389 14.3512257,23.4873394 14.3328927,23.4943045 C13.7606261,23.7117215 13.2807632,24.0152961 12.8847697,24.4061914 C12.5046327,24.7814343 12.2229504,25.2216049 12.0357359,25.7364264 C12.074943,26.5747727 12.3224834,27.2044579 12.7613051,27.6583774 C13.3425433,28.2596132 13.9958023,28.5629568 14.7692797,28.593449 L14.9832449,28.5950189 L15.755283,28.5766718 C15.8450167,28.5745394 15.9227266,28.6319456 15.9498158,28.7133642 L15.959686,28.7648126 L16.0052599,29.5357228 C16.0532475,30.347465 16.3538475,30.7353429 17.0325337,30.9135093 C17.5777451,31.0566364 18.0903372,31.0235453 18.598862,30.801127 L18.7894239,30.7088199 L18.921,30.632 L18.921,11.624 L18.8926565,11.5898464 C18.4364403,11.071453 17.8924331,10.9067218 17.1449027,11.0475131 Z" id="形状结合" fill-opacity="0.5" fill="#C9D3E6"></path>
        <path d="M16.0883487,19.3188032 C16.1294942,19.2231617 16.1900398,19.1328727 16.2699857,19.047936 C16.5260744,18.7758606 15.9482748,18.2975356 16.4571405,18.0699399 C16.9660063,17.8423442 17.1038258,18.2430693 17.6595172,18.2430693 C18.2152086,18.2430693 19.1096361,18.7136406 20.3107509,19.4586435 C21.5118657,20.2036465 22,21.7285783 22,22.1572236 C22,22.5858689 20.4031118,23.3609691 19.3440878,23.7923139 C18.2850637,24.2236586 17.4315767,23.9527782 16.6069021,23.2598461 C15.7822275,22.5669141 15.9330694,20.5736971 16.2699857,20.2577934 C16.6069021,19.9418897 16.7566637,19.9252758 16.6069021,19.7135676 C16.5419014,19.6216804 16.4367545,19.5827982 16.2914615,19.596921 L16.291466,19.5969679 C16.1815013,19.6076567 16.0836923,19.5271777 16.0730035,19.4172129 C16.0697402,19.3836405 16.0750189,19.3497881 16.0883487,19.3188032 Z" id="路径-39" fill="#C9D3E6"></path>
        <path d="M29.069505,11.2700958 L32.7313393,14.9319301 C32.8094442,15.0100349 32.8094442,15.1366679 32.7313393,15.2147728 L27.4014145,20.5446976 C27.3683309,20.5777812 27.3246955,20.598219 27.2781003,20.6024549 L23.2500826,20.9686383 C23.1400793,20.9786386 23.0427971,20.8975701 23.0327968,20.7875668 L23.0327968,20.7513525 L23.0327968,20.7513525 L23.3989803,16.7233348 C23.4032162,16.6767397 23.4236539,16.6331043 23.4567375,16.6000206 L28.7866623,11.2700958 C28.8647672,11.191991 28.9914002,11.191991 29.069505,11.2700958 Z M32.1923743,7.98286505 L36.0185701,11.8090608 C36.096675,11.8871657 36.096675,12.0137987 36.0185701,12.0919035 L33.8359897,14.2744839 C33.7578848,14.3525888 33.6312519,14.3525888 33.553147,14.2744839 L29.7269512,10.4482881 C29.6488464,10.3701833 29.6488464,10.2435503 29.7269512,10.1654454 L31.9095316,7.98286505 C31.9876365,7.90476019 32.1142694,7.90476019 32.1923743,7.98286505 Z" id="形状结合备份-4" fill="#C9D3E6" transform="translate(29.554973, 14.446879) rotate(8.000000) translate(-29.554973, -14.446879) "></path>
    </g>
</svg>