<?xml version="1.0" encoding="UTF-8"?>
<svg width="40px" height="40px" viewBox="0 0 40 40" version="1.1" xmlns="http://www.w3.org/2000/svg" xmlns:xlink="http://www.w3.org/1999/xlink">
    <title>icon/yingliuguantiqu</title>
    <g id="icon/yingliuguantiqu" stroke="none" stroke-width="1" fill="none" fill-rule="evenodd">
        <g id="编组" transform="translate(2.000000, 8.000000)" fill="#C9D3E6" fill-rule="nonzero">
            <path d="M21.831038,4.97435272 L21.9412714,5.15865089 L25.8843724,11.9883022 L21.3719242,14.5935653 L17.4288232,7.76391405 C16.9734615,6.97520443 15.9303599,6.70482512 15.091459,7.18916475 C14.2906901,7.65148893 13.9924291,8.61877866 14.3630156,9.39173181 L14.4205245,9.50075616 L18.3636254,16.3304074 L18.3343684,16.3468421 L18.9805635,17.465502 C20.8843926,20.7630306 19.7171369,24.9810658 16.4024439,26.8948047 C13.1502923,28.7724353 9.01073923,27.7507662 7.05760181,24.5971686 L6.94736842,24.4128704 L11.4598166,21.8076072 C11.9151783,22.5963168 12.9582799,22.8666961 13.7971808,22.3823565 C14.5979497,21.9200323 14.8962107,20.9527426 14.5256242,20.1797895 L14.4681153,20.0707651 L10.5250144,13.2411139 L10.5533684,13.2238421 L9.90807629,12.1060193 C8.00424725,8.80849068 9.17150289,4.59045549 12.4861959,2.67671659 C15.7383475,0.799085978 19.8779006,1.82075507 21.831038,4.97435272 Z" id="形状结合" fill-opacity="0.3" transform="translate(16.415870, 14.785761) rotate(-240.000000) translate(-16.415870, -14.785761) "></path>
            <path d="M20.6868682,5.60690599 L20.7900763,5.7785283 L24.7331773,12.6081796 L22.4769532,13.9108111 L18.5338523,7.08115988 C17.7163737,5.6652455 15.8749091,5.18792488 14.4170602,6.02961432 C13.0078063,6.84324745 12.486731,8.58359341 13.1919838,9.97770265 L13.2693294,10.1206336 L17.2124304,16.9502848 L17.2091853,16.9511067 L17.9411563,18.217286 C19.4828685,20.8876099 18.5355779,24.3107718 15.839833,25.8671609 C13.2026912,27.3897154 9.85503318,26.569938 8.2673934,24.0336451 L8.16418529,23.8620228 L10.4204094,22.5593913 C11.2378879,23.9753056 13.0793525,24.4526262 14.5372014,23.6109368 C15.9464553,22.7973037 16.4675306,21.0569577 15.7622778,19.6628485 L15.6849322,19.5199176 L11.7418312,12.6902663 L11.7431853,12.6891067 L11.0131053,11.4232651 C9.47139311,8.75294126 10.4186837,5.32977932 13.1144287,3.77339025 C15.7515705,2.25083571 19.0992284,3.07061315 20.6868682,5.60690599 Z" id="形状结合" fill-opacity="0.5" transform="translate(16.448681, 14.820276) rotate(-240.000000) translate(-16.448681, -14.820276) "></path>
        </g>
        <path d="M23.134049,28.7683504 C23.1954673,28.7308108 23.2727311,28.7308108 23.3341494,28.7683504 L23.3341494,28.7683504 L24.7591144,29.6562958 C24.7812587,29.670861 24.800194,29.6897964 24.8147592,29.7119406 C24.8738186,29.8017332 24.8489058,29.9224006 24.7591144,29.98146 L24.7591144,29.98146 L23.3466554,30.8694035 C23.2844251,30.9092069 23.2035881,30.9041483 23.1468053,30.8568973 C23.0828062,30.8288796 23.0429258,30.7640742 23.0467551,30.6943158 L23.0467551,30.6943158 L23.0467551,30.4942154 L21.4967289,30.4942154 C21.3941516,30.4917745 21.3115759,30.4091987 21.3091349,30.3066215 L21.3091349,30.3066215 L21.3091349,29.3061198 C21.3115761,29.2035426 21.3941519,29.1209668 21.496729,29.1185259 L21.496729,29.1185259 L23.0339989,29.1185259 L23.0339989,28.9309319 C23.0367469,28.8630085 23.074652,28.8014127 23.134049,28.7683504 Z M17.0218829,20.1056498 C17.08128,20.138712 17.119185,20.2003078 17.1219331,20.2682312 L17.1219331,20.4558252 L18.659203,20.4558252 C18.7617801,20.4582661 18.8443559,20.5408419 18.846797,20.6434192 L18.846797,21.6439208 C18.8443561,21.7464981 18.7617803,21.8290739 18.6592031,21.8315148 L17.1091769,21.8315148 L17.1091769,22.0316151 C17.1130062,22.1013735 17.0731258,22.166179 17.0091267,22.1941966 C16.9523439,22.2414476 16.8715069,22.2465062 16.8092766,22.2067029 L15.3968176,21.3187593 C15.3070262,21.2596999 15.2821133,21.1390325 15.3411727,21.04924 C15.3557379,21.0270957 15.3746733,21.0081603 15.3968176,20.9935951 L16.8217826,20.1056498 C16.8832009,20.0681102 16.9604647,20.0681102 17.0218829,20.1056498 Z M23.8847203,6.01642074 C23.8899328,6.02111198 23.8948949,6.02607413 23.8995862,6.03128662 L29.5384022,12.2966378 C29.612294,12.3787398 29.6056384,12.5051978 29.5235364,12.5790896 C29.4868114,12.612142 29.4391518,12.6304308 29.3897434,12.6304308 L25.7802235,12.6304308 L25.7802235,19.1947514 C25.7802235,19.3052083 25.6906805,19.3947514 25.5802235,19.3947514 L21.9216311,19.3947514 C21.8111742,19.3947514 21.7216311,19.3052083 21.7216311,19.1947514 L21.7216311,12.6304308 L18.1121113,12.6304308 C18.0016543,12.6304308 17.9121113,12.5408877 17.9121113,12.4304308 C17.9121113,12.3810224 17.9304,12.3333628 17.9634524,12.2966378 L23.6022685,6.03128662 C23.6761603,5.94918462 23.8026183,5.94252893 23.8847203,6.01642074 Z" id="形状结合" fill="#C9D3E6"></path>
    </g>
</svg>