<?xml version="1.0" encoding="UTF-8"?>
<svg width="40px" height="40px" viewBox="0 0 40 40" version="1.1" xmlns="http://www.w3.org/2000/svg" xmlns:xlink="http://www.w3.org/1999/xlink">
    <title>icon/tianjiawenjian</title>
    <g id="icon/tianjiawenjian" stroke="none" stroke-width="1" fill="none" fill-rule="evenodd">
        <path d="M15.6671423,10 C15.7306219,10 15.7903321,10.0301355 15.8280379,10.0812035 L15.8280379,10.0812035 L17.5414588,12.4018256 C17.5791646,12.4528936 17.6388747,12.4830291 17.7023544,12.4830291 L17.7023544,12.4830291 L30.8,12.4830291 C30.9104569,12.4830291 31,12.5725721 31,12.6830291 L31,12.6830291 L31,30.2561183 C31,30.3665753 30.9104569,30.4561183 30.8,30.4561183 L30.8,30.4561183 L9.2,30.4561183 C9.08954305,30.4561183 9,30.3665753 9,30.2561183 L9,30.2561183 L9,10.2 C9,10.0895431 9.08954305,10 9.2,10 L9.2,10 Z M20.8,16.4561183 L19.2,16.4561183 C19.0895431,16.4561183 19,16.5456614 19,16.6561183 L19,16.6561183 L19,20.4561183 L15.2,20.4561183 C15.0895431,20.4561183 15,20.5456614 15,20.6561183 L15,20.6561183 L15,22.2561183 C15,22.3665753 15.0895431,22.4561183 15.2,22.4561183 L15.2,22.4561183 L18.999,22.4561183 L19,26.2561183 C19,26.3665753 19.0895431,26.4561183 19.2,26.4561183 L19.2,26.4561183 L20.8,26.4561183 C20.9104569,26.4561183 21,26.3665753 21,26.2561183 L21,26.2561183 L20.999,22.4561183 L24.8,22.4561183 C24.9104569,22.4561183 25,22.3665753 25,22.2561183 L25,22.2561183 L25,20.6561183 C25,20.5456614 24.9104569,20.4561183 24.8,20.4561183 L24.8,20.4561183 L21,20.4561183 L21,16.6561183 C21,16.5456614 20.9104569,16.4561183 20.8,16.4561183 L20.8,16.4561183 Z" id="形状结合" fill="#C9D3E6"></path>
    </g>
</svg>