<?xml version="1.0" encoding="UTF-8"?>
<svg width="40px" height="40px" viewBox="0 0 40 40" version="1.1" xmlns="http://www.w3.org/2000/svg" xmlns:xlink="http://www.w3.org/1999/xlink">
    <title>icon/zhongzizhuizong</title>
    <g id="icon/zhongzizhuizong" stroke="none" stroke-width="1" fill="none" fill-rule="evenodd">
        <path d="M11.8981246,15.7418115 C11.2667649,14.7893998 10.8296282,14.6347453 10.1719618,14.1177218 C9.51429533,13.6006983 8.30787768,12.9934234 7.4923713,12.7213057 L7.89951273,12.1498587 C8.60979248,12.340341 9.29376557,12.5308234 10.030352,12.7213057 C9.5831388,10.5715764 7.7888527,9.83685874 6,9.02050581 C6.07891997,8.91165876 6.50525989,8.421847 6.5578732,8.31299995 C7.39968624,8.74838817 8.24149927,9.15656463 9.18853894,9.64637639 C9.68836543,8.39463524 10.1881919,7.19731762 10.6880184,6 C10.7669384,6.02721176 11.3982982,6.17874036 11.4772181,6.20595212 C11.3719915,6.55970505 9.97773866,11.2246587 11.4772181,13.0478469 C11.871818,12.0137999 12.2401112,10.9525411 12.6347111,9.91849403 C12.7399377,9.94570579 13.4135365,10.1489723 13.5187631,10.1761841 C13.2030832,11.1013841 12.2927245,14.3540116 12.6347111,15.0070939 C13.713284,16.9663409 14.2657238,18.5990468 15.3179901,20.531082 C16.2913364,20.2045409 16.4228697,19.3337644 16.475483,19.2521291 C16.8963895,18.7351056 16.7648563,15.578541 16.475483,15.0070939 C17.4225227,14.6261292 17.8171226,10.7138136 17.3172961,8.6457195 C17.554056,8.86341362 18.7904689,9.80964697 18.9483088,10.0545528 C19.3692153,9.67358815 19.7375085,9.31983522 20.1058017,8.99329405 C20.1408773,9.01143523 20.3864061,9.08450533 20.8423882,9.21250436 C19.9479618,9.90085825 19.4218287,10.4536587 19.2639887,10.8709058 C19.0272288,11.5511999 19.1061488,11.7112321 18.9483088,12.5820085 C19.702433,12.1284791 20.6332539,11.4627968 21.7407714,10.5849617 C21.931049,11.1565558 22.0524944,11.4786352 22.1051077,11.5511999 L19.8953485,13.0750587 C20.0005751,13.265541 20.6845482,13.6741024 20.8423882,13.9190083 C19.2639887,13.7557377 18.7115489,13.5376587 18.316949,15.1975763 L17.3699094,19.2793409 C17.6748751,19.3932564 17.6116542,19.6071523 18.4378215,19.8235762 C18.9885996,19.9678587 19.5533619,19.9678587 20.1321084,19.8235762 C21.0788578,19.0014785 21.6794907,18.3932792 21.934007,17.9989781 C22.7896627,16.6733816 22.8188664,15.6296202 22.8309934,15.4540011 C22.8573001,14.3655305 22.8309934,13.2498482 22.8309934,12.1613776 L24.1343094,12.3135142 L24.1343094,15.7421965 C24.2395361,15.79662 24.3447627,15.8238318 24.4236827,15.8782553 C25.5548689,14.87142 25.905197,13.8645847 27.0100766,12.8305377 C27.1679166,12.6944789 26.6538125,11.0889848 26.6011991,10.7080201 C26.7064258,10.6808083 27.9224681,10.7352319 28.0013881,10.7080201 C28.159228,11.3883142 28.317068,12.0686083 28.4749079,12.8305377 L30.2111473,12.8305377 L30.2111473,13.4442212 C28.545059,13.9240165 27.7207837,14.2001965 27.7383215,14.2727612 C29.158881,14.4632436 30.5794405,14.6265141 32,14.8169965 L30.7594149,15.7418115 C28.3770594,14.9801388 26.2300731,15.4428671 24.318456,17.1299964 C23.8449362,17.5653847 23.3451097,18.0007729 22.7137499,18.5722199 C24.3447627,18.7354905 25.7653222,18.8715493 27.1858817,19.0076082 L27.1858817,19.2797258 C27.0017351,19.3069376 26.7853457,19.8235762 26.6011991,19.8235762 C26.3606714,19.8097538 24.8188768,19.3741492 22.7137499,19.8235762 C22.275256,19.9171909 21.7659526,20.3154635 21.1858397,21.0183938 C19.9328159,21.1358082 18.9063679,21.1945154 18.1064958,21.1945154 C17.7743384,21.1945154 17.5112718,25.4896769 17.3172961,34.08 L15.3179901,34.08 C14.862008,25.3376468 14.484946,20.7397055 14.1868038,20.2861761 C13.713284,19.5242468 12.1611912,16.9280823 10.951085,16.5152599 C10.2223572,16.2666576 8.55717916,15.9054671 7.82059275,15.7421965 C7.84689941,15.6333494 7.87320607,15.1431527 7.89951273,15.0070939 C9.05700565,15.224788 10.4249518,15.4696939 11.8981246,15.7418115 Z" id="形状" fill="#C9D3E6" fill-rule="nonzero"></path>
        <rect id="矩形" fill="#C9D3E6" x="24" y="28" width="10" height="2" rx="0.2"></rect>
        <rect id="矩形" fill="#C9D3E6" x="28" y="24" width="2" height="10" rx="0.2"></rect>
    </g>
</svg>