<?xml version="1.0" encoding="UTF-8"?>
<svg width="40px" height="40px" viewBox="0 0 40 40" version="1.1" xmlns="http://www.w3.org/2000/svg" xmlns:xlink="http://www.w3.org/1999/xlink">
    <title>icon/chaji</title>
    <g id="icon/chaji" stroke="none" stroke-width="1" fill="none" fill-rule="evenodd">
        <path d="M12,16 C12,19.3137085 13.3431458,22.3137085 15.5147186,24.4852814 C17.6862915,26.6568542 20.6862915,28 24,28 C24.3864098,28 24.7685916,27.9822541 25.1928387,27.9361415 C24.5255851,29.4995526 23.4686103,30.85712 22.1456024,31.8893315 C20.4501238,33.2121449 18.317036,34 16,34 C13.2385763,34 10.7385763,32.8807119 8.92893219,31.0710678 C7.11928813,29.2614237 6,26.7614237 6,24 C6,21.7295705 6.75645547,19.635753 8.03150722,17.9572261 C9.07227367,16.5871214 10.4581311,15.4932704 12.0597959,14.805904 C12.0198516,15.1994844 12,15.5974247 12,16 Z M24,6 C26.7614237,6 29.2614237,7.11928813 31.0710678,8.92893219 C32.8807119,10.7385763 34,13.2385763 34,16 C34,18.3170376 33.2121435,20.4501266 31.8893181,22.1456163 C30.8579755,23.4675073 29.5018241,24.5238234 27.9406158,25.1939165 C27.9801484,24.8005156 28,24.4025753 28,24 C28,20.6862915 26.6568542,17.6862915 24.4852814,15.5147186 C22.3137085,13.3431458 19.3137085,12 16,12 C15.5384637,12 15.0830197,12.0260924 14.6350559,12.0768583 C15.3877736,10.5032478 16.4895205,9.14111547 17.8372706,8.10706662 C19.5614082,6.78423787 21.6889671,6 24,6 Z" id="形状结合" stroke-opacity="0.5" stroke="#C9D3E6" stroke-width="2" fill-opacity="0.8" fill="#C9D3E6"></path>
        <line x1="6" y1="23" x2="17" y2="34.1099052" id="路径-3" stroke-opacity="0.4" stroke="#C9D3E6" stroke-width="2"></line>
        <line x1="7" y1="19" x2="20.9766388" y2="33" id="路径-3备份" stroke-opacity="0.4" stroke="#C9D3E6" stroke-width="2"></line>
        <line x1="10" y1="17" x2="24.1303217" y2="31.1539397" id="路径-3备份-2" stroke-opacity="0.4" stroke="#C9D3E6" stroke-width="2"></line>
    </g>
</svg>