<?xml version="1.0" encoding="UTF-8"?>
<svg width="24px" height="24px" viewBox="0 0 24 24" version="1.1" xmlns="http://www.w3.org/2000/svg" xmlns:xlink="http://www.w3.org/1999/xlink">
    <title>icon/xianwei</title>
    <g id="icon/xianwei" stroke="none" stroke-width="1" fill="none" fill-rule="evenodd">
        <path d="M8.62961517,8.95995683 C8.24108607,8.37727948 7.97207889,8.2826632 7.56736109,7.96635264 C7.16264328,7.65004208 6.42023242,7.27851649 5.91838234,7.11203725 L6.16893091,6.76243085 C6.60602614,6.87896631 7.02693266,6.99550178 7.4802166,7.11203725 C7.20500849,5.79685125 6.10083243,5.3473573 5,4.84791957 C5.04856614,4.78132788 5.31092916,4.48166524 5.34330659,4.41507355 C5.86134538,4.68144033 6.37938417,4.9311592 6.96217781,5.23082183 C7.26976334,4.46501732 7.57734887,3.73250866 7.8849344,3 C7.93350054,3.01664792 8.32202964,3.10935182 8.37059577,3.12599974 C8.30584092,3.34242276 7.44783917,6.19640143 8.37059577,7.31181234 C8.61342646,6.67919123 8.84006843,6.02992219 9.08289911,5.39730107 C9.14765396,5.41394899 9.56217629,5.53830571 9.62693114,5.55495364 C9.4326666,6.12098306 8.87244585,8.1109127 9.08289911,8.51046288 C9.74663631,9.70911341 10.0865993,10.7079889 10.7341478,11.8899915 C11.3331301,11.6902164 11.4140737,11.1574828 11.4464511,11.107539 C11.7054705,10.7912285 11.6245269,8.86006928 11.4464511,8.51046288 C12.0292447,8.27739194 12.2720754,5.88387075 11.9644899,4.61862852 C12.1101883,4.75181191 12.8710578,5.33070937 12.96819,5.48054069 C13.2272094,5.24746975 13.4538514,5.03104674 13.6804934,4.83127165 C13.7020783,4.84237027 13.853173,4.88707393 14.1337773,4.96538264 C13.5833611,5.38651165 13.2595869,5.72471024 13.1624546,5.97997841 C13.0167562,6.39617652 13.0653223,6.49408283 12.96819,7.0268164 C13.4322665,6.749351 14.0050793,6.34209229 14.6866286,5.80504026 C14.8037224,6.15473663 14.8784581,6.35178205 14.9108355,6.39617652 L13.5509837,7.32846027 C13.6157385,7.44499573 14.0366451,7.69495009 14.1337773,7.84478141 C13.1624546,7.74489386 12.8224916,7.61147498 12.579661,8.62699835 L11.9968673,11.124187 C12.1845385,11.1938795 12.1456333,11.3247392 12.654044,11.4571454 C12.9929844,11.5454163 13.3405304,11.5454163 13.6966821,11.4571454 C14.2792971,10.9541932 14.6489173,10.582102 14.8055428,10.340872 C15.3321001,9.52988341 15.3500716,8.89131913 15.3575344,8.78387685 C15.3737231,8.11795988 15.3575344,7.435395 15.3575344,6.76947803 L16.159575,6.86255389 L16.159575,8.96019232 C16.2243299,8.99348817 16.2890847,9.01013609 16.3376509,9.04343194 C17.0337655,8.42745875 17.249352,7.81148556 17.9292779,7.17886444 C18.0264102,7.09562482 17.7100384,6.1133973 17.677661,5.88032636 C17.7424159,5.86367844 18.4907496,5.89697429 18.5393157,5.88032636 C18.636448,6.29652447 18.7335803,6.71272257 18.8307126,7.17886444 L19.8991676,7.17886444 L19.8991676,7.55431075 C18.8738825,7.8478454 18.3666361,8.01680996 18.3774286,8.06120442 C19.2516191,8.17773989 20.1258095,8.27762743 21,8.3941629 L20.236563,8.95995683 C18.7704981,8.49397195 17.4492758,8.77706516 16.272896,9.80923645 C15.9814992,10.0756032 15.6739137,10.34197 15.2853846,10.6915764 C16.2890847,10.791464 17.1632752,10.8747036 18.0374657,10.9579432 L18.0374657,11.1244225 C17.9241447,11.1410704 17.790982,11.4571454 17.677661,11.4571454 C17.529644,11.448689 16.5808473,11.1821899 15.2853846,11.4571454 C15.0155421,11.5144182 14.7021247,11.7580779 14.3451322,12.1881246 C13.5740405,12.2599577 12.9423802,12.2958743 12.4501513,12.2958743 C12.2457467,12.2958743 12.0838596,14.9236173 11.9644899,20.1791034 L10.7341478,20.1791034 C10.4535434,14.8306066 10.2215052,12.0176256 10.0380331,11.7401602 C9.74663631,11.2740183 8.79150229,9.68570712 8.04682153,9.43314589 C7.59837365,9.28105314 6.57364871,9.06007987 6.12036477,8.96019232 C6.13655348,8.89360063 6.1527422,8.5937025 6.16893091,8.51046288 C6.88123425,8.64364627 7.72304728,8.79347759 8.62961517,8.95995683 Z" id="形状" fill="#FFDB78"></path>
    </g>
</svg>