<?xml version="1.0" encoding="UTF-8"?>
<svg width="40px" height="40px" viewBox="0 0 40 40" version="1.1" xmlns="http://www.w3.org/2000/svg" xmlns:xlink="http://www.w3.org/1999/xlink">
    <title>icon/buguizezhongzidiancachu</title>
    <g id="icon/buguizezhongzidiancachu" stroke="none" stroke-width="1" fill="none" fill-rule="evenodd">
        <path d="M25.8028183,9.01269124 L12.007695,9.18732371 L12.1925119,32.9938852 L24.0460506,32.9245121 L25.8854175,31.0851453 L25.8028183,9.01269124 Z" id="矩形" stroke="#C9D3E6" stroke-width="2" fill-opacity="0.4" fill="#C9D3E6" transform="translate(19.000000, 21.000000) rotate(45.000000) translate(-19.000000, -21.000000) "></path>
        <path d="M15.0890873,9.6109127 L30.6881259,9.6109127 C30.7985828,9.6109127 30.8881259,9.70045575 30.8881259,9.8109127 C30.8881259,9.8112324 30.8881251,9.81155211 30.8881236,9.8118718 L30.8172339,24.5942483 L30.8172339,24.5942483 L14.8890873,24.6109127 L14.8890873,9.8109127 C14.8890873,9.70045575 14.9786303,9.6109127 15.0890873,9.6109127 Z" id="矩形" fill="#C9D3E6" transform="translate(22.889087, 17.110913) rotate(45.000000) translate(-22.889087, -17.110913) "></path>
        <path d="M15,32 L34.8,32 C34.9104569,32 35,32.0895431 35,32.2 L35,33.8 C35,33.9104569 34.9104569,34 34.8,34 L15,34 L15,34 L15,32 Z" id="矩形" fill="#C9D3E6"></path>
    </g>
</svg>