<?xml version="1.0" encoding="UTF-8"?>
<svg width="40px" height="40px" viewBox="0 0 40 40" version="1.1" xmlns="http://www.w3.org/2000/svg" xmlns:xlink="http://www.w3.org/1999/xlink">
    <title>icon/bingji</title>
    <defs>
        <path d="M16,13 C22.0751322,13 27,17.9248678 27,24 C27,24.9218484 26.8866029,25.8172115 26.6729967,26.6729012 C25.8172115,26.8866029 24.9218484,27 24,27 C17.9248678,27 13,22.0751322 13,16 C13,15.0781516 13.1133971,14.1827885 13.3270033,13.3270988 C14.1827885,13.1133971 15.0781516,13 16,13 Z" id="path-1"></path>
        <mask id="mask-2" maskContentUnits="userSpaceOnUse" maskUnits="objectBoundingBox" x="0" y="0" width="14" height="14" fill="white">
            <use xlink:href="#path-1"></use>
        </mask>
    </defs>
    <g id="icon/bingji" stroke="none" stroke-width="1" fill="none" fill-rule="evenodd">
        <path d="M24,6 C21.682964,6 19.5498762,6.78785515 17.8543976,8.1106685 C16.1220956,9.46221144 14.8458915,11.3715578 14.297329,13.5691878 C14.2477428,13.7678383 14.2045116,13.9672037 14.1675519,14.167014 C13.9675912,14.204346 13.7680862,14.2476063 13.5692969,14.2972301 C11.3716163,14.8458381 9.46224066,16.1220658 8.11068186,17.8543837 C6.78785652,19.5498734 6,21.6829624 6,24 C6,26.7614237 7.11928813,29.2614237 8.92893219,31.0710678 C10.7385763,32.8807119 13.2385763,34 16,34 C18.317036,34 20.4501238,33.2121449 22.1456024,31.8893315 C23.8779044,30.5377886 25.1541085,28.6284422 25.702671,26.4308122 C25.7522572,26.2321617 25.7954884,26.0327963 25.8324481,25.832986 C26.0324088,25.795654 26.2319138,25.7523937 26.4307031,25.7027699 C28.6283837,25.1541619 30.5377593,23.8779342 31.8893181,22.1456163 C33.2121435,20.4501266 34,18.3170376 34,16 C34,13.2385763 32.8807119,10.7385763 31.0710678,8.92893219 C29.2614237,7.11928813 26.7614237,6 24,6 Z" id="形状结合" stroke-opacity="0.5" stroke="#C9D3E6" stroke-width="2" fill-opacity="0.795876243" fill="#C9D3E6"></path>
        <line x1="6" y1="23" x2="17" y2="34.1099052" id="路径-3" stroke-opacity="0.4" stroke="#C9D3E6" stroke-width="2"></line>
        <line x1="7" y1="19" x2="20.9766388" y2="33" id="路径-3备份" stroke-opacity="0.4" stroke="#C9D3E6" stroke-width="2"></line>
        <line x1="10" y1="17" x2="24.1303217" y2="31.1539397" id="路径-3备份-2" stroke-opacity="0.4" stroke="#C9D3E6" stroke-width="2"></line>
        <use id="形状结合" stroke="#2C3138" mask="url(#mask-2)" stroke-width="4" stroke-dasharray="3,2" xlink:href="#path-1"></use>
    </g>
</svg>