<?xml version="1.0" encoding="UTF-8"?>
<svg width="40px" height="40px" viewBox="0 0 40 40" version="1.1" xmlns="http://www.w3.org/2000/svg" xmlns:xlink="http://www.w3.org/1999/xlink">
    <title>icon/cankaoxian</title>
    <g id="icon/cankaoxian" stroke="none" stroke-width="1" fill="none" fill-rule="evenodd">
        <path d="M18.8,9 C18.9104569,9 19,9.08954305 19,9.2 L19,30.8 C19,30.9104569 18.9104569,31 18.8,31 L17.2,31 C17.0895431,31 17,30.9104569 17,30.8 L17,21 L12,21 L12,24.0509275 C12,24.1613845 11.9104569,24.2509275 11.8,24.2509275 C11.7505916,24.2509275 11.702932,24.2326388 11.6662071,24.1995863 L7.16517648,20.1486588 C7.08307447,20.074767 7.07641879,19.9483091 7.15031059,19.8662071 C7.15500184,19.8609946 7.15996398,19.8560324 7.16517648,19.8513412 L11.6662071,15.8004137 C11.7483091,15.7265218 11.874767,15.7331775 11.9486588,15.8152795 C11.9817113,15.8520045 12,15.8996641 12,15.9490725 L12,19 L17,19 L17,9.2 C17,9.08954305 17.0895431,9 17.2,9 L18.8,9 Z M23,30.8 C23,30.9104569 22.9104569,31 22.8,31 L21.2,31 C21.0895431,31 21,30.9104569 21,30.8 L21,9.2 C21,9.08954305 21.0895431,9 21.2,9 L22.8,9 C22.9104569,9 23,9.08954305 23,9.2 L23,19 L28,19 L28,15.9490725 C28,15.8996641 28.0182887,15.8520045 28.0513412,15.8152795 C28.125233,15.7331775 28.2516909,15.7265218 28.3337929,15.8004137 L28.3337929,15.8004137 L32.8348235,19.8513412 C32.840036,19.8560324 32.8449982,19.8609946 32.8496894,19.8662071 C32.9235812,19.9483091 32.9169255,20.074767 32.8348235,20.1486588 L32.8348235,20.1486588 L28.3337929,24.1995863 C28.297068,24.2326388 28.2494084,24.2509275 28.2,24.2509275 C28.0895431,24.2509275 28,24.1613845 28,24.0509275 L28,24.0509275 L28,21 L23,21 L23,30.8 Z" id="形状结合" fill="#C9D3E6"></path>
    </g>
</svg>