<?xml version="1.0" encoding="UTF-8"?>
<svg width="40px" height="40px" viewBox="0 0 40 40" version="1.1" xmlns="http://www.w3.org/2000/svg" xmlns:xlink="http://www.w3.org/1999/xlink">
    <title>icon/left40*40</title>
    <g id="icon/left40*40" stroke="none" stroke-width="1" fill="none" fill-rule="evenodd">
        <path d="M15.0232913,10.0649432 L24.9513538,19.9930057 C25.0294587,20.0711105 25.0294587,20.1977435 24.9513538,20.2758484 L15.0232913,30.2039108 C14.9451865,30.2820157 14.8185535,30.2820157 14.7404486,30.2039108 L13.0649452,28.5284074 C12.9868378,28.4503051 12.9868378,28.3236721 13.0649427,28.2455673 C13.0649435,28.2455664 13.0649444,28.2455656 13.0649478,28.2455673 L21.0349548,20.2758458 C21.1130661,20.1977474 21.1130684,20.0711144 21.0349649,19.9930082 C21.0349632,19.9930065 21.0349615,19.9930048 21.0349548,19.9930082 L13.0649478,12.0232868 C12.986839,11.9451858 12.9868367,11.8185528 13.0649402,11.7404466 C13.064941,11.7404457 13.0649419,11.7404449 13.0649452,11.7404466 L14.7404486,10.0649432 C14.8185535,9.98683832 14.9451865,9.98683832 15.0232913,10.0649432 Z" id="路径-89" fill="#C9D3E6" transform="translate(19.008149, 20.134427) scale(-1, 1) translate(-19.008149, -20.134427) "></path>
    </g>
</svg>