<?xml version="1.0" encoding="UTF-8"?>
<svg width="40px" height="40px" viewBox="0 0 40 40" version="1.1" xmlns="http://www.w3.org/2000/svg" xmlns:xlink="http://www.w3.org/1999/xlink">
    <title>icon/peizhunshu</title>
    <g id="icon/peizhunshu" stroke="none" stroke-width="1" fill="none" fill-rule="evenodd">
        <path d="M26.7258026,26 L34.3222041,26 C34.4325908,26.00018 34.5221047,26.0896134 34.522384,26.1999999 L34.5256227,29.8000001 C34.5258554,29.8920474 34.4637674,29.9696272 34.3791432,29.9929877 L34.3258026,30 L34.3258026,30 L26.7258026,30 C26.6153457,30 26.5258026,29.9104569 26.5258026,29.8 L26.5258026,26.2 C26.5258026,26.0895431 26.6153457,26 26.7258026,26 Z M16.2,26 L23.7964015,26 C23.9067882,26.00018 23.9963021,26.0896134 23.9965814,26.1999999 L23.9998201,29.8000001 C24.0000528,29.8920474 23.9379648,29.9696272 23.8533406,29.9929877 L23.8,30 L23.8,30 L16.2,30 C16.0895431,30 16,29.9104569 16,29.8 L16,26.2 C16,26.0895431 16.0895431,26 16.2,26 Z M13.3216891,26 C13.4320758,26.00018 13.5215897,26.0896134 13.5218691,26.1999999 L13.5251077,29.8000001 C13.5253404,29.8920474 13.4632525,29.9696272 13.3786282,29.9929877 L13.3253776,30.0001573 L13.3253776,30.0001573 L5.72528763,30 C5.61483068,30 5.52528763,29.9104569 5.52528763,29.8 L5.52528763,26.2 C5.52528763,26.0895431 5.61483068,26 5.72528763,26 L13.3216891,26 Z M23.7964015,10 C23.9067882,10.00018 23.9963021,10.0896134 23.9965814,10.1999999 L23.9998201,13.8000001 C24.0000528,13.8920474 23.9379648,13.9696272 23.8533406,13.9929877 L23.8,14 L23.8,14 L16.2,14 C16.0895431,14 16,13.9104569 16,13.8 L16,10.2 C16,10.0895431 16.0895431,10 16.2,10 L23.7964015,10 Z" id="形状结合" fill="#C9D3E6"></path>
        <path d="M19.2,8.5 L20.8,8.5 C20.9104569,8.5 21,8.58954305 21,8.7 L21,31.3 C21,31.4104569 20.9104569,31.5 20.8,31.5 L19.2,31.5 C19.0895431,31.5 19,31.4104569 19,31.3 L19,8.7 C19,8.58954305 19.0895431,8.5 19.2,8.5 Z" id="矩形" fill-opacity="0.8" fill="#C9D3E6" transform="translate(20.000000, 20.000000) rotate(-270.000000) translate(-20.000000, -20.000000) "></path>
        <rect id="矩形" fill-opacity="0.8" fill="#C9D3E6" transform="translate(20.000000, 20.000000) rotate(-270.000000) translate(-20.000000, -20.000000) " x="14" y="19" width="12" height="2"></rect>
        <path d="M27.2,21.5 L34,21.5 L34,21.5 L34,23.5 L27,23.5 L27,21.7 C27,21.5895431 27.0895431,21.5 27.2,21.5 Z" id="矩形备份" fill-opacity="0.8" fill="#C9D3E6" transform="translate(30.500000, 22.500000) rotate(-270.000000) translate(-30.500000, -22.500000) "></path>
        <path d="M6,21.5 L13,21.5 L13,23.5 L6.2,23.5 C6.08954305,23.5 6,23.4104569 6,23.3 L6,21.5 L6,21.5 Z" id="矩形备份-2" fill-opacity="0.8" fill="#C9D3E6" transform="translate(9.500000, 22.500000) rotate(-270.000000) translate(-9.500000, -22.500000) "></path>
    </g>
</svg>