<?xml version="1.0" encoding="UTF-8"?>
<svg width="40px" height="40px" viewBox="0 0 40 40" version="1.1" xmlns="http://www.w3.org/2000/svg" xmlns:xlink="http://www.w3.org/1999/xlink">
    <title>icon/qipange</title>
    <g id="icon/qipange" stroke="none" stroke-width="1" fill="none" fill-rule="evenodd">
        <g id="编组" transform="translate(10.000000, 10.000000)" fill="#C9D3E6">
            <rect id="矩形" fill-opacity="0.2" x="0" y="0" width="20" height="20" rx="0.2"></rect>
            <path d="M3.80000002,16.00009 C3.89204744,15.9999736 3.96959931,16.0621089 3.99292181,16.1467458 L4,16.2 L4,16.2 L4,19.8 C4,19.9104569 3.91045695,20 3.8,20 L0.2,20 C0.08954305,20 -4.19840762e-17,19.9104569 0,19.8 L0,16.2017993 C8.99827623e-05,16.0913774 0.0895782124,16.0018489 0.19999998,16.0017093 L3.80000002,16.00009 Z M11.8,16.00009 C11.8920474,15.9999736 11.9695993,16.0621089 11.9929218,16.1467458 L12,16.2 L12,16.2 L12,19.8 C12,19.9104569 11.9104569,20 11.8,20 L8.2,20 C8.08954305,20 8,19.9104569 8,19.8 L8,16.2017993 C8.00008998,16.0913774 8.08957821,16.0018489 8.19999998,16.0017093 L11.8,16.00009 Z M19.8,16.00009 C19.8920474,15.9999736 19.9695993,16.0621089 19.9929218,16.1467458 L20,16.2 L20,16.2 L20,19.8 C20,19.9104569 19.9104569,20 19.8,20 L16.2,20 C16.0895431,20 16,19.9104569 16,19.8 L16,16.2017993 C16.00009,16.0913774 16.0895782,16.0018489 16.2,16.0017093 L19.8,16.00009 Z M7.80000002,12.00009 C7.89204744,11.9999736 7.96959931,12.0621089 7.99292181,12.1467458 L8,12.2 L8,12.2 L8,15.8 C8,15.9104569 7.91045695,16 7.8,16 L4.2,16 C4.08954305,16 4,15.9104569 4,15.8 L4,12.2017993 C4.00008998,12.0913774 4.08957821,12.0018489 4.19999998,12.0017093 L7.80000002,12.00009 Z M15.8,12.00009 C15.8920474,11.9999736 15.9695993,12.0621089 15.9929218,12.1467458 L16,12.2 L16,12.2 L16,15.8 C16,15.9104569 15.9104569,16 15.8,16 L12.2,16 C12.0895431,16 12,15.9104569 12,15.8 L12,12.2017993 C12.00009,12.0913774 12.0895782,12.0018489 12.2,12.0017093 L15.8,12.00009 Z M3.80000002,8.00008996 C3.89204744,7.99997361 3.96959931,8.06210891 3.99292181,8.14674575 L4,8.2 L4,8.2 L4,11.8 C4,11.9104569 3.91045695,12 3.8,12 L0.2,12 C0.08954305,12 -4.19840762e-17,11.9104569 0,11.8 L0,8.20179925 C8.99827623e-05,8.09137743 0.0895782124,8.00184894 0.19999998,8.00170929 L3.80000002,8.00008996 Z M11.8,8.00008996 C11.8920474,7.99997361 11.9695993,8.06210891 11.9929218,8.14674575 L12,8.2 L12,8.2 L12,11.8 C12,11.9104569 11.9104569,12 11.8,12 L8.2,12 C8.08954305,12 8,11.9104569 8,11.8 L8,8.20179925 C8.00008998,8.09137743 8.08957821,8.00184894 8.19999998,8.00170929 L11.8,8.00008996 Z M19.8,8.00008996 C19.8920474,7.99997361 19.9695993,8.06210891 19.9929218,8.14674575 L20,8.2 L20,8.2 L20,11.8 C20,11.9104569 19.9104569,12 19.8,12 L16.2,12 C16.0895431,12 16,11.9104569 16,11.8 L16,8.20179925 C16.00009,8.09137743 16.0895782,8.00184894 16.2,8.00170929 L19.8,8.00008996 Z M7.80000002,4.00008996 C7.89204744,3.99997361 7.96959931,4.06210891 7.99292181,4.14674575 L8,4.2 L8,4.2 L8,7.8 C8,7.91045695 7.91045695,8 7.8,8 L4.2,8 C4.08954305,8 4,7.91045695 4,7.8 L4,4.20179925 C4.00008998,4.09137743 4.08957821,4.00184894 4.19999998,4.00170929 L7.80000002,4.00008996 Z M15.8,4.00008996 C15.8920474,3.99997361 15.9695993,4.06210891 15.9929218,4.14674575 L16,4.2 L16,4.2 L16,7.8 C16,7.91045695 15.9104569,8 15.8,8 L12.2,8 C12.0895431,8 12,7.91045695 12,7.8 L12,4.20179925 C12.00009,4.09137743 12.0895782,4.00184894 12.2,4.00170929 L15.8,4.00008996 Z M3.80000002,8.99625198e-05 C3.89204744,-2.63934925e-05 3.96959931,0.0621089106 3.99292181,0.14674575 L4,0.2 L4,0.2 L4,3.8 C4,3.91045695 3.91045695,4 3.8,4 L0.2,4 C0.08954305,4 -4.19840762e-17,3.91045695 0,3.8 L0,0.201799251 C8.99827623e-05,0.0913774315 0.0895782124,0.00184893994 0.19999998,0.00170928806 L3.80000002,8.99625198e-05 Z M11.8,8.99625198e-05 C11.8920474,-2.63934925e-05 11.9695993,0.0621089106 11.9929218,0.14674575 L12,0.2 L12,0.2 L12,3.8 C12,3.91045695 11.9104569,4 11.8,4 L8.2,4 C8.08954305,4 8,3.91045695 8,3.8 L8,0.201799251 C8.00008998,0.0913774315 8.08957821,0.00184893994 8.19999998,0.00170928806 L11.8,8.99625198e-05 Z M19.8,8.99625198e-05 C19.8920474,-2.63934925e-05 19.9695993,0.0621089106 19.9929218,0.14674575 L20,0.2 L20,0.2 L20,3.8 C20,3.91045695 19.9104569,4 19.8,4 L16.2,4 C16.0895431,4 16,3.91045695 16,3.8 L16,0.201799251 C16.00009,0.0913774315 16.0895782,0.00184893994 16.2,0.00170928806 L19.8,8.99625198e-05 Z" id="形状结合"></path>
        </g>
    </g>
</svg>