<?xml version="1.0" encoding="UTF-8"?>
<svg width="40px" height="40px" viewBox="0 0 40 40" version="1.1" xmlns="http://www.w3.org/2000/svg" xmlns:xlink="http://www.w3.org/1999/xlink">
    <title>icon/right40*40</title>
    <g id="icon/right40*40" stroke="none" stroke-width="1" fill="none" fill-rule="evenodd">
        <path d="M17.0232913,10.0649432 L26.9513538,19.9930057 C27.0294587,20.0711105 27.0294587,20.1977435 26.9513538,20.2758484 L17.0232913,30.2039108 C16.9451865,30.2820157 16.8185535,30.2820157 16.7404486,30.2039108 L15.0649452,28.5284074 C14.9868378,28.4503051 14.9868378,28.3236721 15.0649427,28.2455673 C15.0649435,28.2455664 15.0649444,28.2455656 15.0649478,28.2455673 L23.0349548,20.2758458 C23.1130661,20.1977474 23.1130684,20.0711144 23.0349649,19.9930082 C23.0349632,19.9930065 23.0349615,19.9930048 23.0349548,19.9930082 L15.0649478,12.0232868 C14.986839,11.9451858 14.9868367,11.8185528 15.0649402,11.7404466 C15.064941,11.7404457 15.0649419,11.7404449 15.0649452,11.7404466 L16.7404486,10.0649432 C16.8185535,9.98683832 16.9451865,9.98683832 17.0232913,10.0649432 Z" id="路径-89" fill="#C9D3E6"></path>
    </g>
</svg>