<?xml version="1.0" encoding="UTF-8"?>
<svg width="40px" height="40px" viewBox="0 0 40 40" version="1.1" xmlns="http://www.w3.org/2000/svg" xmlns:xlink="http://www.w3.org/1999/xlink">
    <title>icon/shangxiacengxia</title>
    <g id="icon/shangxiacengxia" stroke="none" stroke-width="1" fill="none" fill-rule="evenodd">
        <path d="M33.6549753,19 C33.7654323,19 33.8549753,19.0895431 33.8549753,19.2 C33.8549753,19.2348717 33.8458576,19.2691375 33.8285268,19.2993977 L28.330345,28.8993977 C28.2947102,28.9616171 28.2284949,29 28.1567935,29 L7.34502465,29 C7.2345677,29 7.14502465,28.9104569 7.14502465,28.8 C7.14502465,28.7651283 7.15414236,28.7308625 7.1714732,28.7006023 L11.0080247,22 L27.1567935,22 C27.2105696,22 27.2612597,21.9784096 27.2982772,21.9413656 L27.330345,21.8993977 L28.9900247,19 L33.6549753,19 Z" id="形状结合" fill="#C9D3E6"></path>
        <path d="M11.0515461,22 L12.6700362,19.1024687 C12.7053759,19.0392012 12.7721749,19 12.8446433,19 L28.9845543,19 L28.9845543,19 L27.2727273,22 L11.0515461,22 Z" id="路径-25" fill-opacity="0.501973612" fill="#C9D3E6"></path>
        <path d="M31.8161335,12.5040271 L11.9692259,12.599172 L7.18386645,21.4959729 L27.0307741,21.400828 L31.8161335,12.5040271 Z" id="矩形" stroke-opacity="0.8" stroke="#C9D3E6" fill-opacity="0.2" fill="#C9D3E6"></path>
    </g>
</svg>