<?xml version="1.0" encoding="UTF-8"?>
<svg width="40px" height="40px" viewBox="0 0 40 40" version="1.1" xmlns="http://www.w3.org/2000/svg" xmlns:xlink="http://www.w3.org/1999/xlink">
    <title>icon/shoudongpeizhun</title>
    <g id="icon/shoudongpeizhun" stroke="none" stroke-width="1" fill="none" fill-rule="evenodd">
        <path d="M14.2,18.0062074 L27.8,18.00009 C27.9104569,17.9999503 28.0000402,18.0894531 28.0000899,18.19991 C28.0000899,18.19994 28.0000899,18.19997 28,18.2 L28,31.8 C28,31.9104569 27.9104569,32 27.8,32 L14.2,32 C14.0895431,32 14,31.9104569 14,31.8 L14,18.2062974 C14.00009,18.0958756 14.0895782,18.0063471 14.2,18.0062074 Z" id="矩形备份" fill-opacity="0.2" fill="#C9D3E6" transform="translate(21.000000, 25.000000) rotate(-330.000000) translate(-21.000000, -25.000000) "></path>
        <path d="M9.19999998,14.0062074 L22.8,14.00009 C22.9104569,13.9999503 23.0000402,14.0894531 23.0000899,14.19991 C23.0000899,14.19994 23.0000899,14.19997 23,14.2 L23,27.8 C23,27.9104569 22.9104569,28 22.8,28 L9.2,28 C9.08954305,28 9,27.9104569 9,27.8 L9,14.2062974 C9.00008998,14.0958756 9.08957821,14.0063471 9.19999998,14.0062074 Z" id="矩形" fill-opacity="0.8" fill="#C9D3E6"></path>
        <path d="M24.8496911,4.06620877 C24.8827436,4.10293372 24.9010323,4.15059336 24.9010323,4.20000172 L24.9022815,6.67531009 C26.9973634,6.65915217 28.6370863,7.13174244 29.8214501,8.09308088 C31.0154701,9.06225714 31.6363066,10.624637 31.6839596,12.7802204 L31.6868412,13.1080071 C31.6863591,13.2184809 31.5964115,13.3076469 31.4859377,13.3071648 C31.4197206,13.3068758 31.3579378,13.2738363 31.3209313,13.2189245 C30.3349978,11.7559549 29.3524907,10.759982 28.3734101,10.2310056 C27.480501,9.74858585 26.3234009,9.54757315 24.9021096,9.62796749 L24.9010323,12.3018568 C24.9010323,12.4123137 24.8114892,12.5018568 24.7010323,12.5018568 C24.6516239,12.5018568 24.6039643,12.483568 24.5672394,12.4505156 L20.0662088,8.39958807 C19.9841068,8.32569626 19.9774511,8.1992383 20.0513429,8.11713629 C20.0560341,8.1119238 20.0609963,8.10696165 20.0662088,8.10227041 L24.5672394,4.05134289 C24.6493414,3.97745109 24.7757993,3.98410677 24.8496911,4.06620877 Z" id="形状结合" fill="#C9D3E6"></path>
    </g>
</svg>