<?xml version="1.0" encoding="UTF-8"?>
<svg width="40px" height="40px" viewBox="0 0 40 40" version="1.1" xmlns="http://www.w3.org/2000/svg" xmlns:xlink="http://www.w3.org/1999/xlink">
    <title>icon/xiugaipeizhun</title>
    <g id="icon/xiugaipeizhun" stroke="none" stroke-width="1" fill="none" fill-rule="evenodd">
        <path d="M14.2,19.0062074 L27.8,19.00009 C27.9104569,18.9999503 28.0000402,19.0894531 28.0000899,19.19991 C28.0000899,19.19994 28.0000899,19.19997 28,19.2 L28,32.8 C28,32.9104569 27.9104569,33 27.8,33 L14.2,33 C14.0895431,33 14,32.9104569 14,32.8 L14,19.2062974 C14.00009,19.0958756 14.0895782,19.0063471 14.2,19.0062074 Z" id="矩形备份" fill-opacity="0.2" fill="#C9D3E6" transform="translate(21.000000, 26.000000) rotate(-330.000000) translate(-21.000000, -26.000000) "></path>
        <path d="M9.19999998,15.0062074 L22.8,15.00009 C22.9104569,14.9999503 23.0000402,15.0894531 23.0000899,15.19991 C23.0000899,15.19994 23.0000899,15.19997 23,15.2 L23,28.8 C23,28.9104569 22.9104569,29 22.8,29 L9.2,29 C9.08954305,29 9,28.9104569 9,28.8 L9,15.2062974 C9.00008998,15.0958756 9.08957821,15.0063471 9.19999998,15.0062074 Z" id="矩形" fill-opacity="0.6" fill="#C9D3E6"></path>
        <path d="M25.5414214,8.5764502 L28.8585786,11.8936075 C28.9366835,11.9717123 28.9366835,12.0983453 28.8585786,12.1764502 L24.0112016,17.0238272 C23.978118,17.0569109 23.9344825,17.0773486 23.8878874,17.0815845 L20.2390144,17.4133003 C20.129011,17.4233006 20.0317289,17.3422321 20.0217286,17.2322288 L20.0217286,17.1960145 L20.0217286,17.1960145 L20.3534443,13.5471415 C20.3576802,13.5005463 20.378118,13.4569109 20.4112016,13.4238272 L25.2585786,8.5764502 C25.3366835,8.49834534 25.4633165,8.49834534 25.5414214,8.5764502 Z M28.3914214,5.5764502 L31.8585786,9.04360749 C31.9366835,9.12171234 31.9366835,9.24834534 31.8585786,9.3264502 L29.8914214,11.2936075 C29.8133165,11.3717123 29.6866835,11.3717123 29.6085786,11.2936075 L26.1414214,7.8264502 C26.0633165,7.74834534 26.0633165,7.62171234 26.1414214,7.54360749 L28.1085786,5.5764502 C28.1866835,5.49834534 28.3133165,5.49834534 28.3914214,5.5764502 Z" id="形状结合" fill="#C9D3E6"></path>
    </g>
</svg>