<?xml version="1.0" encoding="UTF-8"?>
<svg width="40px" height="40px" viewBox="0 0 40 40" version="1.1" xmlns="http://www.w3.org/2000/svg" xmlns:xlink="http://www.w3.org/1999/xlink">
    <title>icon/xuanzhuan90</title>
    <g id="icon/xuanzhuan90" stroke="none" stroke-width="1" fill="none" fill-rule="evenodd">
        <path d="M16.8782923,6.05436058 C16.9184496,6.0921557 16.9412193,6.14485458 16.9412193,6.20000057 L16.9405482,10.3227726 C17.3878435,10.2404891 17.8938596,10.1956851 18.4635351,10.1956851 C22.1119751,10.1956851 25.3916243,11.1327769 27.87293,13.4882672 C30.1461739,15.6462457 31.9975391,19.4938379 31.2872424,23.5297798 C30.1439859,30.0258212 22.993293,32.2843938 19.5945393,32.9626374 C18.2529111,33.2303681 18.8132795,32.9980829 19.569988,32.7360392 C22.6778379,31.6598091 28.5404734,28.6938215 27.87293,23.5297798 C27.0428511,17.1083818 20.7022165,16.7808494 17.9238313,16.7808494 C17.7543338,16.7808494 17.3398666,16.7927387 16.9414677,16.7805838 L16.9412193,22.1913697 C16.9412193,22.3018266 16.8516763,22.3913697 16.7412193,22.3913697 C16.6860733,22.3913697 16.6333744,22.3686 16.5955793,22.3284426 L9.07022914,14.3327581 C8.99774914,14.2557481 8.99774914,14.1356222 9.07022914,14.0586122 L16.5955793,6.06292763 C16.6712826,5.98249288 16.7978575,5.97865728 16.8782923,6.05436058 Z M10.3774414,24.0786133 C11.112793,24.0786133 11.6899414,24.3583984 12.1088867,24.9179687 C12.527832,25.4775391 12.7373047,26.2583008 12.7373047,27.2602539 C12.7373047,28.449707 12.4846191,29.3901367 11.979248,30.081543 C11.473877,30.7729492 10.746582,31.1186523 9.79736328,31.1186523 C9.26123047,31.1186523 8.79101562,31.0322266 8.38671875,30.859375 L8.38671875,30.859375 L8.38671875,29.6772461 L8.54635682,29.7705178 C8.87352519,29.9427117 9.24804687,30.0288086 9.66992187,30.0288086 C10.7685547,30.0288086 11.3295898,29.3139648 11.3530273,27.8842773 L11.3530273,27.8842773 L11.3266602,27.8754883 L11.2321338,28.0065771 C10.9339209,28.3791455 10.5040039,28.5654297 9.94238281,28.5654297 C9.37695312,28.5654297 8.91186523,28.3669434 8.54711914,27.9699707 C8.18237305,27.572998 8,27.0727539 8,26.4692383 C8,25.7602539 8.21972656,25.1845703 8.65917969,24.7421875 C9.09863281,24.2998047 9.67138672,24.0786133 10.3774414,24.0786133 Z M16.0463867,24.0786133 C17.6108398,24.0786133 18.3930664,25.2358398 18.3930664,27.550293 C18.3930664,28.6899414 18.1806641,29.5695801 17.7558594,30.189209 C17.3310547,30.8088379 16.7172852,31.1186523 15.9145508,31.1186523 C14.3149414,31.1186523 13.5151367,29.9819336 13.5151367,27.7084961 C13.5151367,26.5307617 13.7319336,25.6313477 14.1655273,25.0102539 C14.5991211,24.3891602 15.2260742,24.0786133 16.0463867,24.0786133 Z M15.9848633,25.168457 C15.2963867,25.168457 14.9521484,26.003418 14.9521484,27.6733398 C14.9521484,29.2436523 15.2875977,30.0288086 15.9584961,30.0288086 C16.6176758,30.0288086 16.9472656,29.2202148 16.9472656,27.6030273 C16.9472656,25.9799805 16.6264648,25.168457 15.9848633,25.168457 Z M10.3334961,25.168457 C10.0493164,25.168457 9.8215332,25.28125 9.65014648,25.5068359 C9.47875977,25.7324219 9.39306641,26.0107422 9.39306641,26.3417969 C9.39306641,26.7021484 9.48022461,26.9848633 9.65454102,27.1899414 C9.82885742,27.3950195 10.0668945,27.4975586 10.3686523,27.4975586 C10.6381836,27.4975586 10.8601074,27.3994141 11.0344238,27.203125 C11.2087402,27.0068359 11.2958984,26.7636719 11.2958984,26.4736328 C11.2958984,26.125 11.2087402,25.8203125 11.0344238,25.5595703 C10.8601074,25.2988281 10.6264648,25.168457 10.3334961,25.168457 Z M20.6123047,24.0786133 C20.9873047,24.0786133 21.3059082,24.2097168 21.5681152,24.4719238 C21.8303223,24.7341309 21.9614258,25.046875 21.9614258,25.4101562 C21.9614258,25.7705078 21.8288574,26.083252 21.5637207,26.3483887 C21.298584,26.6135254 20.9814453,26.7460937 20.6123047,26.7460937 C20.2460937,26.7460937 19.9304199,26.6157227 19.6652832,26.3549805 C19.4001465,26.0942383 19.2675781,25.7792969 19.2675781,25.4101562 C19.2675781,25.0410156 19.3994141,24.7268066 19.6630859,24.4675293 C19.9267578,24.208252 20.2431641,24.0786133 20.6123047,24.0786133 Z M20.6123047,24.7773437 C20.4453125,24.7773437 20.2995605,24.8388672 20.1750488,24.9619141 C20.0505371,25.0849609 19.9882812,25.234375 19.9882812,25.4101562 C19.9882812,25.5830078 20.0490723,25.7316895 20.1706543,25.8562012 C20.2922363,25.9807129 20.4394531,26.0429687 20.6123047,26.0429687 C20.7851562,26.0429687 20.9331055,25.9814453 21.0561523,25.8583984 C21.1791992,25.7353516 21.2407227,25.5859375 21.2407227,25.4101562 C21.2407227,25.234375 21.1784668,25.0849609 21.0539551,24.9619141 C20.9294434,24.8388672 20.7822266,24.7773437 20.6123047,24.7773437 Z" id="形状结合" fill="#C9D3E6"></path>
    </g>
</svg>