<?xml version="1.0" encoding="UTF-8"?>
<svg width="40px" height="40px" viewBox="0 0 40 40" version="1.1" xmlns="http://www.w3.org/2000/svg" xmlns:xlink="http://www.w3.org/1999/xlink">
    <title>icon/yidong</title>
    <g id="icon/yidong" stroke="none" stroke-width="1" fill="none" fill-rule="evenodd">
        <g id="编组" transform="translate(6.000000, 6.000000)" fill="#C9D3E6">
            <path d="M4.30769231,17.8248496 C4.30769231,17.9353065 4.21814926,18.0248496 4.10769231,18.0248496 C4.05464901,18.0248496 4.00377823,18.0037782 3.96627095,17.966271 L0.141421356,14.1414214 C0.0633164979,14.0633165 0.0633164979,13.9366835 0.141421356,13.8585786 L3.96627095,10.033729 C4.04437581,9.95562419 4.17100881,9.95562419 4.24911366,10.033729 C4.28662094,10.0712363 4.30769231,10.1221071 4.30769231,10.1751504 L4.30769231,12.9230769 L12.9228427,12.9228427 L12.9230769,4.30769231 L10.1751504,4.30769231 C10.0646935,4.30769231 9.9751504,4.21814926 9.9751504,4.10769231 C9.9751504,4.05464901 9.99622177,4.00377823 10.033729,3.96627095 L13.8585786,0.141421356 C13.9366835,0.0633164979 14.0633165,0.0633164979 14.1414214,0.141421356 L17.966271,3.96627095 C18.0443758,4.04437581 18.0443758,4.17100881 17.966271,4.24911366 C17.9287637,4.28662094 17.8778929,4.30769231 17.8248496,4.30769231 L15.0769231,4.30769231 L15.0768427,12.9228427 L23.6923077,12.9230769 L23.6923077,10.1751504 C23.6923077,10.1221071 23.7133791,10.0712363 23.7508863,10.033729 C23.8289912,9.95562419 23.9556242,9.95562419 24.033729,10.033729 L24.033729,10.033729 L27.8585786,13.8585786 C27.9366835,13.9366835 27.9366835,14.0633165 27.8585786,14.1414214 L27.8585786,14.1414214 L24.033729,17.966271 C23.9962218,18.0037782 23.945351,18.0248496 23.8923077,18.0248496 C23.7818507,18.0248496 23.6923077,17.9353065 23.6923077,17.8248496 L23.6923077,17.8248496 L23.6923077,15.0769231 L15.0768427,15.0768427 L15.0769231,23.6923077 L17.8248496,23.6923077 C17.8778929,23.6923077 17.9287637,23.7133791 17.966271,23.7508863 C18.0443758,23.8289912 18.0443758,23.9556242 17.966271,24.033729 L17.966271,24.033729 L14.1414214,27.8585786 C14.0633165,27.9366835 13.9366835,27.9366835 13.8585786,27.8585786 L13.8585786,27.8585786 L10.033729,24.033729 C9.99622177,23.9962218 9.9751504,23.945351 9.9751504,23.8923077 C9.9751504,23.7818507 10.0646935,23.6923077 10.1751504,23.6923077 L10.1751504,23.6923077 L12.9230769,23.6923077 L12.9228427,15.0768427 L4.30769231,15.0769231 L4.30769231,17.8248496 Z" id="形状结合"></path>
        </g>
    </g>
</svg>