<?xml version="1.0" encoding="UTF-8"?>
<svg width="40px" height="40px" viewBox="0 0 40 40" version="1.1" xmlns="http://www.w3.org/2000/svg" xmlns:xlink="http://www.w3.org/1999/xlink">
    <title>icon/zidongpeizhun</title>
    <g id="icon/zidongpeizhun" stroke="none" stroke-width="1" fill="none" fill-rule="evenodd">
        <path d="M14.2,19.0062074 L27.8,19.00009 C27.9104569,18.9999503 28.0000402,19.0894531 28.0000899,19.19991 C28.0000899,19.19994 28.0000899,19.19997 28,19.2 L28,32.8 C28,32.9104569 27.9104569,33 27.8,33 L14.2,33 C14.0895431,33 14,32.9104569 14,32.8 L14,19.2062974 C14.00009,19.0958756 14.0895782,19.0063471 14.2,19.0062074 Z" id="矩形备份" fill-opacity="0.2" fill="#C9D3E6" transform="translate(21.000000, 26.000000) rotate(-330.000000) translate(-21.000000, -26.000000) "></path>
        <path d="M9.19999998,15.0062074 L22.8,15.00009 C22.9104569,14.9999503 23.0000402,15.0894531 23.0000899,15.19991 C23.0000899,15.19994 23.0000899,15.19997 23,15.2 L23,28.8 C23,28.9104569 22.9104569,29 22.8,29 L9.2,29 C9.08954305,29 9,28.9104569 9,28.8 L9,15.2062974 C9.00008998,15.0958756 9.08957821,15.0063471 9.19999998,15.0062074 Z" id="矩形" fill-opacity="0.8" fill="#C9D3E6"></path>
        <path d="M25.766768,13.8563044 L26.0984664,12.7257268 C26.1234575,12.6405458 26.2016059,12.5820312 26.2903773,12.5820312 L29.0149024,12.5820312 C29.1033925,12.5820312 29.1813636,12.6401821 29.206598,12.7249979 L29.543402,13.8570334 C29.5686364,13.9418492 29.6466075,14 29.7350976,14 L32.0744507,14 C32.1849076,14 32.2744507,13.9104569 32.2744507,13.8 C32.2744507,13.7759674 32.2701192,13.7521315 32.261664,13.7296354 L29.1834894,5.53979163 C29.1541776,5.46180398 29.0795903,5.41015625 28.9962761,5.41015625 L26.3787239,5.41015625 C26.2954097,5.41015625 26.2208224,5.46180398 26.1915106,5.53979163 L23.113336,13.7296354 C23.0744747,13.8330304 23.1267896,13.948352 23.2301847,13.9872133 C23.2526808,13.9956685 23.2765167,14 23.3005493,14 L25.574857,14 C25.6636285,14 25.7417769,13.9414855 25.766768,13.8563044 Z M28.3367056,10.7246094 L26.9850694,10.7246094 C26.8746124,10.7246094 26.7850694,10.6350663 26.7850694,10.5246094 C26.7850694,10.5048066 26.7880104,10.4851136 26.7937962,10.4661749 L27.467522,8.26087369 C27.4997945,8.15523646 27.6115924,8.09576257 27.7172296,8.12803505 C27.7807267,8.14743359 27.830458,8.19707865 27.8499666,8.26054199 L28.5278771,10.4658432 C28.5603327,10.5714243 28.5010528,10.6833252 28.3954718,10.7157809 C28.376432,10.7216337 28.3566246,10.7246094 28.3367056,10.7246094 Z" id="A" fill="#C9D3E6"></path>
    </g>
</svg>